<svg width="39" height="39" viewBox="0 0 39 39" fill="none" xmlns="http://www.w3.org/2000/svg">
<path d="M38.0266 23.9744C35.4482 34.316 24.9739 40.6098 14.6311 38.0309C4.29248 35.4526 -2.00131 24.9776 0.578186 14.6366C3.15529 4.29376 13.6296 -2.00063 23.9695 0.577667C34.3117 3.15601 40.6048 13.6322 38.0266 23.9744Z" fill="#F7931A"/>
<path d="M12.9522 22.556C12.8472 22.8166 12.5812 23.2075 11.9816 23.0591C12.0027 23.0898 10.4421 22.6748 10.4421 22.6748L9.39062 25.0993L12.1469 25.7864C12.6596 25.9149 13.1622 26.0494 13.6568 26.1761L12.7803 29.6955L14.8959 30.2234L15.764 26.7414C16.3419 26.8982 16.9029 27.043 17.4519 27.1793L16.5868 30.645L18.7049 31.1729L19.5814 27.6601C23.1931 28.3436 25.9089 28.0679 27.0521 24.8013C27.9733 22.1711 27.0063 20.6538 25.106 19.6645C26.4899 19.3454 27.5323 18.4351 27.8104 16.5547C28.1946 13.9861 26.2389 12.6052 23.5647 11.684L24.4321 8.20442L22.3141 7.67657L21.4695 11.0645C20.9127 10.9257 20.3408 10.7948 19.7726 10.6651L20.6232 7.25484L18.5063 6.72699L17.6382 10.2054C17.1773 10.1004 16.7249 9.99659 16.2857 9.88744L16.2881 9.87656L13.3672 9.14722L12.8037 11.4094C12.8037 11.4094 14.3752 11.7696 14.342 11.7919C15.1999 12.0061 15.3549 12.5737 15.329 13.0238L12.9522 22.556ZM22.9711 23.3408C22.3165 25.971 17.888 24.5491 16.4523 24.1926L17.6154 19.53C19.0511 19.8883 23.6551 20.5977 22.9711 23.3408ZM23.6262 16.5168C23.029 18.9093 19.3431 17.6937 18.1474 17.3957L19.2019 13.1669C20.3976 13.4649 24.2482 14.0211 23.6262 16.5168Z" fill="white"/>
</svg>
