<svg width="428" height="330" viewBox="0 0 428 330" fill="none" xmlns="http://www.w3.org/2000/svg">
<path d="M15.5065 45.4209C15.5065 36.7351 22.8809 29.8687 31.5484 30.4342C170.634 39.5084 255.348 39.3682 394.424 30.4174C403.086 29.8599 410.45 36.7242 410.45 45.4036V237.205C410.45 246.073 402.788 253.001 393.959 252.164C323.918 245.518 267.71 242.158 211.373 242.184C156.108 242.209 100.72 245.493 32.0293 252.129C23.1895 252.983 15.5065 246.051 15.5065 237.17V45.4209Z" fill="#6932D4"/>
<path opacity="0.15" d="M367.475 88.6698L357.058 25.3174L388.518 3.39585L459.567 120.945L412.721 149.26C388.684 137.621 371.808 115.022 367.475 88.6698Z" fill="white"/>
<path opacity="0.15" d="M92.12 198.264L123.601 284.637L85.1576 323.836L-46.0274 177.308L12.3674 125.028C49.2782 135.02 79.025 162.337 92.12 198.264Z" fill="white"/>
<path opacity="0.15" d="M378.909 85.4653L368.492 22.1129L399.952 0.191401L471 117.741L424.154 146.055C400.118 134.417 383.242 111.817 378.909 85.4653Z" fill="white"/>
<path opacity="0.15" d="M77.3868 203.853L108.868 290.225L70.4245 329.425L-60.7605 182.896L-2.36577 130.616C34.545 140.609 64.2919 167.925 77.3868 203.853Z" fill="white"/>
<path opacity="0.85" d="M156.495 102.416L155.456 101.395C154.553 102.297 153.276 102.774 152.067 102.774C148.849 102.774 147.367 100.509 147.333 98.0909C147.316 95.6217 148.866 93.3058 152.067 93.3058C153.276 93.3058 154.485 93.7315 155.405 94.634L156.426 93.6804C155.217 92.4884 153.651 91.8924 152.067 91.8924C147.878 91.8924 145.817 94.9576 145.851 98.108C145.868 101.275 147.861 104.187 152.067 104.187C153.702 104.187 155.286 103.608 156.495 102.416ZM164.69 104H165.984V95.5877H164.587V100.1C164.587 101.616 163.532 102.825 161.999 102.842C160.398 102.842 159.445 101.837 159.445 100.22V95.5877H158.048V100.237C158.048 102.689 159.564 104.136 161.71 104.136C162.885 104.119 163.889 103.676 164.639 102.655L164.707 104H164.69ZM169.839 95.5877H168.545V104H169.941V99.317C169.941 97.7674 171.065 96.8138 172.41 96.7967C172.989 96.7967 173.432 96.95 173.875 97.2565L174.505 96.0645C173.994 95.6728 173.279 95.4174 172.546 95.4344C171.576 95.4344 170.537 95.7409 169.958 96.8308L169.856 95.5706L169.839 95.5877ZM177.123 95.5877H175.829V104H177.225V99.317C177.225 97.7674 178.349 96.8138 179.694 96.7967C180.273 96.7967 180.716 96.95 181.159 97.2565L181.789 96.0645C181.278 95.6728 180.563 95.4174 179.83 95.4344C178.86 95.4344 177.821 95.7409 177.242 96.8308L177.14 95.5706L177.123 95.5877ZM190.39 102.655L189.454 101.803C188.892 102.484 187.734 102.859 186.78 102.859C185.162 102.859 183.885 101.888 183.732 100.339H190.884C191.208 96.984 189.249 95.4003 186.678 95.4003C184.141 95.4003 182.318 97.2224 182.318 99.7598C182.318 102.433 184.141 104.153 186.746 104.153C188.057 104.153 189.522 103.659 190.373 102.655H190.39ZM189.556 99.1638H183.732C183.97 97.546 185.247 96.6605 186.712 96.6605C188.364 96.6605 189.488 97.546 189.556 99.1808V99.1638ZM192.824 95.5877V104H194.204V99.4873C194.204 97.9717 195.259 96.7627 196.792 96.7456C198.393 96.7456 199.346 97.7503 199.346 99.3681V104H200.743V99.3511C200.743 96.8819 199.176 95.4514 197.047 95.4514C195.924 95.4514 194.902 95.9112 194.17 96.9159L194.101 95.5706H192.824V95.5877ZM205.336 93.1355L203.939 93.2887V95.6047H202.253V96.7967H203.939V101.241C203.939 103.097 204.791 104.153 206.596 104.119C207.158 104.102 207.669 103.966 208.23 103.711L207.822 102.553C207.447 102.74 207.021 102.859 206.647 102.859C205.642 102.859 205.319 102.229 205.319 101.241V96.7967H207.941V95.6047H205.336V93.1355ZM214.4 92.0797V104H219.611C221.859 104 223.988 103.251 223.988 100.713C223.988 99.6065 223.29 98.2782 221.842 97.8696C222.983 97.4268 223.613 96.5072 223.613 95.4174C223.613 93.1525 221.774 92.0797 219.611 92.0797H214.4ZM215.882 93.425H219.611C221.076 93.425 222.149 94.1061 222.149 95.4344C222.149 96.6775 221.11 97.2054 219.679 97.2054H215.882V93.425ZM215.882 98.5507H219.679C220.974 98.5507 222.489 99.1638 222.506 100.662C222.506 102.28 220.854 102.604 219.611 102.604H215.882V98.5507ZM232.999 104H234.344V95.5877H232.982L232.965 97.1203C232.352 96.0304 231.108 95.4514 229.848 95.4514C227.447 95.4344 225.523 97.0692 225.523 99.7938C225.523 102.536 227.413 104.204 229.831 104.204C230.989 104.204 232.266 103.659 232.931 102.501L232.965 104.034L232.999 104ZM229.916 96.7627C233.952 96.7627 233.952 102.927 229.899 102.927C228.231 102.927 226.885 101.718 226.885 99.8449C226.885 97.9717 228.231 96.7797 229.899 96.7797L229.916 96.7627ZM238.392 92.0797H236.996V104H238.392V92.0797ZM247.999 104H249.344V95.5877H247.982L247.965 97.1203C247.352 96.0304 246.109 95.4514 244.848 95.4514C242.447 95.4344 240.523 97.0692 240.523 99.7938C240.523 102.536 242.413 104.204 244.831 104.204C245.989 104.204 247.267 103.659 247.931 102.501L247.965 104.034L247.999 104ZM244.917 96.7627C248.952 96.7627 248.952 102.927 244.9 102.927C243.231 102.927 241.885 101.718 241.885 99.8449C241.885 97.9717 243.231 96.7797 244.9 96.7797L244.917 96.7627ZM251.894 95.5877V104H253.273V99.4873C253.273 97.9717 254.329 96.7627 255.861 96.7456C257.462 96.7456 258.416 97.7503 258.416 99.3681V104H259.812V99.3511C259.812 96.8819 258.246 95.4514 256.117 95.4514C254.993 95.4514 253.971 95.9112 253.239 96.9159L253.171 95.5706H251.894V95.5877ZM269.27 102.876L268.333 101.939C267.737 102.553 266.937 102.825 266.137 102.825C264.502 102.825 263.14 101.752 263.14 99.7938C263.14 97.9036 264.485 96.7627 266.154 96.7627C266.903 96.7627 267.686 97.0351 268.282 97.6141L269.168 96.6945C268.282 95.8261 267.261 95.4344 266.12 95.4344C263.685 95.4344 261.726 96.984 261.726 99.7938C261.726 102.604 263.719 104.153 266.12 104.153C267.278 104.153 268.351 103.762 269.253 102.859L269.27 102.876ZM278.396 102.655L277.459 101.803C276.897 102.484 275.739 102.859 274.785 102.859C273.168 102.859 271.891 101.888 271.737 100.339H278.889C279.213 96.984 277.255 95.4003 274.683 95.4003C272.146 95.4003 270.324 97.2224 270.324 99.7598C270.324 102.433 272.146 104.153 274.751 104.153C276.063 104.153 277.527 103.659 278.379 102.655H278.396ZM277.561 99.1638H271.737C271.976 97.546 273.253 96.6605 274.717 96.6605C276.369 96.6605 277.493 97.546 277.561 99.1808V99.1638Z" fill="white"/>
<path d="M142.737 147.767H153.976V145.825H149.48V123.926L142.941 125.799V127.775L147.267 126.685V145.825H142.737V147.767ZM174.815 123.926H158.059C158.059 127.843 158.059 131.419 158.059 135.267H167.357C171.92 135.267 173.794 137.413 173.794 140.41C173.794 143.509 171.239 145.825 166.846 145.825C163.883 145.825 159.83 145.11 159.83 141.057H157.514C157.548 146.438 162.316 147.971 166.88 147.971C172.806 147.971 176.144 144.701 176.144 140.41C176.144 136.221 173.453 133.088 167.357 133.088H160.307V126.106H174.815V123.926ZM182.88 133.224C182.88 123.279 197.049 123.347 197.049 133.224V138.469C197.049 148.414 182.88 148.414 182.88 138.469V133.224ZM180.565 138.435C180.565 151.377 199.399 151.343 199.399 138.435V133.258C199.399 120.35 180.565 120.316 180.565 133.258V138.435ZM217.232 147.767V137.481H230.651V135.233H217.232V126.174H231.161V123.926H214.848V147.767H217.232ZM253.012 123.926V138.469C253.012 143.441 249.607 145.791 245.996 145.791C241.944 145.791 238.844 142.998 238.844 138.469V123.926H236.46V138.469C236.46 144.906 240.82 148.005 245.996 148.005C251.173 148.005 255.396 144.906 255.396 138.469V123.926H253.012ZM267.93 147.767H270.314V126.174H278.726V123.926C271.983 123.926 266.261 123.926 259.517 123.926V126.174H267.93V147.767Z" fill="white"/>
<path d="M155.277 171.935H162.208V170.862H155.277V171.935ZM155.277 168.41H162.208V167.337H155.277V168.41ZM182.39 165.089C181.623 163.642 180.108 163.063 178.592 162.943V161.292H177.485V162.943C175.561 163.08 173.313 163.982 173.364 166.213C173.415 168.58 175.646 169.023 177.894 169.397C179.75 169.738 181.64 170.13 181.623 171.747C181.623 173.587 179.478 173.995 177.996 173.995C176.532 173.995 174.692 173.501 174.011 172.122L172.989 172.65C173.807 174.319 175.697 175.034 177.485 175.119V176.771H178.575V175.102C180.567 175 182.832 174.029 182.849 171.764C182.849 169.193 180.397 168.682 178.047 168.274C176.191 167.95 174.556 167.592 174.539 166.179C174.505 164.459 176.6 163.982 178.013 163.982C179.273 163.999 180.789 164.476 181.402 165.617L182.39 165.089ZM185.851 166.315C185.868 164.391 187.826 163.948 189.342 163.948C190.909 163.965 192.833 164.561 192.833 166.468C192.833 168.325 190.687 168.835 189.308 168.835C187.06 168.835 184.625 169.534 184.625 172.207C184.625 173.144 184.625 174.08 184.625 175H193.872V173.893H185.732V172.19C185.732 170.334 187.775 169.891 189.325 169.891C191.539 169.891 193.94 169.04 193.94 166.451C193.94 163.829 191.539 162.926 189.342 162.926C187.162 162.926 184.744 163.71 184.676 166.315H185.851ZM204.683 163.08H196.305C196.305 165.038 196.305 166.826 196.305 168.75H200.954C203.236 168.75 204.172 169.823 204.172 171.322C204.172 172.871 202.895 174.029 200.698 174.029C199.217 174.029 197.19 173.672 197.19 171.645H196.032C196.049 174.336 198.433 175.102 200.715 175.102C203.678 175.102 205.347 173.467 205.347 171.322C205.347 169.227 204.002 167.66 200.954 167.66H197.429V164.17H204.683V163.08ZM211.889 169.397C214.256 169.397 215.329 170.607 215.329 171.713C215.329 173.042 214.035 174.063 211.872 174.063C210.493 174.063 208.296 173.825 208.279 171.85H207.138C207.138 174.472 209.744 175.153 211.855 175.153C214.665 175.153 216.47 173.825 216.47 171.679C216.47 170.198 215.363 169.159 214.001 168.87C215.312 168.597 216.232 167.473 216.232 166.196C216.215 164.238 214.529 162.926 211.838 162.926C209.795 162.926 207.326 163.608 207.326 166.094H208.484C208.484 164.306 210.493 163.914 211.855 163.914C214.103 163.914 215.159 165.089 215.159 166.196C215.142 167.32 213.882 168.393 211.804 168.393H209.931V169.397H211.889ZM220.269 174.404C220.269 173.331 218.651 173.399 218.651 174.387C218.651 174.762 218.873 174.983 219.162 175.068L218.685 176.55H219.537C219.894 175.511 220.269 174.83 220.269 174.404ZM222.319 175H227.939V174.029H225.691V163.08L222.422 164.016V165.004L224.584 164.459V174.029H222.319V175ZM230.634 167.729C230.634 162.756 237.718 162.79 237.718 167.729V170.351C237.718 175.324 230.634 175.324 230.634 170.351V167.729ZM229.476 170.334C229.476 176.805 238.893 176.788 238.893 170.334V167.746C238.893 161.292 229.476 161.275 229.476 167.746V170.334ZM249.717 163.08H241.339C241.339 165.038 241.339 166.826 241.339 168.75H245.987C248.269 168.75 249.206 169.823 249.206 171.322C249.206 172.871 247.929 174.029 245.732 174.029C244.25 174.029 242.224 173.672 242.224 171.645H241.066C241.083 174.336 243.467 175.102 245.749 175.102C248.712 175.102 250.381 173.467 250.381 171.322C250.381 169.227 249.036 167.66 245.987 167.66H242.462V164.17H249.717V163.08ZM252.376 174.353C252.376 175.426 253.994 175.426 253.994 174.353C253.994 173.28 252.376 173.28 252.376 174.353ZM262.635 163.08L255.551 171.39L255.756 172.309H262.857V175H263.964V172.309H265.36V171.305H263.964V163.08H262.635ZM256.948 171.305L262.857 164.459V171.305H256.948Z" fill="white"/>
</svg>
