<svg width="24" height="24" viewBox="0 0 24 24" fill="none" xmlns="http://www.w3.org/2000/svg">
<path d="M5.23077 4.20001H9.29232C9.8616 4.20001 10.3231 4.66151 10.3231 5.23079V9.29233C10.3231 9.86161 9.8616 10.3231 9.29232 10.3231H5.23077C4.66149 10.3231 4.2 9.86161 4.2 9.29233V5.23079C4.2 4.66151 4.66149 4.20001 5.23077 4.20001Z" stroke="#6932D4" stroke-width="2"/>
<path d="M14.7077 4.20001H18.7692C19.3385 4.20001 19.8 4.66151 19.8 5.23079V9.29233C19.8 9.86161 19.3385 10.3231 18.7692 10.3231H14.7077C14.1384 10.3231 13.6769 9.86161 13.6769 9.29233V5.23079C13.6769 4.66151 14.1384 4.20001 14.7077 4.20001Z" stroke="#6932D4" stroke-width="2"/>
<path d="M5.23079 13.6772H9.29233C9.86161 13.6772 10.3231 14.1387 10.3231 14.708V18.7695C10.3231 19.3388 9.86161 19.8003 9.29233 19.8003H5.23079C4.66151 19.8003 4.20001 19.3388 4.20001 18.7695V14.708C4.20001 14.1387 4.66151 13.6772 5.23079 13.6772Z" stroke="#6932D4" stroke-width="2"/>
<path d="M19.8 16.7387C19.8 18.4296 18.4293 19.8003 16.7385 19.8003C15.0476 19.8003 13.6769 18.4296 13.6769 16.7387C13.6769 15.0479 15.0476 13.6772 16.7385 13.6772C18.4293 13.6772 19.8 15.0479 19.8 16.7387Z" stroke="#6932D4" stroke-width="2"/>
</svg>
