<svg width="24" height="24" viewBox="0 0 24 24" fill="none" xmlns="http://www.w3.org/2000/svg">
<path d="M8.39723 13.3323L8.39723 13.3323L9.44535 11.5854C9.44536 11.5854 9.44538 11.5854 9.44539 11.5854C9.45622 11.5673 9.46691 11.5495 9.47746 11.5319C9.69744 11.165 9.85891 10.8957 10.0596 10.6511L10.0597 10.6511C10.237 10.4351 10.4351 10.237 10.6511 10.0597L10.6511 10.0596C10.8957 9.85891 11.165 9.69744 11.5319 9.47746C11.5495 9.46691 11.5673 9.45622 11.5854 9.44539C11.5854 9.44538 11.5854 9.44536 11.5854 9.44535L13.3323 8.39723L13.3323 8.39721L13.3645 8.37786C13.6668 8.19648 13.9409 8.03201 14.1601 7.92161C14.2748 7.86385 14.416 7.79921 14.5678 7.75543C14.7094 7.71458 14.9637 7.66056 15.2553 7.73659C15.7491 7.86535 16.1346 8.25097 16.2634 8.74459L16.2634 8.74472C16.3395 9.03629 16.2854 9.29058 16.2446 9.43219C16.2008 9.58398 16.1362 9.72518 16.0784 9.83987C15.9679 10.0593 15.8033 10.3336 15.6217 10.6362L15.6028 10.6677L15.6027 10.6677L14.5547 12.4146C14.5546 12.4146 14.5546 12.4146 14.5546 12.4146C14.5438 12.4327 14.5331 12.4506 14.5225 12.4682C14.3025 12.8351 14.1411 13.1043 13.9404 13.3489L13.9403 13.3489C13.763 13.5649 13.5649 13.763 13.3489 13.9403L13.3489 13.9404C13.1043 14.1411 12.8351 14.3025 12.4682 14.5225C12.4506 14.5331 12.4327 14.5438 12.4146 14.5546L8.39723 13.3323ZM8.39723 13.3323L8.37789 13.3645C8.1965 13.6668 8.03202 13.9409 7.92161 14.1601C7.86386 14.2748 7.79921 14.416 7.75543 14.5678C7.71458 14.7094 7.66056 14.9637 7.73659 15.2553C7.86535 15.7491 8.25097 16.1346 8.74459 16.2634L8.74472 16.2634C9.03629 16.3395 9.29058 16.2854 9.43219 16.2446C9.58398 16.2008 9.72518 16.1362 9.83987 16.0784C10.0593 15.9679 10.3336 15.8033 10.6362 15.6217L10.6677 15.6028L10.6677 15.6027L12.4146 14.5547L8.39723 13.3323ZM19.8 12C19.8 16.3078 16.3078 19.8 12 19.8C7.69218 19.8 4.20001 16.3078 4.20001 12C4.20001 7.69219 7.69219 4.20001 12 4.20001C16.3078 4.20001 19.8 7.69218 19.8 12Z" stroke="#6932D4" stroke-width="2"/>
</svg>
