<svg width="39" height="40" viewBox="0 0 39 40" fill="none" xmlns="http://www.w3.org/2000/svg">
<path d="M38.4163 24.2201C35.8116 34.6678 25.2299 41.026 14.781 38.4207C4.33648 35.816 -2.02183 25.2336 0.584112 14.7866C3.18763 4.33777 13.7693 -2.02114 24.2152 0.583589C34.6634 3.18836 41.0211 13.7719 38.4163 24.2201Z" fill="#CFCFCF"/>
<path d="M20.1396 26.476V33.8851L28.8504 21.075L20.1396 26.476Z" fill="#3C3C3B"/>
<path d="M19.9175 4.67847L28.8504 19.3962L19.9175 24.6621L10.9164 19.3962" fill="#343434"/>
<path d="M20.1396 4.67847V15.4605L10.9164 19.5549L20.1396 4.67847ZM10.9164 21.2609L20.1396 26.5836V33.8854" fill="#8C8C8C"/>
<path d="M20.1396 15.4391V24.6623L28.8504 19.4492" fill="#141414"/>
<path d="M10.9164 19.4492L20.1396 15.4391V24.6623" fill="#393939"/>
</svg>
