<svg width="21" height="22" viewBox="0 0 21 22" fill="none" xmlns="http://www.w3.org/2000/svg">
<path d="M20.6857 13.0416C19.2831 18.6673 13.5853 22.0909 7.95902 20.6881C2.33503 19.2855 -1.08868 13.5873 0.314522 7.96202C1.71642 2.33572 7.41426 -1.0883 13.0389 0.31424C18.6649 1.71681 22.0883 7.41563 20.6857 13.0416Z" fill="#1BA27A"/>
<path fill-rule="evenodd" clip-rule="evenodd" d="M11.7922 9.73424L11.7675 8.23959H15.3815V6H5.56V8.23959H9.174V9.73304C6.21 9.83261 4 10.3796 4 11.0274C4 11.6751 6.21 12.2269 9.1779 12.3217V17H11.7675V12.3217H11.8221C14.79 12.2197 17 11.6739 17 11.0274C17 10.3808 14.7471 9.83621 11.7922 9.73424ZM9.1779 11.9726C6.5896 11.8731 4.6474 11.4256 4.6474 10.9278C4.6474 10.43 6.5896 10.0317 9.1779 9.88179V11.5252C9.3404 11.5252 9.8279 11.5744 10.5273 11.5744C11.3359 11.5744 11.7675 11.5252 11.8273 11.5252L11.8 9.88419C14.3753 9.98495 16.3045 10.4312 16.3045 10.9278C16.3045 11.4244 14.3623 11.8239 11.7727 11.9726C10.9085 12.0205 10.0421 12.0205 9.1779 11.9726Z" fill="white"/>
</svg>
