<svg width="32" height="32" viewBox="0 0 32 32" fill="none" xmlns="http://www.w3.org/2000/svg">
<path d="M18.6982 18.6981C18.3486 19.0732 17.9271 19.3741 17.4587 19.5828C16.9904 19.7915 16.4848 19.9037 15.9721 19.9127C15.4594 19.9218 14.9502 19.8275 14.4748 19.6354C13.9993 19.4434 13.5675 19.1576 13.2049 18.795C12.8423 18.4324 12.5565 18.0006 12.3645 17.5251C12.1724 17.0497 12.0781 16.5405 12.0872 16.0278C12.0962 15.5151 12.2084 15.0095 12.4171 14.5412C12.6258 14.0728 12.9267 13.6513 13.3018 13.3017M23.56 23.5599C21.3844 25.2183 18.7352 26.137 16 26.1817C7.09091 26.1817 2 15.9999 2 15.9999C3.58313 13.0496 5.7789 10.472 8.44 8.4399L23.56 23.5599ZM13.3273 6.12354C14.2033 5.91848 15.1003 5.81597 16 5.81809C24.9091 5.81809 30 15.9999 30 15.9999C29.2274 17.4452 28.3061 18.8059 27.2509 20.0599L13.3273 6.12354Z" stroke="#6932D4" stroke-width="3" stroke-linecap="round" stroke-linejoin="round"/>
<path d="M2 2L30 30" stroke="#6932D4" stroke-width="3" stroke-linecap="round" stroke-linejoin="round"/>
</svg>
