<svg width="39" height="40" viewBox="0 0 39 40" fill="none" xmlns="http://www.w3.org/2000/svg">
<path d="M38.4163 24.2201C35.8116 34.6678 25.2299 41.026 14.781 38.4207C4.33648 35.816 -2.02183 25.2336 0.584112 14.7866C3.18763 4.33777 13.7693 -2.02114 24.2152 0.583589C34.6634 3.18836 41.0211 13.7719 38.4163 24.2201Z" fill="#6932D4"/>
<path d="M17.3649 31.5357H11.6961C11.6961 24.3698 17.8361 18.5406 25.384 18.5406V23.9225C20.9622 23.9225 17.3649 27.3377 17.3649 31.5357Z" fill="white"/>
<path d="M17.3649 20.7924H11.6961C11.6961 13.6265 17.8361 7.79723 25.384 7.79723V13.1791C20.9622 13.1791 17.3649 16.5943 17.3649 20.7924Z" fill="white"/>
</svg>
