<svg width="21" height="26" viewBox="0 0 21 26" fill="none" xmlns="http://www.w3.org/2000/svg">
<path d="M16.4308 1.13204C14.6053 0.381309 12.5053 0 10.1884 0C7.85467 0 5.7535 0.381309 3.94478 1.13316C3.64514 1.25773 3.51327 1.57947 3.6511 1.8514C3.79016 2.12221 4.14373 2.24139 4.44578 2.11683C6.09747 1.43109 8.02968 1.08335 10.1884 1.08335C12.3327 1.08335 14.2649 1.43109 15.9334 2.11789C16.0137 2.15146 16.0988 2.16664 16.1815 2.16664C16.4092 2.16664 16.6274 2.04858 16.7281 1.84921C16.8647 1.57729 16.7317 1.25554 16.4308 1.13204Z" fill="#C4C4C4"/>
<path d="M19.0065 5.57784C16.5769 3.3462 13.5264 2.16647 10.1859 2.16647C6.8585 2.16647 3.81038 3.3462 1.37238 5.57672C1.13983 5.79015 1.14225 6.13353 1.37716 6.34371C1.61331 6.55389 1.99205 6.55064 2.2246 6.33939C4.4337 4.31798 7.18572 3.24982 10.1859 3.24982C13.198 3.24982 15.9536 4.31798 18.1519 6.33833C18.2694 6.44557 18.424 6.49976 18.5786 6.49976C18.7296 6.49976 18.8818 6.44776 18.9993 6.34376C19.2355 6.13358 19.2391 5.79127 19.0065 5.57784Z" fill="#C4C4C4"/>
<path d="M10.1858 4.33393C9.33118 4.33393 8.48255 4.42925 7.6627 4.61774C7.34148 4.69142 7.14731 4.98605 7.22877 5.27641C7.3103 5.56672 7.6387 5.74009 7.95756 5.66747C8.68033 5.50172 9.43068 5.41723 10.1858 5.41723C15.1433 5.41723 19.1755 9.06147 19.1755 13.5421C19.1755 13.8411 19.444 14.0837 19.7748 14.0837C20.1056 14.0837 20.3741 13.8411 20.3741 13.5421C20.3741 8.4646 15.8038 4.33393 10.1858 4.33393Z" fill="#C4C4C4"/>
<path d="M5.89009 5.77249C5.72468 5.51575 5.35909 5.428 5.07024 5.57856C4.3055 5.98262 3.59475 6.48205 2.96064 7.06272C1.09439 8.76787 0.0432143 11.0656 6.38617e-05 13.5344C-0.0047119 13.8334 0.258966 14.0793 0.590966 14.0836C0.593382 14.0836 0.596978 14.0836 0.600573 14.0836C0.926618 14.0836 1.19389 13.8475 1.19867 13.5507C1.23704 11.3624 2.16478 9.32899 3.81286 7.8232C4.37382 7.30971 5.00068 6.8699 5.67552 6.51348C5.96078 6.36291 6.05668 6.03142 5.89009 5.77249Z" fill="#C4C4C4"/>
<path d="M16.0593 8.91948C14.5754 7.38226 12.4347 6.50046 10.1861 6.50046C8.09568 6.50046 6.13593 7.24144 4.6664 8.58585C3.20171 9.92264 2.39623 11.7307 2.39623 13.7034C2.39983 14.8691 1.99709 16.2666 1.2755 17.6088L0.93867 18.1505C0.776856 18.4115 0.87872 18.7409 1.16763 18.8882C1.26112 18.9359 1.3618 18.9586 1.46131 18.9586C1.67105 18.9586 1.87483 18.859 1.98389 18.6824L2.33746 18.1126C3.16569 16.5721 3.59961 15.0468 3.59484 13.6754C3.59484 12.0168 4.27687 10.4807 5.51744 9.3475C6.76161 8.21003 8.41813 7.58386 10.1861 7.58386C12.0883 7.58386 13.9006 8.33027 15.1555 9.63238C15.3725 9.85769 15.7525 9.88044 16.0018 9.68438C16.2511 9.48715 16.2763 9.14484 16.0593 8.91948Z" fill="#C4C4C4"/>
<path d="M19.0917 19.787L18.4156 17.7883C18.0357 16.2208 18.0033 14.7247 17.983 13.8299L17.9769 13.5428C17.9769 12.7401 17.8271 11.9514 17.5322 11.1986C17.4219 10.9169 17.0828 10.7696 16.7675 10.8693C16.4558 10.9689 16.2928 11.2777 16.4031 11.5604C16.6524 12.1964 16.7783 12.8637 16.7783 13.557L16.7855 13.8516C16.8071 14.7854 16.8406 16.3487 17.2577 18.0614L17.9433 20.1023C18.0213 20.3363 18.2598 20.4858 18.5175 20.4858C18.575 20.4858 18.6338 20.4783 18.6925 20.4631C19.009 20.3753 19.1876 20.0741 19.0917 19.787Z" fill="#C4C4C4"/>
<path d="M17.343 22.2884L16.7857 20.6754C15.7968 17.8848 15.6122 14.7475 15.5799 13.5418C15.5799 10.8541 13.1599 8.66689 10.1861 8.66689C7.21229 8.66689 4.79345 10.8877 4.79345 13.636C4.79587 14.2058 4.67956 17.2164 2.14807 20.5162C1.95867 20.7621 2.027 21.1001 2.29792 21.2701C2.56879 21.4402 2.944 21.3796 3.13216 21.1347C5.8003 17.6583 5.99565 14.5135 5.99206 13.6187C5.99206 11.4856 7.87387 9.75125 10.186 9.75125C12.4993 9.75125 14.3812 11.452 14.3812 13.5559C14.4244 15.1288 14.6461 18.1881 15.6434 21.0036L16.1971 22.6102C16.2774 22.842 16.5136 22.9904 16.77 22.9904C16.8288 22.9904 16.8887 22.9829 16.9487 22.9666C17.2651 22.8767 17.4413 22.5734 17.343 22.2884Z" fill="#C4C4C4"/>
<path d="M13.1825 13.5423C13.1825 12.0495 11.8377 10.834 10.186 10.834C8.5343 10.834 7.18945 12.0495 7.18945 13.5629C7.19664 13.7416 7.32969 17.9969 3.52285 22.4742C3.32148 22.7114 3.37064 23.0516 3.63314 23.2336C3.89682 23.4167 4.27202 23.3701 4.47339 23.1339C8.54032 18.35 8.39407 13.7167 8.38687 13.5423C8.38687 12.6464 9.19353 11.9173 10.1848 11.9173C11.1761 11.9173 11.9827 12.6464 11.9839 13.5542C12.0007 14.1609 12.0043 19.6338 7.32486 25.1283C7.12349 25.3656 7.17141 25.7058 7.43391 25.8878C7.5442 25.9636 7.67242 26.0004 7.79951 26.0004C7.9793 26.0004 8.15668 25.9279 8.27417 25.7892C13.2137 19.9912 13.1993 14.1738 13.1825 13.5423Z" fill="#C4C4C4"/>
<path d="M10.7829 13.5178C10.7673 13.2199 10.5084 12.9826 10.1584 13.001C9.82876 13.014 9.57227 13.2665 9.58548 13.5655C9.58548 13.573 9.61902 14.366 9.39607 15.6194C9.34455 15.9152 9.5675 16.1936 9.89348 16.2412C9.92585 16.2455 9.95821 16.2477 9.98939 16.2477C10.2782 16.2477 10.5335 16.0582 10.5803 15.7927C10.8249 14.418 10.7853 13.5535 10.7829 13.5178Z" fill="#C4C4C4"/>
<path d="M9.60721 17.3713C9.28836 17.2858 8.95636 17.4504 8.86169 17.7364C8.11257 20.0233 6.86598 22.1617 5.15913 24.0943C4.95298 24.3283 4.9949 24.6685 5.2538 24.8559C5.36409 24.9361 5.4959 24.9739 5.62777 24.9739C5.80397 24.9739 5.97775 24.9046 6.09641 24.7703C7.90036 22.7293 9.21762 20.4663 10.0123 18.0451C10.1059 17.7581 9.92488 17.4558 9.60721 17.3713Z" fill="#C4C4C4"/>
<path d="M15.4155 23.8614L14.6927 21.7868C14.405 21.009 14.1365 20.1868 14.1353 20.1835C14.0634 19.9636 13.8477 19.8087 13.5948 19.7957C13.3359 19.7795 13.1069 19.9138 13.0087 20.125C12.9955 20.1532 11.6602 22.9904 10.1296 25.1679C9.95218 25.4203 10.0349 25.7551 10.3141 25.9154C10.4136 25.9728 10.5251 25.9999 10.6353 25.9999C10.8343 25.9999 11.0273 25.9111 11.1412 25.7486C12.0677 24.4301 12.9092 22.9146 13.4581 21.8606C13.4893 21.9472 13.5216 22.035 13.554 22.1216L14.272 24.1864C14.3715 24.4713 14.7047 24.6316 15.0235 24.5406C15.3387 24.4507 15.5149 24.1474 15.4155 23.8614Z" fill="#C4C4C4"/>
</svg>
