<svg width="22" height="22" viewBox="0 0 22 22" fill="none" xmlns="http://www.w3.org/2000/svg">
<path d="M3.80771 1.69232H18.1923C19.8279 1.69232 21.1539 3.4082 21.1539 5.52491V16.4751C21.1539 18.5918 19.8279 20.3077 18.1923 20.3077H3.80771C2.17207 20.3077 0.846161 18.5918 0.846161 16.4751V5.52491C0.846161 3.4082 2.17207 1.69232 3.80771 1.69232Z" fill="#6932D4"/>
<path d="M20.029 7.33337H15.9948C14.0453 7.33445 12.4657 8.97688 12.4667 11.002C12.4677 13.0255 14.0467 14.6656 15.9948 14.6667H20.029C20.3076 14.6667 20.5333 14.4322 20.5333 14.1429V7.8572C20.5333 7.56786 20.3076 7.33337 20.029 7.33337Z" fill="white"/>
<path d="M15.8837 12.7901C16.8281 12.7901 17.5936 12.0297 17.5936 11.0916C17.5936 10.1535 16.8281 9.39307 15.8837 9.39307C14.9393 9.39307 14.1737 10.1535 14.1737 11.0916C14.1737 12.0297 14.9393 12.7901 15.8837 12.7901Z" fill="#6932D4"/>
</svg>
