<svg width="141" height="141" viewBox="0 0 141 141" fill="none" xmlns="http://www.w3.org/2000/svg">
<path fill-rule="evenodd" clip-rule="evenodd" d="M70.257 140.515C52.2595 140.515 34.2564 133.665 20.5555 119.959C-6.85184 92.5512 -6.85184 47.9629 20.5555 20.5555C47.9629 -6.85184 92.5512 -6.85184 119.959 20.5555C147.366 47.9629 147.366 92.5512 119.959 119.959C106.258 133.659 88.2546 140.515 70.257 140.515V140.515ZM22.4572 118.057C48.8123 144.412 91.6962 144.412 118.051 118.057C144.406 91.7017 144.406 48.8178 118.051 22.4627C91.6962 -3.89245 48.8123 -3.89245 22.4572 22.4627C-3.89791 48.8178 -3.89791 91.7017 22.4572 118.057Z" fill="white"/>
<path d="M61.2916 113.389H39.666C39.666 84.5954 63.0891 61.1723 91.883 61.1723V82.7979C75.0144 82.7979 61.2916 96.5207 61.2916 113.389Z" fill="white"/>
<path d="M61.2916 70.2205H39.666C39.666 41.4266 63.0891 18.0035 91.883 18.0035V39.629C75.0144 39.629 61.2916 53.3519 61.2916 70.2205Z" fill="white"/>
</svg>
