<svg width="35" height="35" viewBox="0 0 35 35" fill="none" xmlns="http://www.w3.org/2000/svg">
<path fill-rule="evenodd" clip-rule="evenodd" d="M17.1775 34.355C12.7772 34.355 8.37552 32.6801 5.02572 29.329C-1.67524 22.6281 -1.67524 11.7266 5.02572 5.02567C11.7267 -1.67522 22.6283 -1.67522 29.3292 5.02567C36.0302 11.7266 36.0302 22.6281 29.3292 29.329C25.9794 32.6787 21.5778 34.355 17.1775 34.355ZM5.49067 28.864C11.9344 35.3076 22.4193 35.3076 28.8629 28.864C35.3066 22.4204 35.3066 11.9356 28.8629 5.49196C22.4193 -0.951671 11.9344 -0.951671 5.49067 5.49196C-0.95302 11.9356 -0.95302 22.4204 5.49067 28.864Z" fill="#6932D4"/>
<path d="M16.5208 28.7284H10.9767C10.9767 21.7202 16.9816 16.0191 24.3634 16.0191V21.2826C20.0389 21.2826 16.5208 24.6227 16.5208 28.7284Z" fill="#6932D4"/>
<path d="M16.5208 18.2215H10.9767C10.9767 11.2133 16.9816 5.51224 24.3634 5.51224V10.7758C20.0389 10.7758 16.5208 14.1158 16.5208 18.2215V18.2215Z" fill="#6932D4"/>
</svg>
