<svg width="24" height="24" viewBox="0 0 24 24" fill="none" xmlns="http://www.w3.org/2000/svg">
<path d="M18 0H6C4.44919 0 3.1875 1.26169 3.1875 2.8125V21.1875C3.1875 22.7383 4.44919 24 6 24H18C19.5508 24 20.8125 22.7383 20.8125 21.1875V2.8125C20.8125 1.26169 19.5508 0 18 0ZM18.9375 21.1875C18.9375 21.7044 18.5169 22.125 18 22.125H6C5.48306 22.125 5.0625 21.7044 5.0625 21.1875V2.8125C5.0625 2.29556 5.48306 1.875 6 1.875H18C18.5169 1.875 18.9375 2.29556 18.9375 2.8125V21.1875Z" fill="#031626"/>
<path d="M13.875 3.75562H10.125V5.63062H13.875V3.75562Z" fill="#031626"/>
<path d="M7.78125 5.63074C8.29902 5.63074 8.71875 5.211 8.71875 4.69324C8.71875 4.17547 8.29902 3.75574 7.78125 3.75574C7.26348 3.75574 6.84375 4.17547 6.84375 4.69324C6.84375 5.211 7.26348 5.63074 7.78125 5.63074Z" fill="#031626"/>
<path d="M12.9375 18.3806H11.0625V20.2556H12.9375V18.3806Z" fill="#031626"/>
</svg>
