<svg width="24" height="24" viewBox="0 0 24 24" fill="none" xmlns="http://www.w3.org/2000/svg">
<path d="M10.2656 17.2031C10.7834 17.2031 11.2031 16.7834 11.2031 16.2656C11.2031 15.7479 10.7834 15.3281 10.2656 15.3281C9.74786 15.3281 9.32812 15.7479 9.32812 16.2656C9.32812 16.7834 9.74786 17.2031 10.2656 17.2031Z" fill="#031626"/>
<path d="M6.75 17.2031C7.26777 17.2031 7.6875 16.7834 7.6875 16.2656C7.6875 15.7479 7.26777 15.3281 6.75 15.3281C6.23223 15.3281 5.8125 15.7479 5.8125 16.2656C5.8125 16.7834 6.23223 17.2031 6.75 17.2031Z" fill="#031626"/>
<path d="M13.7812 17.2031C14.299 17.2031 14.7188 16.7834 14.7188 16.2656C14.7188 15.7479 14.299 15.3281 13.7812 15.3281C13.2635 15.3281 12.8438 15.7479 12.8438 16.2656C12.8438 16.7834 13.2635 17.2031 13.7812 17.2031Z" fill="#031626"/>
<path d="M18.75 8.8125H17.0608V4.95797C17.0608 2.22412 14.7898 0 11.9983 0C9.20677 0 6.93577 2.22412 6.93577 4.95797V8.8125H5.25C3.69919 8.8125 2.4375 10.0742 2.4375 11.625V21.1875C2.4375 22.7383 3.69919 24 5.25 24H18.75C20.3008 24 21.5625 22.7383 21.5625 21.1875V11.625C21.5625 10.0742 20.3008 8.8125 18.75 8.8125ZM8.81077 4.95797C8.81077 3.258 10.2407 1.875 11.9983 1.875C13.7558 1.875 15.1858 3.258 15.1858 4.95797V8.8125H8.81077V4.95797ZM19.6875 21.1875C19.6875 21.7044 19.2669 22.125 18.75 22.125H5.25C4.73306 22.125 4.3125 21.7044 4.3125 21.1875V11.625C4.3125 11.1081 4.73306 10.6875 5.25 10.6875H18.75C19.2669 10.6875 19.6875 11.1081 19.6875 11.625V21.1875Z" fill="#031626"/>
<path d="M17.3438 17.2031C17.8615 17.2031 18.2812 16.7834 18.2812 16.2656C18.2812 15.7479 17.8615 15.3281 17.3438 15.3281C16.826 15.3281 16.4062 15.7479 16.4062 16.2656C16.4062 16.7834 16.826 17.2031 17.3438 17.2031Z" fill="#031626"/>
</svg>
