<svg width="222" height="142" viewBox="0 0 222 142" fill="none" xmlns="http://www.w3.org/2000/svg">
<path d="M31.1471 91.687C30.8689 91.5195 30.6308 91.2931 30.4496 91.0237C30.2683 90.7543 30.1484 90.4484 30.0981 90.1276C30.0479 89.8068 30.0686 89.4789 30.1588 89.167C30.249 88.855 30.4065 88.5667 30.6202 88.3222L26.7087 81.4665L30.8018 81.7309L33.8887 88.2007C34.2756 88.5869 34.5074 89.1017 34.5402 89.6474C34.5729 90.1931 34.4044 90.7318 34.0664 91.1616C33.7285 91.5913 33.2447 91.8821 32.7066 91.979C32.1686 92.0758 31.6137 91.9719 31.1471 91.687Z" fill="#FFB6B6"/>
<path d="M1.03695 138.424H3.74508L5.03335 127.979L1.03662 127.979L1.03695 138.424Z" fill="#FFB6B6"/>
<path d="M0.346191 137.539L5.67907 137.539H5.67929C6.58061 137.539 7.445 137.897 8.08233 138.535C8.71967 139.172 9.07776 140.036 9.07782 140.938V141.048L0.346341 141.049L0.346191 137.539Z" fill="#2F2E41"/>
<path d="M19.5907 138.424H22.2985L23.5868 127.979L19.5901 127.979L19.5907 138.424Z" fill="#FFB6B6"/>
<path d="M18.9001 137.539L24.233 137.539H24.2333C25.1346 137.539 25.999 137.897 26.6363 138.535C27.2736 139.172 27.6317 140.036 27.6318 140.938V141.048L18.9003 141.049L18.9001 137.539Z" fill="#2F2E41"/>
<path d="M26.5537 81.7615C26.5537 81.7615 27.2986 92.3683 25.8316 97.7102C24.3646 103.052 24.1027 135.357 24.1027 135.357H19.1856L14.9237 91.3833L5.09863 135.512L0.415039 135.19L2.98359 83.1902L26.5537 81.7615Z" fill="#2F2E41"/>
<path d="M5.01568 46.0063L8.77471 43.2632L15.0735 44.6347L16.7786 48.6861L19.7166 50.1428C20.6826 50.6218 21.5179 51.3282 22.1507 52.2012C22.7835 53.0743 23.1948 54.0879 23.3493 55.1551L27.5467 84.1398L2.98375 83.1902L0.0100967 49.0551C-0.020966 48.6986 0.0198201 48.3394 0.130035 47.9988C0.240249 47.6583 0.417653 47.3434 0.651752 47.0726C0.885852 46.8018 1.17189 46.5808 1.49293 46.4226C1.81397 46.2643 2.16349 46.1721 2.52081 46.1513L5.01568 46.0063Z" fill="#6932D4"/>
<path d="M21.2708 52.4066L23.5394 55.4648L33.4206 85.6025L28.7889 87.4569L21.3723 73.4135L21.2708 52.4066Z" fill="#5F2DBF"/>
<path d="M13.0472 41.8308C16.0771 41.8308 18.5334 39.3746 18.5334 36.3446C18.5334 33.3147 16.0771 30.8585 13.0472 30.8585C10.0173 30.8585 7.56104 33.3147 7.56104 36.3446C7.56104 39.3746 10.0173 41.8308 13.0472 41.8308Z" fill="#FFB9B9"/>
<path d="M10.1398 40.3111C9.75819 39.5492 9.3656 38.7199 9.51147 37.8803C9.65734 37.0408 10.6208 36.3093 11.3643 36.7255C11.6728 35.6106 13.0385 35.1226 14.1882 35.2513C15.3378 35.3801 16.3963 35.9346 17.5283 36.1726C18.6604 36.4107 20.0352 36.2218 20.647 35.2401L19.1831 35.2148L20.7075 33.4466L18.9404 33.3144C19.5525 32.6538 19.3899 31.5314 18.7974 30.8533C18.2048 30.1751 17.3056 29.8542 16.4282 29.6513C14.6766 29.2476 12.861 29.2058 11.0927 29.5287C10.259 29.6572 9.45569 29.9368 8.72228 30.3536C8.03164 30.7748 7.46098 31.3666 7.06514 32.0721C6.63808 32.8681 6.40723 33.7545 6.39182 34.6577C6.36574 35.8674 6.64371 37.0644 7.20027 38.1388C7.75682 39.2133 8.57415 40.1308 9.57734 40.8074" fill="#2F2E41"/>
<path d="M214.406 141.189H44.1518C42.3985 141.187 40.7176 140.49 39.4778 139.25C38.238 138.01 37.5406 136.33 37.5386 134.576V6.7643C37.5406 5.011 38.238 3.33008 39.4778 2.09031C40.7176 0.850554 42.3985 0.153198 44.1518 0.15123H214.406C216.159 0.153229 217.84 0.850601 219.08 2.09036C220.319 3.33012 221.017 5.01102 221.019 6.7643V134.576C221.017 136.329 220.319 138.01 219.08 139.25C217.84 140.49 216.159 141.187 214.406 141.189Z" fill="#E4E4E4"/>
<path d="M171.556 58.8353H145.275C143.976 58.8353 142.73 58.3194 141.812 57.401C140.893 56.4826 140.377 55.237 140.377 53.9382C140.377 52.6393 140.893 51.3937 141.812 50.4753C142.73 49.557 143.976 49.041 145.275 49.041H171.556C172.855 49.041 174.1 49.557 175.019 50.4753C175.937 51.3937 176.453 52.6393 176.453 53.9382C176.453 55.237 175.937 56.4826 175.019 57.401C174.1 58.3194 172.855 58.8353 171.556 58.8353Z" fill="white"/>
<path d="M148.539 72.221H142.336C141.86 72.221 141.403 72.0318 141.067 71.6951C140.73 71.3583 140.541 70.9016 140.541 70.4254C140.541 69.9491 140.73 69.4924 141.067 69.1557C141.403 68.8189 141.86 68.6297 142.336 68.6297H148.539C149.016 68.6297 149.472 68.8189 149.809 69.1557C150.146 69.4924 150.335 69.9491 150.335 70.4254C150.335 70.9016 150.146 71.3583 149.809 71.6951C149.472 72.0318 149.016 72.221 148.539 72.221Z" fill="white"/>
<path d="M174.331 72.221H168.128C167.652 72.221 167.195 72.0318 166.858 71.6951C166.522 71.3583 166.333 70.9016 166.333 70.4254C166.333 69.9491 166.522 69.4924 166.858 69.1557C167.195 68.8189 167.652 68.6297 168.128 68.6297H174.331C174.807 68.6297 175.264 68.8189 175.601 69.1557C175.938 69.4924 176.127 69.9491 176.127 70.4254C176.127 70.9016 175.938 71.3583 175.601 71.6951C175.264 72.0318 174.807 72.221 174.331 72.221Z" fill="white"/>
<path d="M161.272 72.221H155.069C154.593 72.221 154.136 72.0318 153.799 71.6951C153.463 71.3583 153.273 70.9016 153.273 70.4254C153.273 69.9491 153.463 69.4924 153.799 69.1557C154.136 68.8189 154.593 68.6297 155.069 68.6297H161.272C161.748 68.6297 162.205 68.8189 162.542 69.1557C162.879 69.4924 163.068 69.9491 163.068 70.4254C163.068 70.9016 162.879 71.3583 162.542 71.6951C162.205 72.0318 161.748 72.221 161.272 72.221Z" fill="white"/>
<path d="M148.539 79.077H142.336C141.86 79.077 141.403 78.8878 141.067 78.551C140.73 78.2143 140.541 77.7576 140.541 77.2813C140.541 76.8051 140.73 76.3484 141.067 76.0116C141.403 75.6749 141.86 75.4857 142.336 75.4857H148.539C149.016 75.4857 149.472 75.6749 149.809 76.0116C150.146 76.3484 150.335 76.8051 150.335 77.2813C150.335 77.7576 150.146 78.2143 149.809 78.551C149.472 78.8878 149.016 79.077 148.539 79.077Z" fill="white"/>
<path d="M174.331 79.077H168.128C167.652 79.077 167.195 78.8878 166.858 78.551C166.522 78.2143 166.333 77.7576 166.333 77.2813C166.333 76.8051 166.522 76.3484 166.858 76.0116C167.195 75.6749 167.652 75.4857 168.128 75.4857H174.331C174.807 75.4857 175.264 75.6749 175.601 76.0116C175.938 76.3484 176.127 76.8051 176.127 77.2813C176.127 77.7576 175.938 78.2143 175.601 78.551C175.264 78.8878 174.807 79.077 174.331 79.077Z" fill="white"/>
<path d="M161.272 79.077H155.069C154.593 79.077 154.136 78.8878 153.799 78.551C153.463 78.2143 153.273 77.7576 153.273 77.2813C153.273 76.8051 153.463 76.3484 153.799 76.0116C154.136 75.6749 154.593 75.4857 155.069 75.4857H161.272C161.748 75.4857 162.205 75.6749 162.542 76.0116C162.879 76.3484 163.068 76.8051 163.068 77.2813C163.068 77.7576 162.879 78.2143 162.542 78.551C162.205 78.8878 161.748 79.077 161.272 79.077Z" fill="white"/>
<path d="M148.539 85.9329H142.336C141.86 85.9329 141.403 85.7438 141.067 85.407C140.73 85.0703 140.541 84.6135 140.541 84.1373C140.541 83.6611 140.73 83.2044 141.067 82.8676C141.403 82.5309 141.86 82.3417 142.336 82.3417H148.539C149.016 82.3417 149.472 82.5309 149.809 82.8676C150.146 83.2044 150.335 83.6611 150.335 84.1373C150.335 84.6135 150.146 85.0703 149.809 85.407C149.472 85.7438 149.016 85.9329 148.539 85.9329Z" fill="white"/>
<path d="M174.331 85.9329H168.128C167.652 85.9329 167.195 85.7438 166.858 85.407C166.522 85.0703 166.333 84.6135 166.333 84.1373C166.333 83.6611 166.522 83.2044 166.858 82.8676C167.195 82.5309 167.652 82.3417 168.128 82.3417H174.331C174.807 82.3417 175.264 82.5309 175.601 82.8676C175.938 83.2044 176.127 83.6611 176.127 84.1373C176.127 84.6135 175.938 85.0703 175.601 85.407C175.264 85.7438 174.807 85.9329 174.331 85.9329Z" fill="white"/>
<path d="M161.272 85.9329H155.069C154.593 85.9329 154.136 85.7438 153.799 85.407C153.463 85.0703 153.273 84.6135 153.273 84.1373C153.273 83.6611 153.463 83.2044 153.799 82.8676C154.136 82.5309 154.593 82.3417 155.069 82.3417H161.272C161.748 82.3417 162.205 82.5309 162.542 82.8676C162.879 83.2044 163.068 83.6611 163.068 84.1373C163.068 84.6135 162.879 85.0703 162.542 85.407C162.205 85.7438 161.748 85.9329 161.272 85.9329Z" fill="white"/>
<path d="M148.539 92.7889H142.336C141.86 92.7889 141.403 92.5997 141.067 92.263C140.73 91.9262 140.541 91.4695 140.541 90.9933C140.541 90.5171 140.73 90.0603 141.067 89.7236C141.403 89.3869 141.86 89.1977 142.336 89.1977H148.539C149.016 89.1977 149.472 89.3869 149.809 89.7236C150.146 90.0603 150.335 90.5171 150.335 90.9933C150.335 91.4695 150.146 91.9262 149.809 92.263C149.472 92.5997 149.016 92.7889 148.539 92.7889Z" fill="white"/>
<path d="M174.331 92.7889H168.128C167.652 92.7889 167.195 92.5997 166.858 92.263C166.522 91.9262 166.333 91.4695 166.333 90.9933C166.333 90.5171 166.522 90.0603 166.858 89.7236C167.195 89.3869 167.652 89.1977 168.128 89.1977H174.331C174.807 89.1977 175.264 89.3869 175.601 89.7236C175.938 90.0603 176.127 90.5171 176.127 90.9933C176.127 91.4695 175.938 91.9262 175.601 92.263C175.264 92.5997 174.807 92.7889 174.331 92.7889Z" fill="white"/>
<path d="M161.272 92.7889H155.069C154.593 92.7889 154.136 92.5997 153.799 92.263C153.463 91.9262 153.273 91.4695 153.273 90.9933C153.273 90.5171 153.463 90.0603 153.799 89.7236C154.136 89.3869 154.593 89.1977 155.069 89.1977H161.272C161.748 89.1977 162.205 89.3869 162.542 89.7236C162.879 90.0603 163.068 90.5171 163.068 90.9933C163.068 91.4695 162.879 91.9262 162.542 92.263C162.205 92.5997 161.748 92.7889 161.272 92.7889Z" fill="white"/>
<path d="M106.587 85.6065C115.783 85.6065 123.238 78.1519 123.238 68.9562C123.238 59.7605 115.783 52.3058 106.587 52.3058C97.3916 52.3058 89.937 59.7605 89.937 68.9562C89.937 78.1519 97.3916 85.6065 106.587 85.6065Z" fill="#CACACA"/>
<path d="M106.587 89.3613C105.289 89.3598 104.044 88.8434 103.126 87.9253C102.208 87.0072 101.692 85.7625 101.69 84.4641V53.4488C101.69 52.8054 101.816 52.1681 102.062 51.5735C102.308 50.9789 102.668 50.4386 103.123 49.9834C103.578 49.5283 104.118 49.1672 104.712 48.9208C105.307 48.6745 105.944 48.5477 106.587 48.5477C107.231 48.5477 107.868 48.6745 108.462 48.9208C109.057 49.1672 109.597 49.5283 110.052 49.9834C110.506 50.4386 110.867 50.9789 111.113 51.5735C111.359 52.1681 111.485 52.8054 111.484 53.4488V84.4641C111.483 85.7625 110.967 87.0072 110.049 87.9253C109.13 88.8434 107.886 89.3598 106.587 89.3613Z" fill="white"/>
<path d="M150.086 56.7327H145.515C145.342 56.7327 145.176 56.6639 145.053 56.5415C144.931 56.419 144.862 56.2529 144.862 56.0797C144.862 55.9066 144.931 55.7405 145.053 55.618C145.176 55.4956 145.342 55.4268 145.515 55.4268H150.086C150.259 55.4268 150.425 55.4956 150.547 55.618C150.67 55.7405 150.739 55.9066 150.739 56.0797C150.739 56.2529 150.67 56.419 150.547 56.5415C150.425 56.6639 150.259 56.7327 150.086 56.7327Z" fill="#E4E4E4"/>
<path d="M157.268 56.8958H152.698C152.524 56.8958 152.358 56.8271 152.236 56.7046C152.113 56.5821 152.045 56.4161 152.045 56.2429C152.045 56.0697 152.113 55.9036 152.236 55.7812C152.358 55.6587 152.524 55.5899 152.698 55.5899H157.268C157.441 55.5899 157.608 55.6587 157.73 55.7812C157.852 55.9036 157.921 56.0697 157.921 56.2429C157.921 56.4161 157.852 56.5821 157.73 56.7046C157.608 56.8271 157.441 56.8958 157.268 56.8958Z" fill="#E4E4E4"/>
<path d="M164.451 57.0593H159.88C159.707 57.0593 159.541 56.9905 159.418 56.8681C159.296 56.7456 159.227 56.5795 159.227 56.4064C159.227 56.2332 159.296 56.0671 159.418 55.9447C159.541 55.8222 159.707 55.7534 159.88 55.7534H164.451C164.624 55.7534 164.79 55.8222 164.912 55.9447C165.035 56.0671 165.104 56.2332 165.104 56.4064C165.104 56.5795 165.035 56.7456 164.912 56.8681C164.79 56.9905 164.624 57.0593 164.451 57.0593Z" fill="#E4E4E4"/>
<path d="M171.633 57.2221H167.063C166.889 57.2221 166.723 57.1533 166.601 57.0309C166.478 56.9084 166.41 56.7423 166.41 56.5692C166.41 56.396 166.478 56.2299 166.601 56.1074C166.723 55.985 166.889 55.9162 167.063 55.9162H171.633C171.806 55.9162 171.973 55.985 172.095 56.1074C172.217 56.2299 172.286 56.396 172.286 56.5692C172.286 56.7423 172.217 56.9084 172.095 57.0309C171.973 57.1533 171.806 57.2221 171.633 57.2221Z" fill="#E4E4E4"/>
<path d="M59.248 121.029C59.2476 121.837 59.4079 122.638 59.7195 123.384C60.0312 124.13 60.4879 124.806 61.0632 125.374H58.3662C57.5705 125.374 56.7826 125.218 56.0475 124.913C55.3124 124.609 54.6444 124.162 54.0818 123.6C53.5192 123.037 53.0728 122.369 52.7683 121.634C52.4639 120.899 52.3071 120.111 52.3071 119.315V21.0842C52.3071 20.2885 52.4639 19.5006 52.7683 18.7655C53.0728 18.0303 53.5192 17.3624 54.0818 16.7997C54.6444 16.2371 55.3124 15.7908 56.0475 15.4863C56.7826 15.1818 57.5705 15.0251 58.3662 15.0251H62.2908C61.3652 15.5634 60.5971 16.3351 60.0631 17.2632C59.5292 18.1913 59.2481 19.2433 59.2479 20.314L59.248 121.029Z" fill="#CACACA"/>
<path d="M58.5951 43.7289C56.5318 43.151 54.4609 42.6156 52.3823 42.1226C45.2744 40.4259 38.0684 39.1698 30.8055 38.3616C29.5744 38.0374 28.2651 38.2127 27.1627 38.8492C26.0602 39.4857 25.2538 40.532 24.919 41.7602L21.2919 55.1458C20.9589 56.3796 21.1291 57.6952 21.765 58.8037C22.401 59.9122 23.4508 60.723 24.6841 61.0583L24.733 61.0681C29.5323 61.6133 34.3771 62.3707 39.1959 63.3371C39.6269 63.422 40.0546 63.5101 40.4855 63.6015C42.0298 63.9215 43.5696 64.2632 45.1051 64.6267C45.7777 64.7834 46.4469 64.9466 47.1195 65.1131C48.9282 65.5637 50.738 66.0436 52.5489 66.5529C54.5632 67.121 56.5786 67.7271 58.5951 68.3714C58.814 68.4367 59.0327 68.5052 59.2481 68.5771V43.915C59.0327 43.8497 58.814 43.7877 58.5951 43.7289Z" fill="white"/>
<path d="M58.5951 43.7289C56.5318 43.151 54.4609 42.6156 52.3823 42.1226C45.2744 40.4259 38.0684 39.1698 30.8055 38.3616C29.5744 38.0374 28.2651 38.2127 27.1627 38.8492C26.0602 39.4857 25.2538 40.532 24.919 41.7602L21.2919 55.1458C20.9589 56.3796 21.1291 57.6952 21.765 58.8037C22.401 59.9122 23.4508 60.723 24.6841 61.0583L24.733 61.0681C29.5323 61.6133 34.3771 62.3707 39.1959 63.3371C39.6269 63.422 40.0546 63.5101 40.4855 63.6015C42.0298 63.9215 43.5696 64.2632 45.1051 64.6267C45.7777 64.7834 46.4469 64.9466 47.1195 65.1131C48.9282 65.5637 50.738 66.0436 52.5489 66.5529C54.5632 67.121 56.5786 67.7271 58.5951 68.3714C58.814 68.4367 59.0327 68.5052 59.2481 68.5771V67.8882C59.0294 67.8196 58.8106 67.751 58.5951 67.6825C56.7408 67.0916 54.8887 66.5355 53.0386 66.0142C52.3465 65.815 51.6543 65.6224 50.9621 65.4363C49.715 65.1001 48.4712 64.7779 47.2306 64.47C46.5711 64.3035 45.9127 64.1435 45.2553 63.99C45.2064 63.977 45.1541 63.9672 45.1051 63.9541C43.9852 63.6897 42.8632 63.4372 41.7391 63.1967C41.3082 63.1053 40.8773 63.0139 40.4463 62.9257C35.2488 61.8484 30.0121 61.0093 24.8309 60.4216C23.7711 60.1265 22.8708 59.4247 22.3261 58.469C21.7813 57.5133 21.6361 56.3811 21.9221 55.3188L25.5492 41.93C25.8393 40.8647 26.5402 39.958 27.4981 39.409C28.456 38.8599 29.5927 38.7134 30.6585 39.0015L30.7074 39.008C37.8782 39.8042 44.9934 41.0385 52.0134 42.7037C52.0851 42.7233 52.157 42.7397 52.2288 42.756C54.3576 43.2653 56.4797 43.8159 58.5951 44.408C58.8106 44.4667 59.0293 44.5287 59.248 44.594V43.915C59.0327 43.8497 58.814 43.7877 58.5951 43.7289Z" fill="url(#paint0_linear_1_956)"/>
<path d="M59.2482 44.2546V68.231C59.0295 68.1592 58.8141 68.0906 58.5953 68.0221C56.6659 67.4051 54.7299 66.8239 52.7874 66.2787C50.923 65.7498 49.0523 65.2525 47.1753 64.7867C46.5092 64.6235 45.8464 64.4635 45.1804 64.3068C45.1542 64.1893 45.1281 64.0717 45.1053 63.9542C44.9844 63.3927 44.8899 62.8246 44.818 62.2533C44.7853 62.0345 44.7625 61.8158 44.7396 61.5938C44.396 58.0961 44.8749 54.5665 46.1378 51.2867C47.4008 48.0069 49.4129 45.0678 52.0136 42.7038C52.1083 42.6124 52.2061 42.5242 52.3042 42.4393C54.4132 42.9421 56.5102 43.4863 58.5952 44.0717C58.8141 44.1272 59.0328 44.1893 59.2482 44.2546Z" fill="url(#paint1_linear_1_956)"/>
<path d="M37.5667 54.0718L28.4874 53.0009C28.168 52.9632 27.8443 52.9888 27.5348 53.0762C27.2252 53.1635 26.9359 53.311 26.6834 53.5102C26.4309 53.7094 26.22 53.9564 26.063 54.237C25.9059 54.5177 25.8056 54.8265 25.7679 55.1459C25.7302 55.4653 25.7557 55.789 25.8431 56.0986C25.9305 56.4081 26.078 56.6974 26.2771 56.9499C26.4763 57.2025 26.7233 57.4133 27.004 57.5704C27.2846 57.7275 27.5935 57.8277 27.9129 57.8654L36.9921 58.9363C37.6363 59.0108 38.2838 58.8268 38.7925 58.4245C39.3012 58.0223 39.6297 57.4347 39.7057 56.7907C39.7818 56.1466 39.5994 55.4987 39.1984 54.989C38.7974 54.4793 38.2106 54.1494 37.5667 54.0718ZM39.062 56.7163C39.0052 57.1888 38.7632 57.6195 38.3892 57.9138C38.0153 58.2082 37.5398 58.3423 37.0671 58.2866L27.9878 57.2158C27.5163 57.1584 27.0868 56.9165 26.7934 56.543C26.4999 56.1696 26.3664 55.695 26.4221 55.2234C26.4778 54.7517 26.7182 54.3213 27.0906 54.0265C27.463 53.7318 27.9371 53.5966 28.4089 53.6506L37.4883 54.7215C37.9609 54.7787 38.3917 55.0206 38.6865 55.3943C38.9814 55.7681 39.1164 56.2433 39.062 56.7163L39.062 56.7163Z" fill="url(#paint2_linear_1_956)"/>
<path d="M59.2482 49.87V61.2412C59.0385 61.3671 58.8203 61.4784 58.5952 61.5742C57.4234 62.0974 56.1243 62.2667 54.8575 62.0614C53.5907 61.8561 52.4116 61.2851 51.465 60.4185C51.3737 60.3369 51.2822 60.2487 51.194 60.1573C51.1059 60.0692 51.0211 59.9745 50.9395 59.8798C49.9539 58.7478 49.3843 57.3133 49.3248 55.8136C49.2653 54.3138 49.7195 52.8387 50.6123 51.6322C51.5051 50.4256 52.783 49.56 54.2346 49.1784C55.6862 48.7969 57.2246 48.9222 58.5952 49.5338C58.8188 49.6341 59.0367 49.7463 59.2482 49.87Z" fill="white"/>
<path d="M58.5952 58.1006C56.026 58.6361 53.474 59.2292 50.9394 59.8799C49.9927 60.1215 49.0492 60.3718 48.1089 60.6308C46.9858 60.941 45.8627 61.262 44.7396 61.5939C43.3064 62.0184 41.8754 62.4624 40.4464 62.926C40.0318 63.0631 39.614 63.2002 39.196 63.3373C35.2228 64.6628 31.2757 66.132 27.3939 67.735C26.1586 68.0437 25.0953 68.828 24.4355 69.917C23.7757 71.0061 23.5729 72.3117 23.8712 73.5495L27.1458 87.0265C27.4489 88.2678 28.232 89.3382 29.3232 90.0029C30.4145 90.6675 31.7248 90.8722 32.9668 90.572L33.0125 90.5557C39.3961 87.9373 45.9296 85.7003 52.5784 83.8564C54.5634 83.3047 56.569 82.7845 58.5952 82.2959C58.8141 82.2436 59.0295 82.1914 59.2482 82.1424V57.9668C59.0295 58.006 58.8141 58.0517 58.5952 58.1006Z" fill="white"/>
<path d="M58.5952 58.1006C56.026 58.6361 53.474 59.2292 50.9394 59.8799C49.9927 60.1215 49.0492 60.3718 48.1089 60.6308C46.9858 60.941 45.8627 61.262 44.7396 61.5939C43.3064 62.0184 41.8754 62.4624 40.4464 62.926C40.0318 63.0631 39.614 63.2002 39.196 63.3373C35.2228 64.6628 31.2757 66.132 27.3939 67.735C26.1586 68.0437 25.0953 68.828 24.4355 69.917C23.7757 71.0061 23.5729 72.3117 23.8712 73.5495L27.1458 87.0265C27.4489 88.2678 28.232 89.3382 29.3232 90.0029C30.4145 90.6675 31.7248 90.8722 32.9668 90.572L33.0125 90.5557C39.3961 87.9373 45.9296 85.7003 52.5784 83.8564C54.5634 83.3047 56.569 82.7845 58.5952 82.2959C58.8141 82.2436 59.0295 82.1914 59.2482 82.1424V81.4699C59.0295 81.5221 58.8141 81.5743 58.5952 81.6266C58.432 81.6658 58.2656 81.7049 58.1023 81.7441C56.1827 82.211 54.2837 82.705 52.4052 83.2263C52.3563 83.2394 52.3042 83.2557 52.2551 83.2688C45.6399 85.1085 39.1392 87.3379 32.7873 89.9452C31.7161 90.1963 30.5892 90.0144 29.6514 89.4392C28.7136 88.8639 28.0408 87.9417 27.7792 86.8731L24.5079 73.3961C24.2482 72.3229 24.4248 71.1906 24.9989 70.2475C25.573 69.3043 26.4977 68.6274 27.5702 68.3651L27.6191 68.3488C31.8471 66.5988 36.1499 65.0122 40.4856 63.6018C40.9035 63.4647 41.3214 63.3308 41.7393 63.197C42.7644 62.8737 43.7907 62.5592 44.818 62.2534C45.9018 61.9302 46.9846 61.619 48.0663 61.3197C48.1382 61.3001 48.2101 61.2805 48.2819 61.2609C49.3397 60.9704 50.4008 60.6896 51.465 60.4186C53.8254 59.8179 56.2022 59.2662 58.5952 58.7634C58.8107 58.7177 59.0295 58.672 59.2482 58.6295V57.9668C59.0295 58.006 58.8141 58.0517 58.5952 58.1006Z" fill="url(#paint3_linear_1_956)"/>
<path d="M59.2481 58.2963V81.8059C59.0327 81.8549 58.814 81.9038 58.5951 81.9561C56.5514 82.4523 54.5164 82.9812 52.4901 83.5427C52.4085 83.4513 52.3301 83.3599 52.2549 83.2685C50.1395 80.7921 48.5851 77.8872 47.6987 74.7533C46.8122 71.6194 46.6146 68.3307 47.1195 65.1131C47.1359 65.0054 47.1555 64.8944 47.1751 64.7866C47.1913 64.6822 47.211 64.5744 47.2306 64.47C47.4321 63.4009 47.7114 62.3479 48.0662 61.3195C48.1088 61.1954 48.1512 61.0713 48.1969 60.9473C49.1926 60.673 50.1916 60.4097 51.1939 60.1572C53.6458 59.5238 56.1129 58.9481 58.5951 58.4301C58.8106 58.3812 59.0293 58.3387 59.2481 58.2963Z" fill="url(#paint4_linear_1_956)"/>
<path d="M44.0767 79.5924C43.8319 78.9911 43.3586 78.5115 42.7607 78.2587C42.1627 78.006 41.4889 78.0007 40.887 78.2441L32.4149 81.6786C31.8141 81.9235 31.335 82.3968 31.0829 82.9945C30.8307 83.5923 30.8261 84.2657 31.0701 84.8669C31.314 85.4681 31.7865 85.9479 32.3839 86.2009C32.9813 86.454 33.6547 86.4597 34.2563 86.2166L42.7284 82.7821C43.3292 82.5367 43.8084 82.0634 44.061 81.4656C44.3137 80.8678 44.3194 80.1943 44.0767 79.5924ZM42.4836 82.1749L34.0114 85.6127C33.57 85.7911 33.0757 85.7871 32.6373 85.6014C32.1988 85.4158 31.8519 85.0637 31.6728 84.6225C31.4938 84.1813 31.4971 83.6871 31.6822 83.2484C31.8672 82.8096 32.2188 82.4623 32.6597 82.2826L41.1319 78.8481C41.5731 78.6688 42.0673 78.6722 42.506 78.8574C42.9447 79.0426 43.2919 79.3945 43.4711 79.8356C43.6504 80.2768 43.647 80.7711 43.4618 81.2098C43.2766 81.6485 42.9247 81.9956 42.4836 82.1749Z" fill="url(#paint5_linear_1_956)"/>
<path d="M59.2482 64.3V77.1012C59.0329 77.156 58.815 77.1996 58.5952 77.2318C57.2845 77.4155 55.9488 77.2006 54.7618 76.6152C53.5748 76.0298 52.5913 75.1008 51.9392 73.9491C51.2871 72.7973 50.9966 71.4761 51.1053 70.157C51.2141 68.8379 51.7171 67.5821 52.549 66.5527C52.6241 66.458 52.7023 66.3666 52.7873 66.2785C52.8656 66.187 52.9506 66.0989 53.0387 66.014C53.7606 65.3 54.6376 64.7624 55.6014 64.443C56.5652 64.1236 57.5898 64.0311 58.5952 64.1727C58.8152 64.2022 59.0332 64.2447 59.2482 64.3Z" fill="white"/>
<path d="M58.5952 42.0278V74.6135C58.8141 74.5417 59.0328 74.4731 59.2482 74.4078V42.3249C59.0295 42.2237 58.8141 42.1258 58.5952 42.0278ZM58.5952 42.0278V74.6135C58.8141 74.5417 59.0328 74.4731 59.2482 74.4078V42.3249C59.0295 42.2237 58.8141 42.1258 58.5952 42.0278ZM58.5952 42.0278V74.6135C58.8141 74.5417 59.0328 74.4731 59.2482 74.4078V42.3249C59.0295 42.2237 58.8141 42.1258 58.5952 42.0278ZM58.5952 44.4079V81.956C58.8141 81.9037 59.0328 81.8548 59.2482 81.8058V44.5939C59.0295 44.5286 58.8107 44.4666 58.5952 44.4079V44.4079ZM58.5952 44.4079V81.956C58.8141 81.9037 59.0328 81.8548 59.2482 81.8058V44.5939C59.0295 44.5286 58.8107 44.4666 58.5952 44.4079V44.4079ZM58.5952 44.4079V81.956C58.8141 81.9037 59.0328 81.8548 59.2482 81.8058V44.5939C59.0295 44.5286 58.8107 44.4666 58.5952 44.4079V44.4079ZM58.5952 44.4079V81.956C58.8141 81.9037 59.0328 81.8548 59.2482 81.8058V44.5939C59.0295 44.5286 58.8107 44.4666 58.5952 44.4079V44.4079ZM58.5952 44.4079V82.2955C58.8141 82.2433 59.0295 82.191 59.2482 82.1421V44.5939C59.0295 44.5286 58.8107 44.4666 58.5952 44.4079V44.4079ZM201.021 13.5362H65.373C63.5763 13.5392 61.8541 14.2542 60.5837 15.5246C59.3133 16.795 58.5982 18.5172 58.5952 20.3139V121.029C58.5983 122.825 59.3134 124.547 60.5839 125.817C61.8545 127.087 63.5766 127.801 65.373 127.803H201.021C202.817 127.801 204.539 127.087 205.809 125.817C207.079 124.547 207.793 122.825 207.795 121.029V20.3139C207.794 18.5173 207.08 16.7948 205.81 15.5241C204.54 14.2535 202.817 13.5386 201.021 13.5362V13.5362ZM207.142 121.029C207.141 122.652 206.495 124.208 205.347 125.355C204.2 126.503 202.644 127.149 201.021 127.15H65.373C63.7496 127.149 62.1931 126.503 61.0449 125.356C59.8967 124.208 59.2506 122.652 59.2482 121.029V20.3139C59.2506 18.6902 59.8967 17.1338 61.0448 15.9857C62.1929 14.8376 63.7493 14.1916 65.373 14.1892H201.021C202.644 14.191 204.201 14.837 205.348 15.9853C206.496 17.1336 207.141 18.6904 207.142 20.3139V121.029ZM58.5952 44.4079V81.6262C58.8141 81.574 59.0295 81.5218 59.2482 81.4695V44.5939C59.0295 44.5286 58.8107 44.4666 58.5952 44.4079V44.4079ZM58.5952 44.4079V81.956C58.8141 81.9037 59.0328 81.8548 59.2482 81.8058V44.5939C59.0295 44.5286 58.8107 44.4666 58.5952 44.4079V44.4079ZM58.5952 44.4079V81.956C58.8141 81.9037 59.0328 81.8548 59.2482 81.8058V44.5939C59.0295 44.5286 58.8107 44.4666 58.5952 44.4079V44.4079ZM58.5952 44.4079V81.956C58.8141 81.9037 59.0328 81.8548 59.2482 81.8058V44.5939C59.0295 44.5286 58.8107 44.4666 58.5952 44.4079V44.4079ZM58.5952 42.0278V74.6135C58.8141 74.5417 59.0328 74.4731 59.2482 74.4078V42.3249C59.0295 42.2237 58.8141 42.1258 58.5952 42.0278ZM58.5952 42.0278V74.6135C58.8141 74.5417 59.0328 74.4731 59.2482 74.4078V42.3249C59.0295 42.2237 58.8141 42.1258 58.5952 42.0278Z" fill="#999999"/>
<path d="M29.5144 76.5059C29.3864 76.2074 29.1946 75.9407 28.9524 75.7244C28.7101 75.5082 28.4235 75.3477 28.1125 75.2542C27.8015 75.1607 27.4739 75.1365 27.1526 75.1834C26.8312 75.2303 26.5241 75.347 26.2528 75.5254L19.994 70.7163L19.6982 74.8073L25.6871 78.7469C26.017 79.1828 26.4953 79.4826 27.0315 79.5894C27.5676 79.6962 28.1243 79.6026 28.5961 79.3264C29.0679 79.0501 29.4219 78.6104 29.5912 78.0906C29.7604 77.5708 29.7331 77.0069 29.5144 76.5059V76.5059Z" fill="#FFB6B6"/>
<path d="M4.29387 47.4829L2.23436 46.5096C2.23436 46.5096 -1.08347 47.4428 0.528429 51.8301L10.2833 70.003L22.1928 76.9757L25.9055 73.6857L13.9875 64.2557L4.29387 47.4829Z" fill="#5F2DBF"/>
<defs>
<linearGradient id="paint0_linear_1_956" x1="-9.31139" y1="75.1665" x2="20.5816" y2="37.6482" gradientUnits="userSpaceOnUse">
<stop stop-color="#F88227"/>
<stop offset="1" stop-color="#F9BA3A"/>
</linearGradient>
<linearGradient id="paint1_linear_1_956" x1="32.9619" y1="73.8263" x2="55.3024" y2="61.1655" gradientUnits="userSpaceOnUse">
<stop stop-color="#F88227"/>
<stop offset="1" stop-color="#F9BA3A"/>
</linearGradient>
<linearGradient id="paint2_linear_1_956" x1="14.5962" y1="60.2473" x2="18.9502" y2="50.055" gradientUnits="userSpaceOnUse">
<stop stop-color="#F88227"/>
<stop offset="1" stop-color="#F9BA3A"/>
</linearGradient>
<linearGradient id="paint3_linear_1_956" x1="-4.61488" y1="97.8098" x2="28.3328" y2="62.0735" gradientUnits="userSpaceOnUse">
<stop stop-color="#F88227"/>
<stop offset="1" stop-color="#F9BA3A"/>
</linearGradient>
<linearGradient id="paint4_linear_1_956" x1="36.9456" y1="89.0197" x2="57.12" y2="79.1098" gradientUnits="userSpaceOnUse">
<stop stop-color="#F88227"/>
<stop offset="1" stop-color="#F9BA3A"/>
</linearGradient>
<linearGradient id="paint5_linear_1_956" x1="20.2205" y1="88.2019" x2="27.771" y2="76.0878" gradientUnits="userSpaceOnUse">
<stop stop-color="#F88227"/>
<stop offset="1" stop-color="#F9BA3A"/>
</linearGradient>
</defs>
</svg>
