<svg width="22" height="22" viewBox="0 0 22 22" fill="none" xmlns="http://www.w3.org/2000/svg">
<path d="M19.6221 22H16.543C16.187 22 15.8984 21.7114 15.8984 21.3555C15.8984 20.9995 16.187 20.7109 16.543 20.7109H19.6221C20.2225 20.7109 20.7109 20.2225 20.7109 19.6221V16.543C20.7109 16.187 20.9995 15.8984 21.3555 15.8984C21.7114 15.8984 22 16.187 22 16.543V19.6221C22 20.9333 20.9333 22 19.6221 22V22Z" fill="#919191"/>
<path d="M0.644531 15.8984C1.00048 15.8984 1.28906 16.187 1.28906 16.543V19.6221C1.28906 20.2225 1.77753 20.7109 2.37789 20.7109H5.45703C5.81298 20.7109 6.10156 20.9995 6.10156 21.3555C6.10156 21.7114 5.81298 22 5.45703 22H2.37789C1.06674 22 0 20.9333 0 19.6221V16.543C0 16.187 0.288578 15.8984 0.644531 15.8984Z" fill="#919191"/>
<path d="M5.45703 1.28906H2.37789C1.77753 1.28906 1.28906 1.77753 1.28906 2.37793V5.45703C1.28906 5.81298 1.00048 6.10156 0.644531 6.10156C0.288578 6.10156 0 5.81298 0 5.45703V2.37793C0 1.06674 1.06674 0 2.37789 0H5.45703C5.81298 0 6.10156 0.288578 6.10156 0.644531C6.10156 1.00048 5.81298 1.28906 5.45703 1.28906Z" fill="#919191"/>
<path d="M21.3555 6.10156C20.9995 6.10156 20.7109 5.81298 20.7109 5.45703V2.37793C20.7109 1.77753 20.2225 1.28906 19.6221 1.28906H16.543C16.187 1.28906 15.8984 1.00048 15.8984 0.644531C15.8984 0.288578 16.187 0 16.543 0H19.6221C20.9333 0 22 1.06674 22 2.37793V5.45703C22 5.81298 21.7114 6.10156 21.3555 6.10156Z" fill="#919191"/>
<path d="M14.6799 17.2734H16.7242C17.0033 17.2734 17.2304 17.0463 17.2304 16.7672V14.723C17.2304 14.367 17.519 14.0785 17.875 14.0785C18.2309 14.0785 18.5195 14.367 18.5195 14.723V16.7672C18.5195 17.7571 17.7141 18.5625 16.7242 18.5625H14.6799C14.324 18.5625 14.0354 18.2739 14.0354 17.918C14.0354 17.562 14.324 17.2734 14.6799 17.2734Z" fill="#919191"/>
<path d="M3.48047 16.7672V14.723C3.48047 14.367 3.76905 14.0785 4.125 14.0785C4.48095 14.0785 4.76953 14.367 4.76953 14.723V16.7672C4.76953 17.0463 4.99666 17.2734 5.27579 17.2734H7.32003C7.67598 17.2734 7.96456 17.562 7.96456 17.918C7.96456 18.2739 7.67598 18.5625 7.32003 18.5625H5.27579C4.28587 18.5625 3.48047 17.7571 3.48047 16.7672Z" fill="#919191"/>
<path d="M7.32003 4.81246H5.27579C4.99662 4.81246 4.76953 5.03955 4.76953 5.31872V7.36292C4.76953 7.71887 4.48095 8.00745 4.125 8.00745C3.76905 8.00745 3.48047 7.71887 3.48047 7.36292V5.31872C3.48047 4.32876 4.28587 3.5234 5.27579 3.5234H7.32003C7.67598 3.5234 7.96456 3.81198 7.96456 4.16793C7.96456 4.52388 7.67598 4.81246 7.32003 4.81246Z" fill="#919191"/>
<path d="M18.5195 5.31872V7.36292C18.5195 7.71887 18.2309 8.00745 17.875 8.00745C17.519 8.00745 17.2304 7.71887 17.2304 7.36292V5.31872C17.2304 5.03955 17.0033 4.81246 16.7242 4.81246H14.6799C14.324 4.81246 14.0354 4.52388 14.0354 4.16793C14.0354 3.81198 14.324 3.5234 14.6799 3.5234H16.7242C17.7141 3.5234 18.5195 4.32876 18.5195 5.31872Z" fill="#919191"/>
<path d="M0.0429688 11C0.0429688 10.644 0.331547 10.3555 0.6875 10.3555H21.3125C21.6685 10.3555 21.957 10.644 21.957 11C21.957 11.356 21.6685 11.6445 21.3125 11.6445H0.6875C0.331547 11.6445 0.0429688 11.356 0.0429688 11Z" fill="#919191"/>
</svg>
