<svg width="22" height="22" viewBox="0 0 22 22" fill="none" xmlns="http://www.w3.org/2000/svg">
<path d="M11 0C4.9346 0 0 4.9346 0 11C0 17.0654 4.9346 22 11 22C17.0654 22 22 17.0654 22 11C22 4.9346 17.0654 0 11 0Z" fill="#6932D4"/>
<path d="M14.9567 7.29287L9.29977 12.9497L6.7071 10.357C6.31663 9.96653 5.68343 9.96647 5.2929 10.3569C4.90237 10.7475 4.90237 11.3806 5.2929 11.7711L8.59263 15.071C8.78017 15.2585 9.0345 15.3639 9.2997 15.3639C9.29977 15.3639 9.2997 15.3639 9.29977 15.3639C9.56497 15.3639 9.8193 15.2585 10.0068 15.0711L16.3709 8.70713C16.7614 8.3166 16.7614 7.68347 16.3709 7.29293C15.9804 6.9024 15.3472 6.90233 14.9567 7.29287Z" fill="white"/>
</svg>
