<svg width="24" height="24" viewBox="0 0 24 24" fill="none" xmlns="http://www.w3.org/2000/svg">
<path d="M20.5989 10.683L20.5981 10.6829C20.0717 10.6064 19.5693 10.4122 19.1284 10.1146C18.6875 9.81712 18.3194 9.42395 18.0515 8.96443C17.7835 8.5049 17.6227 7.99086 17.581 7.46058C17.5395 6.93263 17.6171 6.40213 17.808 5.90823C17.8214 5.87164 17.8232 5.83181 17.8131 5.79414L20.5989 10.683ZM20.5989 10.683C20.6372 10.6885 20.6728 10.706 20.7006 10.7329C20.7284 10.7598 20.747 10.7947 20.7538 10.8328L20.7537 10.8328L20.7557 10.8431C20.8513 11.349 20.8997 11.8626 20.9 12.3774C20.8924 12.8659 20.8422 13.3529 20.7498 13.8327L20.7479 13.8427L20.7461 13.8528C20.7391 13.894 20.7191 13.9319 20.689 13.961C20.6601 13.989 20.6233 14.0075 20.5837 14.0139C20.0464 14.0802 19.5315 14.2695 19.0791 14.567C18.6229 14.8671 18.2427 15.2691 17.9684 15.7414C17.6942 16.2136 17.5335 16.7431 17.499 17.2881C17.4648 17.8279 17.5554 18.3683 17.7636 18.8674C17.7774 18.9047 17.7794 18.9454 17.7696 18.9841C17.7592 19.0245 17.7364 19.0605 17.7042 19.087L17.7042 19.087L17.7014 19.0894C17.005 19.6695 16.2223 20.1373 15.3815 20.4758C15.3426 20.4913 15.2996 20.4936 15.2593 20.4822C15.2188 20.4707 15.1833 20.4463 15.1582 20.4125L15.1582 20.4125C14.8295 19.9708 14.4023 19.612 13.9106 19.3645C13.419 19.1172 12.8765 18.988 12.3263 18.9872M20.5989 10.683L17.7436 5.69064M17.7436 5.69064L17.7437 5.69061C16.9861 5.05444 16.1237 4.55468 15.1951 4.21362L15.1917 4.21234C15.1528 4.1979 15.1104 4.1961 15.0704 4.20719C15.0313 4.21805 14.9965 4.24073 14.9708 4.27211C14.6413 4.69158 14.221 5.03095 13.7415 5.26469C13.2597 5.49952 12.7308 5.62156 12.1949 5.62156C11.6589 5.62156 11.13 5.49952 10.6482 5.26469C10.1687 5.03095 9.74843 4.69157 9.41896 4.27209C9.39324 4.24072 9.35845 4.21804 9.31932 4.20719C9.27936 4.1961 9.23693 4.1979 9.19806 4.21234L9.19457 4.21364L9.19457 4.21363C8.33667 4.52869 7.53455 4.97866 6.81849 5.54655L6.8178 5.5471C6.78373 5.57407 6.7592 5.61123 6.74778 5.65315C6.73679 5.69351 6.73852 5.73623 6.75266 5.77551C6.95731 6.2815 7.04162 6.82818 6.99888 7.37245C6.95576 7.92135 6.7846 8.45252 6.49913 8.92333C6.21366 9.39414 5.82181 9.7915 5.35503 10.0835C4.89124 10.3737 4.36628 10.5518 3.82178 10.6039C3.78118 10.609 3.74314 10.6266 3.71298 10.6543C3.68193 10.6829 3.66087 10.7207 3.6529 10.7621L3.65115 10.7712L3.65111 10.7712C3.5438 11.3024 3.48974 11.8429 3.48974 12.3848V12.3865C3.48895 12.8409 3.52563 13.2946 3.59941 13.7429L3.60038 13.7488L3.60036 13.7488C3.60713 13.7916 3.6278 13.8309 3.65917 13.8607C3.68972 13.8898 3.72877 13.9082 3.77055 13.9134C4.32733 13.9673 4.86334 14.1529 5.33422 14.455C5.80786 14.7589 6.20182 15.1719 6.48312 15.6593C6.76442 16.1467 6.92487 16.6944 6.95106 17.2565C6.97724 17.8187 6.86838 18.3789 6.6336 18.8903L6.63264 18.8924C6.61604 18.9284 6.61193 18.9688 6.62094 19.0073C6.62996 19.0459 6.65158 19.0803 6.68239 19.1051L6.69324 19.1139L6.69318 19.1139C7.44366 19.7364 8.29435 20.227 9.20898 20.5647C9.23447 20.5729 9.26097 20.5776 9.28775 20.5787C9.31593 20.5776 9.34356 20.5703 9.36862 20.5573L9.82998 21.4445L9.36863 20.5573C9.39472 20.5437 9.4173 20.5243 9.43462 20.5006C9.75676 20.0339 10.1874 19.6523 10.6895 19.3887C11.1943 19.1237 11.7562 18.9858 12.3263 18.9872M17.7436 5.69064L17.7503 5.69612M17.7436 5.69064L17.7503 5.69612M12.3263 18.9872C12.326 18.9872 12.3258 18.9871 12.3255 18.9871L12.3243 19.9871L12.3267 18.9872C12.3265 18.9872 12.3264 18.9872 12.3263 18.9872ZM17.7503 5.69612C17.7809 5.72142 17.8029 5.75569 17.8131 5.79413L17.7503 5.69612ZM8.2822 10.7641L9.20608 11.1468L8.2822 10.7641C7.96166 11.538 7.87779 12.3895 8.0412 13.211C8.20461 14.0325 8.60796 14.7871 9.20024 15.3794C9.79252 15.9717 10.5471 16.3751 11.3687 16.5385C12.1902 16.7019 13.0417 16.618 13.8155 16.2975C14.5894 15.9769 15.2508 15.4341 15.7162 14.7377C16.1815 14.0412 16.4299 13.2224 16.4299 12.3848C16.4299 11.2616 15.9837 10.1844 15.1895 9.39018C14.3953 8.59595 13.3181 8.14976 12.1949 8.14976C11.3573 8.14976 10.5385 8.39814 9.842 8.8635C9.14556 9.32885 8.60274 9.99027 8.2822 10.7641Z" stroke="#6932D4" stroke-width="2"/>
</svg>
