<svg width="232" height="312" viewBox="0 0 232 312" fill="none" xmlns="http://www.w3.org/2000/svg">
<path d="M147.025 260.905H19.4548C17.4034 260.876 15.4388 260.073 13.9551 258.656C12.4714 257.239 11.5782 255.313 11.4548 253.265L0.0148042 31.7152C-0.0486197 30.7298 0.0922035 29.7418 0.428455 28.8133C0.764706 27.8848 1.28913 27.0358 1.96886 26.3194C2.64859 25.6031 3.46896 25.0349 4.37856 24.6504C5.28816 24.266 6.26736 24.0735 7.2548 24.0852H134.825C136.875 24.1118 138.84 24.9132 140.324 26.3286C141.808 27.7439 142.701 29.6683 142.825 31.7152L154.245 253.265C154.308 254.249 154.168 255.236 153.833 256.164C153.498 257.091 152.975 257.94 152.298 258.657C151.621 259.374 150.803 259.943 149.896 260.33C148.988 260.717 148.011 260.913 147.025 260.905Z" fill="#6932D4"/>
<path opacity="0.8" d="M147.025 260.905H19.4548C17.4034 260.876 15.4388 260.073 13.9551 258.656C12.4714 257.239 11.5782 255.313 11.4548 253.265L0.0148042 31.7152C-0.0486197 30.7298 0.0922035 29.7418 0.428455 28.8133C0.764706 27.8848 1.28913 27.0358 1.96886 26.3194C2.64859 25.6031 3.46896 25.0349 4.37856 24.6504C5.28816 24.266 6.26736 24.0735 7.2548 24.0852H134.825C136.875 24.1118 138.84 24.9132 140.324 26.3286C141.808 27.7439 142.701 29.6683 142.825 31.7152L154.245 253.265C154.308 254.249 154.168 255.236 153.833 256.164C153.498 257.091 152.975 257.94 152.298 258.657C151.621 259.374 150.803 259.943 149.896 260.33C148.988 260.717 148.011 260.913 147.025 260.905Z" fill="white"/>
<path d="M122.235 16.8652H108.125V17.8652H122.235V16.8652Z" fill="#6932D4"/>
<path d="M103.235 16.8652H98.0649V17.8652H103.235V16.8652Z" fill="#6932D4"/>
<path d="M152.515 246.845H30.515C28.5504 246.826 26.6659 246.064 25.241 244.711C23.816 243.358 22.9563 241.516 22.835 239.555L11.915 27.6552C11.8544 26.7121 11.9892 25.7666 12.3111 24.8781C12.633 23.9895 13.135 23.1771 13.7857 22.4917C14.4363 21.8063 15.2216 21.2627 16.0922 20.8951C16.9628 20.5274 17.9 20.3436 18.845 20.3552H140.845C142.81 20.3769 144.693 21.142 146.116 22.4965C147.539 23.8509 148.396 25.6942 148.515 27.6552L159.435 239.555C159.496 240.497 159.361 241.441 159.04 242.329C158.718 243.216 158.217 244.027 157.567 244.712C156.918 245.396 156.133 245.939 155.264 246.306C154.395 246.673 153.459 246.857 152.515 246.845Z" fill="#6932D4"/>
<path d="M152.515 241.975H30.5147C29.7993 241.951 29.1178 241.664 28.5997 241.17C28.0817 240.676 27.7632 240.009 27.7048 239.295L16.7748 27.4052C16.75 27.1234 16.7853 26.8395 16.8784 26.5723C16.9715 26.3051 17.1202 26.0607 17.3148 25.8552C17.5098 25.6502 17.7462 25.489 18.0082 25.3821C18.2702 25.2752 18.552 25.2252 18.8348 25.2352H140.835C141.548 25.2622 142.228 25.5498 142.744 26.0437C143.259 26.5376 143.577 27.2034 143.635 27.9152L154.615 239.805C154.639 240.086 154.603 240.369 154.51 240.635C154.418 240.901 154.269 241.145 154.076 241.35C153.882 241.554 153.648 241.716 153.387 241.824C153.127 241.932 152.847 241.983 152.565 241.975H152.515ZM18.8348 25.4852C18.5861 25.4772 18.3386 25.5211 18.1079 25.614C17.8771 25.707 17.6683 25.8471 17.4948 26.0252C17.3278 26.2099 17.2001 26.4266 17.1193 26.662C17.0385 26.8975 17.0063 27.147 17.0248 27.3952L27.9448 239.285C28.0004 239.934 28.2914 240.54 28.7629 240.99C29.2344 241.439 29.8539 241.701 30.5048 241.725H152.505C152.752 241.735 152.999 241.692 153.228 241.599C153.457 241.506 153.664 241.365 153.835 241.185C154.006 241.003 154.136 240.787 154.217 240.551C154.298 240.315 154.328 240.064 154.305 239.815L143.395 27.9252C143.341 27.2771 143.053 26.671 142.583 26.2214C142.113 25.7718 141.495 25.5099 140.845 25.4852H18.8348Z" fill="white"/>
<path d="M109.842 102.461C123.718 88.2217 122.814 64.836 107.823 50.2275C92.8325 35.619 69.4313 35.3197 55.5551 49.559C41.679 63.7983 42.5826 87.184 57.5734 101.792C72.5642 116.401 95.9654 116.7 109.842 102.461Z" fill="#D7C2FF"/>
<path d="M112.615 76.0152C112.894 80.9294 111.906 85.8331 109.745 90.2552C107.405 94.9984 103.772 98.984 99.2662 101.753C94.76 104.522 89.5632 105.961 84.2746 105.905C78.7939 105.856 73.4193 104.389 68.6738 101.646C63.9283 98.9036 59.9736 94.9794 57.1946 90.2552C54.6045 85.9352 53.1143 81.0455 52.8546 76.0152C52.608 72.1575 53.1603 68.2904 54.477 64.6559C55.7936 61.0214 57.8463 57.6978 60.5065 54.8931C63.1666 52.0883 66.3771 49.8629 69.9369 48.3559C73.4967 46.849 77.3292 46.093 81.1946 46.1352C89.2396 46.2191 96.954 49.3483 102.784 54.8926C108.614 60.437 112.127 67.9846 112.615 76.0152Z" fill="white"/>
<path d="M109.715 90.2552C107.375 94.9984 103.743 98.984 99.2367 101.753C94.7304 104.522 89.5336 105.961 84.245 105.905C78.7643 105.856 73.3897 104.389 68.6443 101.646C63.8988 98.9036 59.9441 94.9794 57.165 90.2552C64.7643 85.0071 73.7898 82.215 83.025 82.2552C92.5072 82.291 101.777 85.0693 109.715 90.2552Z" fill="url(#paint0_linear_1_533)"/>
<path d="M91.9622 75.3204C96.9615 70.1903 96.6342 61.7632 91.2312 56.498C85.8282 51.2328 77.3955 51.1232 72.3962 56.2533C67.3969 61.3834 67.7242 69.8105 73.1273 75.0757C78.5303 80.3409 86.963 80.4505 91.9622 75.3204Z" fill="url(#paint1_linear_1_533)"/>
<path d="M135.025 164.405H39.4947C38.6626 164.397 37.8647 164.073 37.2616 163.5C36.6586 162.926 36.2952 162.146 36.2447 161.315L35.5246 147.315C35.4999 146.917 35.5575 146.518 35.694 146.143C35.8305 145.768 36.0429 145.425 36.3179 145.136C36.5929 144.847 36.9246 144.618 37.2923 144.463C37.66 144.308 38.0557 144.23 38.4546 144.235H133.985C134.815 144.244 135.612 144.566 136.214 145.137C136.817 145.708 137.182 146.486 137.235 147.315L137.955 161.315C137.981 161.714 137.924 162.114 137.788 162.491C137.653 162.867 137.44 163.211 137.165 163.501C136.89 163.791 136.558 164.021 136.19 164.177C135.821 164.332 135.425 164.41 135.025 164.405Z" fill="white"/>
<path d="M105.775 136.505H65.8747C65.0393 136.499 64.2375 136.175 63.6321 135.599C63.0267 135.024 62.663 134.239 62.6147 133.405L62.4647 130.405C62.4385 130.006 62.4951 129.606 62.6309 129.23C62.7668 128.854 62.979 128.51 63.2541 128.22C63.5293 127.929 63.8615 127.699 64.2299 127.544C64.5983 127.388 64.9949 127.31 65.3947 127.315H105.285C106.117 127.324 106.915 127.647 107.518 128.221C108.121 128.794 108.484 129.575 108.535 130.405L108.695 133.405C108.719 133.804 108.662 134.203 108.526 134.578C108.391 134.953 108.179 135.297 107.906 135.587C107.632 135.878 107.302 136.109 106.935 136.267C106.569 136.425 106.174 136.506 105.775 136.505Z" fill="white"/>
<path d="M120.615 231.715H60.8448C59.4295 231.698 58.0731 231.146 57.0475 230.171C56.0219 229.195 55.403 227.868 55.3148 226.455L54.9648 219.555C54.9295 218.877 55.0327 218.199 55.2681 217.562C55.5035 216.925 55.8662 216.343 56.334 215.85C56.8019 215.358 57.3651 214.967 57.9893 214.699C58.6135 214.432 59.2857 214.294 59.9648 214.295H119.715C121.13 214.313 122.486 214.864 123.512 215.84C124.538 216.815 125.157 218.143 125.245 219.555L125.595 226.455C125.63 227.132 125.527 227.808 125.293 228.444C125.059 229.08 124.698 229.661 124.232 230.153C123.767 230.645 123.206 231.037 122.584 231.305C121.962 231.574 121.292 231.713 120.615 231.715Z" fill="white"/>
<path d="M136.775 198.265H41.2349C40.4035 198.254 39.6069 197.93 39.0044 197.357C38.4018 196.784 38.0377 196.005 37.9849 195.175L37.2649 181.175C37.2401 180.777 37.2978 180.377 37.4342 180.002C37.5706 179.626 37.7828 179.283 38.0577 178.993C38.3325 178.703 38.6641 178.473 39.0318 178.317C39.3995 178.16 39.7954 178.082 40.1949 178.085H135.725C136.557 178.094 137.355 178.417 137.958 178.991C138.561 179.564 138.924 180.345 138.975 181.175L139.705 195.175C139.728 195.574 139.669 195.973 139.533 196.347C139.396 196.722 139.183 197.065 138.909 197.354C138.634 197.644 138.303 197.874 137.936 198.031C137.569 198.188 137.174 198.267 136.775 198.265Z" fill="white"/>
<path d="M51.615 154.315C51.6425 154.757 51.5786 155.2 51.4272 155.616C51.2759 156.032 51.0404 156.413 50.7353 156.734C50.4303 157.055 50.0624 157.309 49.6546 157.481C49.2467 157.654 48.8077 157.74 48.365 157.735C47.4452 157.724 46.5636 157.365 45.8976 156.731C45.2316 156.097 44.8305 155.233 44.775 154.315C44.746 153.874 44.8086 153.431 44.9588 153.015C45.109 152.599 45.3435 152.218 45.6478 151.897C45.952 151.576 46.3193 151.321 46.7267 151.149C47.134 150.977 47.5726 150.89 48.0149 150.895C48.9358 150.906 49.8185 151.264 50.4861 151.899C51.1538 152.533 51.557 153.396 51.615 154.315Z" fill="#263238"/>
<path d="M62.145 154.315C62.174 154.757 62.1114 155.199 61.9612 155.615C61.811 156.031 61.5764 156.412 61.2722 156.733C60.968 157.054 60.6007 157.309 60.1933 157.481C59.7859 157.654 59.3473 157.74 58.905 157.735C57.9845 157.727 57.1016 157.369 56.4351 156.734C55.7686 156.099 55.3682 155.234 55.315 154.315C55.286 153.874 55.3486 153.431 55.4988 153.015C55.649 152.599 55.8836 152.218 56.1878 151.897C56.492 151.576 56.8593 151.321 57.2667 151.149C57.6741 150.977 58.1127 150.89 58.555 150.895C59.4755 150.904 60.3584 151.262 61.0249 151.897C61.6914 152.532 62.0918 153.396 62.145 154.315Z" fill="#263238"/>
<path d="M72.6148 154.315C72.6438 154.757 72.5812 155.199 72.431 155.615C72.2808 156.031 72.0462 156.412 71.742 156.733C71.4377 157.054 71.0704 157.309 70.6631 157.481C70.2557 157.654 69.8171 157.74 69.3748 157.735C68.454 157.724 67.5713 157.366 66.9036 156.732C66.236 156.097 65.8328 155.234 65.7748 154.315C65.7473 153.873 65.8112 153.43 65.9625 153.014C66.1138 152.598 66.3494 152.218 66.6544 151.897C66.9594 151.576 67.3273 151.321 67.7352 151.149C68.143 150.977 68.582 150.89 69.0248 150.895C69.9446 150.906 70.8261 151.265 71.4921 151.899C72.1581 152.534 72.5593 153.397 72.6148 154.315Z" fill="#263238"/>
<path d="M83.1646 154.315C83.192 154.756 83.1284 155.198 82.9777 155.614C82.8269 156.029 82.5923 156.409 82.2884 156.73C81.9844 157.051 81.6177 157.306 81.2111 157.478C80.8044 157.651 80.3665 157.739 79.9246 157.735C79.0038 157.724 78.121 157.366 77.4534 156.732C76.7858 156.097 76.3825 155.234 76.3246 154.315C76.2971 153.874 76.3607 153.432 76.5115 153.017C76.6622 152.601 76.8969 152.221 77.2008 151.901C77.5047 151.58 77.8714 151.325 78.2781 151.152C78.6848 150.979 79.1227 150.892 79.5646 150.895C80.4854 150.906 81.3681 151.264 82.0358 151.899C82.7034 152.533 83.1066 153.396 83.1646 154.315Z" fill="#263238"/>
<path d="M53.3848 188.155C53.4138 188.597 53.3512 189.039 53.201 189.455C53.0508 189.871 52.8162 190.252 52.512 190.573C52.2078 190.894 51.8405 191.149 51.4331 191.321C51.0258 191.494 50.5871 191.58 50.1448 191.575C49.224 191.564 48.3413 191.206 47.6736 190.572C47.006 189.937 46.6028 189.074 46.5448 188.155C46.5173 187.713 46.5812 187.27 46.7325 186.854C46.8839 186.438 47.1194 186.058 47.4244 185.737C47.7294 185.416 48.0974 185.161 48.5052 184.989C48.9131 184.817 49.3521 184.73 49.7948 184.735C50.7146 184.746 51.5961 185.105 52.2622 185.739C52.9282 186.374 53.3293 187.237 53.3848 188.155Z" fill="#263238"/>
<path d="M63.8947 188.155C63.9222 188.596 63.8586 189.038 63.7078 189.454C63.5571 189.869 63.3225 190.249 63.0185 190.57C62.7146 190.891 62.3479 191.146 61.9412 191.318C61.5346 191.491 61.0966 191.579 60.6547 191.575C59.7339 191.564 58.8512 191.206 58.1836 190.572C57.5159 189.937 57.1127 189.074 57.0547 188.155C57.0258 187.714 57.0884 187.271 57.2385 186.855C57.3887 186.439 57.6233 186.058 57.9275 185.737C58.2318 185.416 58.5991 185.161 59.0064 184.989C59.4138 184.817 59.8524 184.73 60.2947 184.735C61.2156 184.746 62.0983 185.104 62.7659 185.739C63.4335 186.373 63.8368 187.236 63.8947 188.155Z" fill="#263238"/>
<path d="M74.405 188.155C74.4325 188.597 74.3686 189.04 74.2173 189.456C74.0659 189.872 73.8304 190.253 73.5254 190.574C73.2204 190.895 72.8525 191.149 72.4446 191.322C72.0368 191.494 71.5977 191.58 71.155 191.575C70.2345 191.567 69.3516 191.209 68.6851 190.574C68.0186 189.939 67.6182 189.074 67.565 188.155C67.536 187.714 67.5986 187.271 67.7488 186.855C67.899 186.439 68.1336 186.058 68.4378 185.737C68.742 185.416 69.1093 185.161 69.5167 184.989C69.9241 184.817 70.3627 184.73 70.805 184.735C71.7258 184.746 72.6085 185.104 73.2762 185.739C73.9438 186.373 74.347 187.236 74.405 188.155Z" fill="#263238"/>
<path d="M84.9048 188.155C84.9338 188.597 84.8712 189.039 84.721 189.455C84.5708 189.871 84.3363 190.252 84.032 190.573C83.7278 190.894 83.3605 191.149 82.9531 191.321C82.5458 191.494 82.1072 191.58 81.6648 191.575C80.744 191.564 79.8613 191.206 79.1937 190.572C78.526 189.937 78.1228 189.074 78.0648 188.155C78.0373 187.713 78.1012 187.27 78.2526 186.854C78.4039 186.438 78.6394 186.058 78.9444 185.737C79.2495 185.416 79.6174 185.161 80.0252 184.989C80.4331 184.817 80.8721 184.73 81.3148 184.735C82.2353 184.744 83.1182 185.102 83.7847 185.737C84.4512 186.372 84.8516 187.236 84.9048 188.155Z" fill="#263238"/>
<path d="M95.4146 188.155C95.4435 188.597 95.381 189.039 95.2308 189.455C95.0806 189.871 94.846 190.252 94.5418 190.573C94.2375 190.894 93.8702 191.149 93.4629 191.321C93.0555 191.494 92.6169 191.58 92.1746 191.575C91.2538 191.564 90.371 191.206 89.7034 190.572C89.0358 189.938 88.6325 189.074 88.5746 188.155C88.5471 187.714 88.6107 187.272 88.7615 186.857C88.9122 186.441 89.1469 186.061 89.4508 185.741C89.7547 185.42 90.1214 185.165 90.5281 184.992C90.9348 184.819 91.3727 184.732 91.8146 184.735C92.7354 184.746 93.6181 185.104 94.2858 185.739C94.9534 186.373 95.3566 187.236 95.4146 188.155Z" fill="#263238"/>
<path d="M105.925 188.155C105.953 188.597 105.889 189.04 105.737 189.456C105.586 189.872 105.35 190.253 105.045 190.574C104.74 190.895 104.372 191.149 103.965 191.322C103.557 191.494 103.118 191.58 102.675 191.575C101.755 191.564 100.874 191.205 100.208 190.571C99.5416 189.937 99.1405 189.073 99.085 188.155C99.056 187.714 99.1186 187.271 99.2688 186.855C99.419 186.439 99.6536 186.058 99.9578 185.737C100.262 185.416 100.629 185.161 101.037 184.989C101.444 184.817 101.883 184.73 102.325 184.735C103.246 184.746 104.129 185.104 104.796 185.739C105.464 186.373 105.867 187.236 105.925 188.155Z" fill="#263238"/>
<path d="M219.615 72.0253C219.865 72.4053 219.995 72.6053 220.155 72.8753L220.605 73.6153C220.895 74.1153 221.155 74.6153 221.405 75.1053C221.905 76.1053 222.405 77.1053 222.805 78.1053C223.643 80.0914 224.364 82.1249 224.965 84.1953C226.175 88.2852 226.973 92.4863 227.345 96.7353L227.415 97.5253C227.423 97.6852 227.423 97.8455 227.415 98.0053V98.5353C227.431 99.2308 227.391 99.9264 227.295 100.615C227.103 101.892 226.767 103.144 226.295 104.345C225.416 106.492 224.252 108.51 222.835 110.345C220.19 113.732 217.052 116.702 213.525 119.155L210.765 115.925C213.276 113.089 215.5 110.01 217.405 106.735C218.262 105.25 218.933 103.664 219.405 102.015C219.596 101.317 219.706 100.599 219.735 99.8753C219.765 99.5661 219.765 99.2546 219.735 98.9453V98.7353C219.745 98.6423 219.745 98.5484 219.735 98.4553L219.615 97.7553C218.972 94.0285 218.063 90.3524 216.895 86.7553C216.315 84.9653 215.605 83.2353 214.895 81.5453C214.545 80.6953 214.145 79.8653 213.745 79.0653L213.125 77.8853L212.815 77.3353L212.555 76.8953L219.615 72.0253Z" fill="#FFB8B8"/>
<path d="M210.315 119.175L213.935 126.825L216.805 120.355C216.805 120.355 214.255 114.755 210.805 115.275L210.315 119.175Z" fill="#FFB8B8"/>
<path d="M216.525 127.205L219.405 122.485L216.805 120.355L213.935 126.825L216.525 127.205Z" fill="#FFB8B8"/>
<path d="M200.245 303.625C200.994 303.607 201.738 303.506 202.465 303.325C202.502 303.314 202.535 303.293 202.561 303.265C202.588 303.237 202.606 303.203 202.615 303.165C202.621 303.127 202.616 303.087 202.6 303.052C202.584 303.016 202.558 302.986 202.525 302.965C202.235 302.775 199.695 301.135 198.715 301.575C198.607 301.626 198.513 301.705 198.445 301.803C198.376 301.901 198.335 302.016 198.325 302.135C198.295 302.316 198.309 302.502 198.367 302.676C198.424 302.85 198.523 303.008 198.655 303.135C199.108 303.485 199.673 303.66 200.245 303.625ZM201.895 303.035C200.445 303.335 199.345 303.285 198.895 302.895C198.803 302.804 198.736 302.691 198.699 302.567C198.662 302.443 198.658 302.312 198.685 302.185C198.685 302.015 198.785 301.965 198.855 301.935C199.395 301.695 200.865 302.405 201.895 303.035Z" fill="#6932D4"/>
<path d="M202.415 303.325H202.515C202.545 303.306 202.57 303.279 202.587 303.248C202.605 303.216 202.614 303.181 202.615 303.145C202.615 303.045 202.615 300.635 201.695 299.825C201.582 299.724 201.448 299.648 201.303 299.603C201.158 299.558 201.005 299.545 200.855 299.565C200.697 299.567 200.544 299.622 200.423 299.722C200.301 299.822 200.217 299.961 200.185 300.115C199.995 301.065 201.515 302.865 202.315 303.325H202.415ZM200.985 299.935C201.066 299.933 201.146 299.947 201.222 299.976C201.297 300.005 201.366 300.049 201.425 300.105C201.952 300.883 202.225 301.806 202.205 302.745C201.405 302.105 200.455 300.745 200.575 300.175C200.575 300.085 200.645 299.965 200.895 299.935H200.985Z" fill="#6932D4"/>
<path d="M190.805 299.545C190.828 299.516 190.844 299.481 190.849 299.444C190.854 299.407 190.85 299.369 190.835 299.334C190.821 299.299 190.798 299.269 190.768 299.246C190.738 299.224 190.702 299.21 190.665 299.205C190.255 299.205 186.665 299.035 185.845 299.915V299.975C185.777 300.062 185.733 300.165 185.717 300.273C185.702 300.382 185.715 300.493 185.755 300.595C185.808 300.767 185.903 300.923 186.03 301.05C186.157 301.178 186.313 301.272 186.485 301.325C187.645 301.685 189.695 300.375 190.815 299.565L190.805 299.545ZM186.145 300.175C186.595 299.695 188.575 299.565 190.055 299.585C188.505 300.645 187.215 301.145 186.565 300.945C186.452 300.911 186.349 300.849 186.265 300.765C186.181 300.682 186.119 300.579 186.085 300.465C186.065 300.427 186.054 300.384 186.054 300.34C186.054 300.297 186.065 300.254 186.085 300.215L186.145 300.175Z" fill="#6932D4"/>
<path d="M190.805 299.545C190.82 299.514 190.828 299.48 190.828 299.445C190.828 299.411 190.82 299.377 190.805 299.345C190.755 299.265 189.635 297.345 188.315 296.945C188.125 296.89 187.926 296.874 187.73 296.898C187.534 296.922 187.345 296.986 187.175 297.085C186.695 297.365 186.665 297.695 186.725 297.905C186.985 298.835 189.535 299.655 190.635 299.645C190.669 299.645 190.703 299.635 190.733 299.618C190.763 299.6 190.788 299.575 190.805 299.545ZM187.215 297.545C187.271 297.49 187.335 297.443 187.405 297.405C187.528 297.327 187.668 297.276 187.813 297.257C187.958 297.238 188.105 297.251 188.245 297.295C189.115 297.525 189.925 298.645 190.295 299.195C189.105 299.065 187.295 298.335 187.145 297.775C187.132 297.733 187.132 297.688 187.144 297.645C187.157 297.602 187.181 297.564 187.215 297.535V297.545Z" fill="#6932D4"/>
<path d="M201.815 42.7353C200.815 47.7353 198.655 58.5453 202.125 61.8653C202.125 61.8653 200.765 66.8653 191.535 66.8653C181.375 66.8653 186.685 61.8653 186.685 61.8653C192.225 60.5453 192.085 56.4253 191.115 52.5653L201.815 42.7353Z" fill="#FFB8B8"/>
<path d="M184.895 31.0153C184.951 31.0245 185.008 31.0245 185.065 31.0153C185.112 30.9919 185.155 30.9594 185.189 30.9195C185.224 30.8796 185.251 30.8332 185.268 30.7829C185.284 30.7327 185.291 30.6796 185.287 30.6268C185.283 30.574 185.269 30.5225 185.245 30.4753C184.976 29.9049 184.574 29.4074 184.073 29.0245C183.571 28.6417 182.986 28.3848 182.365 28.2753C182.261 28.2666 182.157 28.298 182.075 28.363C181.993 28.4281 181.94 28.5219 181.925 28.6253C181.913 28.73 181.944 28.8348 182.009 28.9172C182.075 28.9995 182.17 29.0528 182.275 29.0653C182.765 29.1595 183.226 29.3691 183.619 29.677C184.012 29.9848 184.326 30.3819 184.535 30.8353C184.573 30.8945 184.627 30.9423 184.69 30.9739C184.754 31.0055 184.824 31.0198 184.895 31.0153Z" fill="#263238"/>
<path d="M181.865 35.4053C181.078 36.8651 180.095 38.2108 178.945 39.4053C179.256 39.6903 179.626 39.9041 180.028 40.0319C180.431 40.1597 180.856 40.1984 181.275 40.1453L181.865 35.4053Z" fill="#FFB8B8"/>
<path d="M182.615 34.2753C182.535 34.9453 182.105 35.4453 181.675 35.3953C181.245 35.3453 180.945 34.7553 181.025 34.0853C181.105 33.4153 181.535 32.9153 182.025 32.9653C182.515 33.0153 182.685 33.6053 182.615 34.2753Z" fill="#263238"/>
<path d="M182.155 33.0253L180.615 32.4053C180.615 32.4053 181.265 33.7253 182.155 33.0253Z" fill="#263238"/>
<path d="M199.635 297.645L191.475 299.545L186.515 280.785L194.675 278.885L199.635 297.645Z" fill="#FFB8B8"/>
<path d="M212.155 303.125H203.785L204.435 283.735H212.815L212.155 303.125Z" fill="#FFB8B8"/>
<path d="M203.115 302.155H212.525C212.688 302.154 212.846 302.212 212.969 302.319C213.093 302.426 213.173 302.574 213.195 302.735L214.265 310.175C214.286 310.363 214.267 310.554 214.209 310.734C214.152 310.915 214.056 311.081 213.93 311.221C213.803 311.362 213.648 311.475 213.475 311.551C213.302 311.628 213.114 311.667 212.925 311.665C209.645 311.615 208.065 311.415 203.925 311.415C201.375 311.415 197.655 311.685 194.145 311.685C190.635 311.685 190.435 308.205 191.905 307.895C198.465 306.475 199.505 304.535 201.715 302.675C202.105 302.342 202.601 302.158 203.115 302.155Z" fill="#263238"/>
<path d="M190.755 298.295L199.305 294.365C199.45 294.296 199.615 294.282 199.77 294.326C199.925 294.371 200.058 294.47 200.145 294.605L204.235 300.925C204.33 301.088 204.391 301.269 204.412 301.456C204.433 301.644 204.415 301.834 204.358 302.013C204.302 302.193 204.208 302.36 204.084 302.501C203.959 302.643 203.806 302.757 203.635 302.835C200.635 304.155 199.115 304.645 195.355 306.375C193.045 307.435 188.355 309.875 185.175 311.375C181.995 312.875 180.355 309.765 181.555 308.865C186.925 304.865 188.465 301.995 189.695 299.385C189.903 298.905 190.28 298.517 190.755 298.295Z" fill="#263238"/>
<path opacity="0.2" d="M186.515 280.785L189.175 290.845L197.235 288.555L194.685 278.885L186.515 280.785Z" fill="black"/>
<path opacity="0.2" d="M212.815 283.735H204.435L204.105 293.735H212.485L212.815 283.735Z" fill="black"/>
<path d="M216.615 63.7653C220.095 64.5353 223.815 77.0453 223.815 77.0453L213.975 87.5154C213.975 87.5154 205.805 75.7553 207.475 71.4353C209.165 66.9253 212.465 62.8653 216.615 63.7653Z" fill="#263238"/>
<path opacity="0.4" d="M211.055 71.7353C209.295 70.1253 208.105 70.6053 207.295 71.8853C206.495 75.6053 211.235 83.3953 213.145 86.3453C214.025 82.8253 215.035 75.4053 211.055 71.7353Z" fill="black"/>
<path d="M172.525 64.0153C172.525 64.0153 168.525 65.4153 176.525 114.565H210.525C209.955 100.725 209.935 92.1853 216.525 63.7653C211.761 62.7824 206.931 62.1474 202.075 61.8654C196.935 61.4949 191.775 61.4949 186.635 61.8654C180.045 62.4754 172.525 64.0153 172.525 64.0153Z" fill="#263238"/>
<path opacity="0.4" d="M172.215 82.8753C172.435 85.2653 172.725 87.9553 173.105 90.9953C175.895 88.4853 178.175 81.3453 177.335 77.1853C175.342 78.8031 173.614 80.723 172.215 82.8753Z" fill="black"/>
<path d="M175.855 75.4053C174.02 80.023 171.954 84.5454 169.665 88.9553C167.402 93.5245 164.724 97.8761 161.665 101.955L161.025 102.745L160.705 103.135C160.595 103.265 160.505 103.385 160.335 103.565C159.733 104.222 159.063 104.812 158.335 105.325C157.049 106.216 155.641 106.916 154.155 107.405C151.564 108.233 148.873 108.711 146.155 108.825C141.065 109.028 135.97 108.574 130.995 107.475L131.545 103.275C133.845 103.275 136.255 103.275 138.545 103.085C140.845 102.972 143.136 102.718 145.405 102.325C147.513 101.997 149.574 101.419 151.545 100.605C152.341 100.265 153.085 99.8141 153.755 99.2653C154.011 99.0512 154.242 98.8098 154.445 98.5453C154.445 98.5453 154.565 98.3853 154.645 98.2753L154.875 97.9453L155.345 97.2853C157.854 93.4094 160.09 89.3629 162.035 85.1753C164.035 80.9253 166.035 76.5153 167.865 72.1753L175.855 75.4053Z" fill="#FFB8B8"/>
<path d="M172.525 64.0153C168.355 65.0153 163.235 76.4553 163.235 76.4553L171.875 89.1553C171.875 89.1553 183.385 74.6653 182.015 70.2453C180.615 65.6353 177.615 62.7753 172.525 64.0153Z" fill="#263238"/>
<path d="M133.945 103.915L126.735 100.585L126.015 107.755C126.015 107.755 132.015 109.525 135.015 107.755L133.945 103.915Z" fill="#FFB8B8"/>
<path d="M122.425 99.8653L121.735 105.325L126.015 107.755L126.735 100.585L122.425 99.8653Z" fill="#FFB8B8"/>
<path d="M205.435 34.7653C203.905 42.9353 203.435 46.4353 198.755 50.1453C191.755 55.7253 182.005 52.0653 181.065 43.6053C180.205 35.9853 182.845 23.9053 191.315 21.6053C193.181 21.0906 195.147 21.0624 197.027 21.5234C198.907 21.9845 200.637 22.9194 202.053 24.239C203.469 25.5586 204.523 27.2189 205.115 29.0616C205.707 30.9043 205.817 32.868 205.435 34.7653Z" fill="#FFB8B8"/>
<path d="M187.485 36.4853C187.015 40.6553 186.835 51.4853 195.995 51.8253C207.205 52.2353 210.565 42.6553 209.565 38.8253C215.405 34.0753 216.245 25.9053 209.685 19.6553C203.125 13.4053 188.685 16.8953 184.685 22.9853C179.615 30.5353 187.485 36.4853 187.485 36.4853Z" fill="#263238"/>
<path d="M198.715 22.0853C198.175 17.6853 198.595 14.6553 202.715 14.6553C206.835 14.6553 212.455 16.1453 214.515 20.3553C216.575 24.5653 216.745 31.1553 210.995 30.4853C205.245 29.8153 199.365 27.3453 198.715 22.0853Z" fill="url(#paint2_linear_1_533)"/>
<path d="M205.095 21.0253C204.095 15.7853 208.785 1.02534 220.175 0.0253413C225.455 -0.424659 227.895 5.25534 225.175 6.19534C230.175 6.13534 233.375 12.7453 228.715 13.7353C232.395 16.0953 231.485 20.9353 226.235 23.3153C222.325 25.1153 206.445 28.2853 205.095 21.0253Z" fill="#263238"/>
<path d="M217.265 26.6553C213.595 26.6553 209.765 26.1153 207.385 24.5253C206.719 24.1242 206.159 23.5703 205.751 22.9094C205.342 22.2486 205.097 21.4999 205.035 20.7253C205.032 20.6596 205.054 20.5952 205.097 20.545C205.139 20.4949 205.2 20.4629 205.265 20.4554C205.298 20.4512 205.332 20.4539 205.364 20.4635C205.396 20.473 205.425 20.4891 205.451 20.5107C205.476 20.5324 205.497 20.5591 205.511 20.5892C205.526 20.6192 205.534 20.652 205.535 20.6853C205.595 21.3843 205.819 22.0592 206.19 22.6552C206.56 23.2512 207.065 23.7514 207.665 24.1154C212.195 27.1154 222.665 26.1154 225.925 25.1154C228.745 24.1954 230.655 22.4054 231.035 20.3454C231.153 19.5894 231.06 18.8154 230.765 18.1093C230.47 17.4032 229.986 16.7926 229.365 16.3454C229.341 16.3229 229.322 16.2958 229.309 16.2657C229.296 16.2356 229.289 16.2031 229.289 16.1703C229.289 16.1376 229.296 16.1051 229.309 16.075C229.322 16.0449 229.341 16.0178 229.365 15.9953C229.412 15.9495 229.474 15.9239 229.54 15.9239C229.605 15.9239 229.668 15.9495 229.715 15.9953C230.413 16.5047 230.956 17.198 231.282 17.998C231.609 18.798 231.707 19.673 231.565 20.5254C231.155 22.7754 229.125 24.6954 226.125 25.6754C223.23 26.405 220.249 26.7348 217.265 26.6553Z" fill="#263238"/>
<path d="M184.935 35.4053C184.004 36.7116 183.62 38.33 183.865 39.9153C184.195 42.0153 186.235 42.1554 187.715 40.8154C189.195 39.4754 190.485 37.0554 189.395 35.3154C189.153 34.9395 188.818 34.6319 188.423 34.4218C188.029 34.2117 187.587 34.1062 187.14 34.1152C186.693 34.1242 186.255 34.2475 185.869 34.4733C185.483 34.6992 185.162 35.02 184.935 35.4053Z" fill="#FFB8B8"/>
<path d="M185.505 114.565C185.505 114.565 190.365 172.055 195.415 204.455C199.485 230.625 202.705 291.795 202.705 291.795H214.125C214.125 291.795 218.185 232.455 216.125 206.575C210.895 141.075 222.565 135.735 210.555 114.575L185.505 114.565Z" fill="#6932D4"/>
<path opacity="0.4" d="M199.885 136.295C195.359 141.045 191.706 146.557 189.095 152.575C190.425 165.495 192.005 179.835 193.685 192.395C200.578 174.549 202.715 155.217 199.885 136.295Z" fill="black"/>
<path d="M177.515 114.205C177.515 114.205 166.965 176.995 165.305 205.295C169.445 231.465 186.385 286.785 186.385 286.785L196.775 283.015C196.775 283.015 191.025 222.695 184.775 206.185C198.845 158.815 209.185 146.835 206.175 114.565C198.965 114.565 177.515 114.205 177.515 114.205Z" fill="#6932D4"/>
<path d="M184.995 289.545L199.035 285.735L198.235 280.135L183.205 284.205L184.995 289.545Z" fill="#263238"/>
<path d="M201.135 292.025H215.685L216.445 286.925L201.055 286.405L201.135 292.025Z" fill="#263238"/>
<path d="M211.055 112.565L212.585 115.615C212.705 115.855 212.425 116.095 212.035 116.095H176.355C176.055 116.095 175.795 115.945 175.775 115.745L175.465 112.745C175.465 112.535 175.715 112.355 176.045 112.355H210.495C210.598 112.341 210.704 112.353 210.801 112.39C210.899 112.426 210.986 112.487 211.055 112.565Z" fill="#6932D4"/>
<path opacity="0.5" d="M211.055 112.565L212.585 115.615C212.705 115.855 212.425 116.095 212.035 116.095H176.355C176.055 116.095 175.795 115.945 175.775 115.745L175.465 112.745C175.465 112.535 175.715 112.355 176.045 112.355H210.495C210.598 112.341 210.704 112.353 210.801 112.39C210.899 112.426 210.986 112.487 211.055 112.565Z" fill="black"/>
<path d="M206.425 116.405H207.345C207.535 116.405 207.675 116.305 207.665 116.195L207.225 112.195C207.225 112.075 207.055 111.985 206.875 111.985H205.945C205.765 111.985 205.625 112.075 205.635 112.195L206.065 116.195C206.085 116.325 206.245 116.405 206.425 116.405Z" fill="#6932D4"/>
<path d="M194.045 87.2853C193.934 87.2837 193.827 87.2469 193.739 87.1804C193.651 87.1139 193.587 87.021 193.555 86.9153C190.295 74.8553 183.555 64.9153 180.285 63.4153C180.031 63.2593 179.726 63.209 179.435 63.2753C179.374 63.3072 179.308 63.3263 179.24 63.3315C179.172 63.3368 179.104 63.328 179.039 63.3058C178.975 63.2836 178.915 63.2484 178.865 63.2024C178.814 63.1564 178.774 63.1006 178.746 63.0384C178.718 62.9762 178.703 62.9088 178.702 62.8406C178.701 62.7723 178.714 62.7046 178.74 62.6415C178.766 62.5785 178.805 62.5215 178.854 62.474C178.903 62.4265 178.961 62.3895 179.025 62.3653C179.298 62.265 179.59 62.2255 179.88 62.2497C180.17 62.2739 180.452 62.3611 180.705 62.5053C184.165 64.1453 191.005 73.9453 194.425 86.2753C196.875 86.2753 200.655 85.9453 201.575 85.8653C202.715 84.5053 211.095 74.0253 207.965 62.5553C207.947 62.4923 207.941 62.4263 207.949 62.3612C207.957 62.2961 207.978 62.2332 208.011 62.1763C208.043 62.1194 208.087 62.0697 208.139 62.03C208.192 61.9903 208.251 61.9615 208.315 61.9453C208.442 61.9116 208.577 61.9294 208.692 61.995C208.806 62.0605 208.89 62.1684 208.925 62.2953C212.415 75.0553 202.295 86.5653 202.185 86.6753C202.146 86.7239 202.097 86.7639 202.042 86.7932C201.987 86.8224 201.927 86.8401 201.865 86.8453C201.815 86.8453 196.825 87.2853 194.045 87.2853Z" fill="#6932D4"/>
<path d="M210.615 94.3453C205.165 84.1353 202.935 83.4153 201.965 80.1353C202.7 78.3012 203.749 76.6092 205.065 75.1353C204.405 74.9453 202.985 74.6653 202.065 74.4953C202.165 74.0453 202.275 73.6053 202.375 73.1753C201.374 73.0633 200.361 73.1106 199.375 73.3153V72.3153C198.105 72.039 196.8 71.9547 195.505 72.0653C195.618 72.5387 195.728 73.0187 195.835 73.5053C194.835 73.6953 193.315 74.0053 192.585 74.2153C194.004 75.8219 195.046 77.7248 195.635 79.7853C192.695 84.8353 181.275 117.295 199.855 119.785C218.435 122.275 216.055 104.565 210.615 94.3453Z" fill="#6932D4"/>
<path d="M210.615 94.3453C205.165 84.1353 202.935 83.4153 201.965 80.1353C202.7 78.3012 203.749 76.6092 205.065 75.1353C204.405 74.9453 202.985 74.6653 202.065 74.4953C202.165 74.0453 202.275 73.6053 202.375 73.1753C201.374 73.0633 200.361 73.1106 199.375 73.3153V72.3153C198.105 72.039 196.8 71.9547 195.505 72.0653C195.618 72.5387 195.728 73.0187 195.835 73.5053C194.835 73.6953 193.315 74.0053 192.585 74.2153C194.004 75.8219 195.046 77.7248 195.635 79.7853C192.695 84.8353 181.275 117.295 199.855 119.785C218.435 122.275 216.055 104.565 210.615 94.3453Z" fill="#E3E3E3"/>
<path d="M194.875 78.8153C194.759 79.3303 194.709 79.8578 194.725 80.3853C194.725 80.7553 195.725 81.0053 196.835 81.1153C197.945 81.2253 202.605 81.4053 202.455 80.8853C202.305 80.3653 202.685 79.6553 202.705 79.2153C202.725 78.7753 200.855 78.7553 199.285 78.8153C197.715 78.8753 195.185 78.2553 194.875 78.8153Z" fill="#6932D4"/>
<path d="M184.065 116.405H184.985C185.165 116.405 185.305 116.305 185.295 116.195L184.865 112.195C184.865 112.075 184.695 111.985 184.505 111.985H183.615C183.435 111.985 183.295 112.075 183.305 112.195L183.735 116.195C183.715 116.325 183.875 116.405 184.065 116.405Z" fill="#6932D4"/>
<defs>
<linearGradient id="paint0_linear_1_533" x1="15.21" y1="111.038" x2="33.0853" y2="71.3225" gradientUnits="userSpaceOnUse">
<stop stop-color="#F88227"/>
<stop offset="1" stop-color="#F9BA3A"/>
</linearGradient>
<linearGradient id="paint1_linear_1_533" x1="72.7011" y1="103.578" x2="73.1945" y2="65.5951" gradientUnits="userSpaceOnUse">
<stop stop-color="#F88227"/>
<stop offset="1" stop-color="#F9BA3A"/>
</linearGradient>
<linearGradient id="paint2_linear_1_533" x1="184.717" y1="33.9771" x2="200.689" y2="16.5771" gradientUnits="userSpaceOnUse">
<stop stop-color="#F88227"/>
<stop offset="1" stop-color="#F9BA3A"/>
</linearGradient>
</defs>
</svg>
