<svg width="211" height="37" viewBox="0 0 211 37" fill="none" xmlns="http://www.w3.org/2000/svg">
<path d="M58.2839 17.602V29.2541H56.1221V6.67657H67.8971V8.60282H58.2853V15.6758V17.602H58.2839Z" fill="#6932D4"/>
<path d="M85.8888 6.6756V21.422C85.8888 25.8435 87.9841 28.022 92.4073 28.022C96.7973 28.022 98.8927 25.8435 98.8927 21.422V6.6756H101.054V20.7598C101.054 26.8539 98.227 29.8537 92.4059 29.8537C86.5848 29.8537 83.7573 26.8539 83.7573 20.7598V6.6756H85.8859H85.8888Z" fill="#6932D4"/>
<path d="M122.174 8.60185H115.622V6.6756H130.889V8.60185H124.337H122.175H122.174Z" fill="#6932D4"/>
<path d="M145.556 6.6756H147.718V29.2532H145.556V6.6756Z" fill="#6932D4"/>
<path d="M204.461 19.8441L200.403 10.0237L196.18 19.8441L195.447 21.6127L192.288 29.2547H190.093L200.536 5.79279L210.548 29.2547H208.187L205.16 21.6127L204.461 19.8441Z" fill="#6932D4"/>
<path d="M166.898 18.4854H163.133V16.8114H167.761C171.454 16.8114 173.182 15.9901 173.182 12.7697C173.182 9.51767 171.552 8.47572 167.761 8.47572H162.422V6.6756H167.794C172.95 6.6756 175.511 8.69645 175.511 12.8327C175.511 16.3699 173.15 18.4854 169.325 18.4854H166.898Z" fill="#6932D4"/>
<path d="M165.49 18.5117L174.038 29.2795H171.41L163.062 18.5117V16.813H164.69L165.489 18.5117H165.49Z" fill="#6932D4"/>
<path d="M124.34 11.3585V29.2541H122.178V11.3585" fill="#6932D4"/>
<path d="M60.0962 15.6763H67.5303V17.6026H60.0962" fill="#6932D4"/>
<path fill-rule="evenodd" clip-rule="evenodd" d="M18.5127 36.0763C13.7703 36.0763 9.02656 34.3626 5.41637 30.9337C-1.80546 24.0774 -1.80546 12.9229 5.41637 6.06658C12.6382 -0.789772 24.3872 -0.789772 31.609 6.06658C38.8308 12.9229 38.8308 24.0774 31.609 30.9337C27.9988 34.3612 23.255 36.0763 18.5127 36.0763ZM5.91746 30.458C12.862 37.0511 24.1619 37.0511 31.1065 30.458C38.051 23.8649 38.051 13.1368 31.1065 6.54369C24.1619 -0.0494341 12.862 -0.0494341 5.91746 6.54369C-1.0271 13.1368 -1.0271 23.8649 5.91746 30.458Z" fill="#6932D4"/>
<path d="M16.1495 29.2894H10.4512C10.4512 22.0861 16.6232 16.2265 24.2103 16.2265V21.6365C19.7655 21.6365 16.1495 25.0694 16.1495 29.2894Z" fill="#6932D4"/>
<path d="M16.1495 18.4903H10.4512C10.4512 11.2871 16.6232 5.42743 24.2103 5.42743V10.8374C19.7655 10.8374 16.1495 14.2704 16.1495 18.4903Z" fill="#6932D4"/>
</svg>
