<svg width="291" height="231" viewBox="0 0 291 231" fill="none" xmlns="http://www.w3.org/2000/svg">
<path d="M272.201 230.7L193.923 230.335C191.684 230.325 189.47 229.874 187.405 229.008C185.341 228.142 183.467 226.878 181.891 225.288C180.315 223.697 179.068 221.812 178.22 219.74C177.373 217.668 176.942 215.449 176.952 213.21L177.781 16.9781C177.791 14.7384 178.242 12.5226 179.108 10.4572C179.975 8.39187 181.24 6.51741 182.83 4.94086C184.421 3.36431 186.307 2.11655 188.38 1.26883C190.453 0.421101 192.673 -0.00998603 194.913 0.000175547L273.184 0.358124C277.705 0.380411 282.032 2.19675 285.214 5.40797C288.396 8.61919 290.173 12.9625 290.155 17.4834L289.327 213.722C289.317 215.962 288.867 218.177 288.001 220.243C287.136 222.308 285.872 224.183 284.281 225.759C282.691 227.336 280.805 228.584 278.733 229.432C276.66 230.279 274.441 230.71 272.201 230.7Z" fill="#263238"/>
<path d="M273.071 7.44677L257.897 7.37658C257.403 7.3848 256.914 7.49051 256.461 7.68764C256.007 7.88478 255.597 8.16948 255.253 8.52543C254.909 8.88139 254.639 9.30161 254.459 9.76204C254.278 10.2225 254.189 10.7141 254.199 11.2087V13.96C254.208 14.455 254.12 14.9469 253.939 15.4078C253.758 15.8686 253.488 16.2893 253.144 16.6458C252.801 17.0023 252.391 17.2877 251.937 17.4856C251.483 17.6835 250.995 17.79 250.5 17.7992L220.916 17.6588C219.917 17.6312 218.97 17.2087 218.282 16.4838C217.594 15.7589 217.221 14.7907 217.246 13.7915V11.0403C217.27 10.0411 216.898 9.07297 216.21 8.34806C215.522 7.62315 214.574 7.20062 213.575 7.17305H208.241L194.955 7.10989C193.386 7.10157 191.83 7.40289 190.378 7.99659C188.925 8.59029 187.604 9.4647 186.489 10.5698C185.375 11.6748 184.49 12.9888 183.884 14.4365C183.279 15.8842 182.965 17.4371 182.96 19.0063L182.153 210.515C182.146 212.082 182.447 213.636 183.04 215.087C183.634 216.538 184.507 217.857 185.61 218.971C186.714 220.084 188.026 220.969 189.471 221.575C190.917 222.181 192.468 222.496 194.035 222.503L272.152 222.868C273.721 222.876 275.277 222.575 276.729 221.981C278.182 221.387 279.503 220.513 280.617 219.408C281.732 218.303 282.617 216.989 283.222 215.541C283.828 214.093 284.142 212.54 284.147 210.971L284.961 19.4345C284.968 17.8664 284.666 16.3123 284.073 14.8609C283.479 13.4096 282.605 12.0895 281.501 10.9762C280.397 9.86281 279.084 8.97804 277.637 8.37244C276.191 7.76684 274.639 7.45229 273.071 7.44677Z" fill="#EEEEEE"/>
<path d="M239.944 45.4034C241.966 50.446 241.942 56.0786 239.876 61.1037C237.811 66.1287 233.867 70.15 228.882 72.3125L229.437 72.109C234.576 70.0493 238.687 66.0324 240.865 60.9418C243.043 55.8513 243.109 50.1042 241.049 44.9647C238.989 39.8253 234.973 35.7146 229.882 33.5368C224.791 31.3591 219.044 31.2928 213.905 33.3525L213.357 33.5911C218.455 31.7135 224.083 31.8969 229.047 34.1025C234.012 36.3081 237.921 40.3621 239.944 45.4034Z" fill="#E0E0E0"/>
<path d="M233.389 46.4279C233.213 46.4981 232.575 45.3611 231.746 43.5503L232.336 43.803C231.466 44.1961 230.427 44.6523 229.297 45.1155L228.799 45.319L228.588 44.8137L228.258 43.9925C227.683 42.5467 227.177 41.1851 226.784 40.0621L227.374 40.3148C225.5 40.9675 224.229 41.2974 224.159 41.1219C224.089 40.9465 225.233 40.3008 227.037 39.4726L227.43 39.2971L227.626 39.7252C228.125 40.8131 228.7 42.1396 229.276 43.5854C229.388 43.8662 229.493 44.1469 229.599 44.4066L228.897 44.1048C230.041 43.6626 231.101 43.2696 232.006 42.9608L232.455 42.8064L232.596 43.2134C233.213 45.0944 233.543 46.3578 233.389 46.4279Z" fill="#FAFAFA"/>
<path d="M235.494 51.8745C235.214 51.9868 234.652 51.2498 234.245 50.2321C233.838 49.2144 233.733 48.295 234.013 48.1827C234.294 48.0704 234.856 48.8074 235.263 49.8251C235.67 50.8428 235.768 51.7832 235.494 51.8745Z" fill="#FAFAFA"/>
<path d="M222.938 54.9204C222.657 55.0327 221.899 53.8045 221.247 52.1762C220.594 50.5479 220.299 49.1442 220.58 49.0319C220.86 48.9196 221.611 50.1478 222.264 51.7691C222.917 53.3904 223.219 54.8081 222.938 54.9204Z" fill="#FAFAFA"/>
<path d="M95.2491 230.7L16.9711 230.335C14.7323 230.325 12.5174 229.874 10.4529 229.008C8.38839 228.142 6.5147 226.878 4.9388 225.288C3.36291 223.697 2.11566 221.812 1.26829 219.74C0.420921 217.668 -0.00998597 215.449 0.000175619 213.21L0.828366 16.9781C0.838482 14.7384 1.28965 12.5226 2.15611 10.4572C3.02256 8.39187 4.28734 6.51741 5.87823 4.94086C7.46912 3.36431 9.35495 2.11655 11.4281 1.26883C13.5012 0.421101 15.721 -0.00998603 17.9607 0.000175547L96.2317 0.358124C100.753 0.380411 105.08 2.19675 108.262 5.40797C111.444 8.61919 113.221 12.9625 113.203 17.4834L112.374 213.715C112.366 215.955 111.916 218.172 111.051 220.238C110.186 222.304 108.922 224.179 107.332 225.757C105.741 227.334 103.855 228.583 101.782 229.431C99.7091 230.279 97.489 230.71 95.2491 230.7Z" fill="#455A64"/>
<path d="M97.0387 7.13804L81.8575 7.06785C81.3626 7.07699 80.8742 7.18354 80.4204 7.38144C79.9667 7.57933 79.5563 7.86468 79.2128 8.2212C78.8693 8.57772 78.5995 8.99841 78.4186 9.45925C78.2377 9.92009 78.1494 10.412 78.1587 10.907V13.6583C78.168 14.1529 78.0797 14.6445 77.8987 15.105C77.7178 15.5654 77.4478 15.9856 77.1042 16.3416C76.7607 16.6975 76.3503 16.9822 75.8965 17.1794C75.4428 17.3765 74.9546 17.4822 74.46 17.4904L44.8627 17.3922C44.368 17.3794 43.8807 17.2692 43.4287 17.0679C42.9766 16.8665 42.5688 16.578 42.2284 16.2187C41.8881 15.8595 41.622 15.4366 41.4454 14.9744C41.2687 14.5121 41.185 14.0196 41.199 13.5249V10.7666C41.2178 10.272 41.1387 9.77844 40.9664 9.31437C40.7941 8.8503 40.5318 8.42481 40.1947 8.06228C39.8576 7.69976 39.4523 7.40732 39.002 7.20175C38.5516 6.99618 38.0651 6.88151 37.5704 6.86432H32.2293L18.9502 6.80116C17.3809 6.79192 15.8253 7.09231 14.3723 7.68516C12.9193 8.278 11.5976 9.15165 10.4828 10.2561C9.36793 11.3605 8.4819 12.6739 7.87542 14.1213C7.26894 15.5686 6.95393 17.1214 6.94841 18.6906L6.14128 210.227C6.13297 211.796 6.43405 213.351 7.02731 214.803C7.62057 216.255 8.49436 217.576 9.59868 218.69C10.703 219.804 12.0162 220.69 13.463 221.296C14.9099 221.902 16.4621 222.216 18.0307 222.222L96.1473 222.58C97.716 222.588 99.2709 222.287 100.723 221.694C102.175 221.101 103.496 220.227 104.61 219.122C105.724 218.018 106.61 216.705 107.216 215.258C107.822 213.811 108.137 212.259 108.142 210.69L108.949 19.1538C108.96 17.5816 108.661 16.0228 108.067 14.5668C107.474 13.1108 106.599 11.7865 105.492 10.6699C104.385 9.5533 103.068 8.66645 101.618 8.06033C100.167 7.45422 98.6109 7.14078 97.0387 7.13804Z" fill="#FAFAFA"/>
<path d="M80.6644 74.3129C75.5679 76.1428 69.9587 75.9127 65.0292 73.6715C60.0998 71.4302 56.2389 67.3546 54.2676 62.3111C54.3307 62.5006 54.3869 62.6901 54.4501 62.8726C55.3559 65.4673 56.7669 67.8567 58.6015 69.903C60.4361 71.9492 62.6579 73.6116 65.1387 74.7942C67.6195 75.9768 70.31 76.6562 73.0548 76.793C75.7997 76.9298 78.5444 76.5214 81.1305 75.5914C83.7166 74.6614 86.0928 73.2282 88.1218 71.3745C90.1508 69.5209 91.7924 67.2836 92.9518 64.7919C94.1112 62.3002 94.7654 59.6034 94.8765 56.8575C94.9877 54.1115 94.5537 51.3707 93.5996 48.7934C93.5364 48.6039 93.4592 48.4214 93.389 48.2389C95.0814 53.3862 94.6987 58.9908 92.3223 63.8602C89.9459 68.7297 85.7633 72.4798 80.6644 74.3129Z" fill="#FAFAFA"/>
<path d="M67.7505 42.8695C67.8136 43.045 66.6556 43.6345 64.8237 44.3996L65.0975 43.824C65.4624 44.7014 65.8695 45.7471 66.2976 46.8912L66.4801 47.4035L65.9678 47.586L65.1396 47.8878C63.6797 48.4142 62.3321 48.8704 61.1741 49.2143L61.4478 48.6388C62.0233 50.5268 62.3111 51.8041 62.1497 51.8673C61.9882 51.9305 61.3776 50.7724 60.6126 48.9406L60.4512 48.5475L60.8863 48.3651C61.9882 47.9018 63.3288 47.3825 64.7886 46.8561L65.6168 46.5613L65.294 47.2631C64.8869 46.1121 64.536 45.0383 64.2622 44.1258L64.1219 43.6767L64.536 43.5503C66.438 42.9678 67.7084 42.659 67.7505 42.8695Z" fill="#FAFAFA"/>
<path d="M73.2669 40.9535C73.3722 41.2342 72.6212 41.7676 71.5895 42.1396C70.5577 42.5116 69.6453 42.5748 69.54 42.294C69.4348 42.0133 70.1928 41.4728 71.2175 41.1079C72.2422 40.7429 73.1616 40.6657 73.2669 40.9535Z" fill="#FAFAFA"/>
<path d="M69.2595 65.9885C68.9717 66.0938 67.561 62.8863 66.1012 58.8296C64.6413 54.7729 63.6868 51.404 63.9956 51.2987C64.3044 51.1934 65.6941 54.4009 67.1539 58.4576C68.6138 62.5143 69.5402 65.8903 69.2595 65.9885Z" fill="#FAFAFA"/>
<path d="M79.2537 62.6618C79.359 62.9495 78.1097 63.6584 76.4463 64.248C74.7829 64.8375 73.3932 65.0902 73.2879 64.8024C73.1827 64.5147 74.432 63.8058 76.0954 63.2162C77.7588 62.6267 79.1554 62.381 79.2537 62.6618Z" fill="#FAFAFA"/>
<path d="M207.56 104.078C207.56 104.078 207.56 120.032 203.566 121.541C192.702 125.654 179.703 124.706 175.141 124.271C174.594 123.892 173.962 123.429 173.246 122.867C172.627 122.363 172.098 121.758 171.681 121.077C171.132 120.242 170.696 119.338 170.383 118.389C170.361 118.199 170.279 118.021 170.149 117.88C170.019 117.74 169.847 117.645 169.659 117.609C169.471 117.572 169.276 117.597 169.103 117.68C168.931 117.762 168.788 117.898 168.698 118.066C168.375 118.831 168.48 121.611 170.235 123.976C170.317 124.129 170.365 124.297 170.375 124.47C170.385 124.643 170.358 124.816 170.296 124.977C170.233 125.138 170.136 125.284 170.012 125.405C169.888 125.525 169.739 125.617 169.575 125.675C167.751 126.566 161.279 129.303 160.255 129.921C159.335 130.475 158.493 131.381 159.518 131.444C160.542 131.507 165.975 130.166 165.975 130.166C165.975 130.166 158.816 131.781 159.104 132.812C159.293 133.514 161.286 133.676 165.912 132.111C165.912 132.111 160.023 133.514 159.462 134.174C158.191 135.725 165.294 134.139 165.294 134.139C160.332 135.297 160.381 135.023 160.381 135.718C160.381 136.245 161.546 136.336 164.311 136.097C166.557 135.901 168.923 136.146 172.355 136.027C172.355 136.027 216.705 143.93 220.741 124.355C222.923 113.827 222.551 109.911 222.987 103.089" fill="#FFBE9D"/>
<path d="M168.298 133.514C168.298 133.633 166.824 134.055 164.929 134.448C163.034 134.841 161.49 135.051 161.469 134.925C161.448 134.799 162.957 134.377 164.838 133.991C166.719 133.605 168.27 133.388 168.298 133.514Z" fill="#EB996E"/>
<path d="M168.06 131.556C168.095 131.682 166.509 132.216 164.55 132.756C162.592 133.297 160.929 133.626 160.894 133.5C160.859 133.374 162.445 132.84 164.403 132.307C166.361 131.774 168.025 131.437 168.06 131.556Z" fill="#EB996E"/>
<path d="M167.793 129.535C167.828 129.654 166.34 130.188 164.473 130.721C162.606 131.254 161.055 131.584 161.02 131.458C160.985 131.332 162.472 130.805 164.346 130.272C166.22 129.738 167.743 129.409 167.793 129.535Z" fill="#EB996E"/>
<path d="M266.172 107.061C266.172 107.061 265.919 104.682 264.27 91.3677C263.568 85.5704 259.027 82.2436 254.802 80.0398V79.9626L254.43 79.8573C250.945 78.1761 247.204 77.0873 243.362 76.6358L228.419 76.3971C228.419 76.3971 218.06 75.6111 210.501 82.6156C208.023 84.9177 205.482 105.482 205.482 105.482L212.957 108.142L212.894 105.11C212.894 105.11 212.585 111.265 214.621 114.852L219.428 123.323L216.249 138.266C214.27 143.958 207.756 164.768 210.311 185.374C213.477 210.901 214.445 222.046 214.445 222.046L257.609 222.25C257.609 222.25 266.193 184.09 261.491 150.359C259.385 135.367 253.574 133.725 252.738 130.524L253.679 107.56L266.172 107.061Z" fill="url(#paint0_linear_1_1773)"/>
<path d="M263.407 88.848C263.407 88.9462 251.11 89.0375 235.943 89.0515C220.776 89.0655 208.486 88.9954 208.486 88.8971C208.486 88.7988 220.776 88.7006 235.943 88.6865C251.11 88.6725 263.4 88.7427 263.407 88.848Z" fill="#FAFAFA"/>
<path d="M208.788 96.1545C208.788 96.2527 208.395 96.337 207.911 96.337C207.426 96.337 207.047 96.2387 207.047 96.1545C207.047 96.0703 207.44 95.972 207.925 95.972C208.409 95.972 208.788 96.0352 208.788 96.1545Z" fill="#FAFAFA"/>
<path d="M216.024 96.1545C215.439 96.3361 214.823 96.3982 214.213 96.337C213.604 96.3991 212.988 96.3395 212.402 96.1615C212.987 95.9786 213.603 95.9142 214.213 95.972C214.823 95.9149 215.438 95.9769 216.024 96.1545Z" fill="#FAFAFA"/>
<path d="M223.26 96.1545C222.675 96.3374 222.06 96.4018 221.449 96.344C220.84 96.4012 220.225 96.3392 219.639 96.1616C220.224 95.9794 220.839 95.915 221.449 95.972C222.059 95.9142 222.674 95.9762 223.26 96.1545Z" fill="#FAFAFA"/>
<path d="M230.503 96.1124C229.919 96.2993 229.303 96.3638 228.693 96.3019C228.083 96.359 227.468 96.2971 226.882 96.1194C227.467 95.9378 228.083 95.8757 228.693 95.9369C229.302 95.8748 229.917 95.9344 230.503 96.1124Z" fill="#FAFAFA"/>
<path d="M237.747 96.1122C236.552 96.3555 235.32 96.3555 234.125 96.1122C234.711 95.9339 235.326 95.8719 235.936 95.9297C236.546 95.8685 237.161 95.9306 237.747 96.1122Z" fill="#FAFAFA"/>
<path d="M244.99 96.1054C243.795 96.3487 242.563 96.3487 241.368 96.1054C241.954 95.927 242.569 95.865 243.179 95.9229C243.789 95.8617 244.404 95.9237 244.99 96.1054Z" fill="#FAFAFA"/>
<path d="M252.226 96.0984C251.642 96.2765 251.03 96.3385 250.422 96.2809C249.812 96.3428 249.196 96.2808 248.611 96.0984C249.197 95.92 249.812 95.858 250.422 95.9159C251.03 95.8543 251.643 95.9164 252.226 96.0984Z" fill="#FAFAFA"/>
<path d="M259.469 96.0914C258.883 96.2697 258.268 96.3317 257.658 96.2739C257.049 96.3351 256.433 96.273 255.848 96.0914C256.434 95.9138 257.049 95.8518 257.658 95.9089C258.268 95.8469 258.884 95.909 259.469 96.0914Z" fill="#FAFAFA"/>
<path d="M264.853 96.0842C264.853 96.1895 264.46 96.2667 263.982 96.2667C263.505 96.2667 263.105 96.1895 263.105 96.0842C263.105 95.9789 263.498 95.9017 263.975 95.9017C264.453 95.9017 264.853 95.9859 264.853 96.0842Z" fill="#FAFAFA"/>
<path d="M247.994 102.155C247.994 102.26 238.617 102.338 227.05 102.338C215.484 102.338 206.107 102.26 206.107 102.155C206.107 102.05 215.484 101.973 227.05 101.973C238.617 101.973 247.994 102.057 247.994 102.155Z" fill="#FAFAFA"/>
<path d="M265.056 102.471C265.056 102.569 261.504 102.654 257.125 102.654C252.745 102.654 249.194 102.569 249.194 102.471C249.194 102.373 252.745 102.289 257.125 102.289C261.504 102.289 265.056 102.359 265.056 102.471Z" fill="#FAFAFA"/>
<path d="M248.597 116.003C248.597 116.101 242.365 116.045 234.679 115.862C226.994 115.68 220.762 115.462 220.769 115.357C220.776 115.252 227.001 115.322 234.686 115.497C242.372 115.673 248.597 115.905 248.597 116.003Z" fill="#FAFAFA"/>
<path d="M260.388 145.698C260.388 145.797 252.078 145.881 241.838 145.881C231.598 145.881 223.281 145.797 223.281 145.698C223.281 145.6 231.584 145.516 241.838 145.516C252.092 145.516 260.388 145.593 260.388 145.698Z" fill="#FAFAFA"/>
<path d="M261.792 162.002C261.792 162.108 250.268 162.185 236.055 162.185C221.843 162.185 210.318 162.108 210.318 162.002C210.318 161.897 221.843 161.82 236.055 161.82C250.268 161.82 261.792 161.904 261.792 162.002Z" fill="#FAFAFA"/>
<path d="M262.213 181.009C262.213 181.107 250.555 181.191 236.181 181.191C221.807 181.191 210.143 181.107 210.143 181.009C210.143 180.911 221.8 180.826 236.181 180.826C250.562 180.826 262.213 180.904 262.213 181.009Z" fill="#FAFAFA"/>
<path d="M261.28 199.11C261.28 199.208 250.303 199.292 236.764 199.292C223.225 199.292 212.241 199.208 212.241 199.11C212.241 199.011 223.218 198.927 236.764 198.927C250.31 198.927 261.28 199.011 261.28 199.11Z" fill="#FAFAFA"/>
<path d="M259.034 214.817C259.034 214.922 248.963 215 236.533 215C224.103 215 214.031 214.922 214.031 214.817C214.031 214.712 224.103 214.635 236.533 214.635C248.963 214.635 259.034 214.719 259.034 214.817Z" fill="#FAFAFA"/>
<path d="M218.467 110.444C218.467 110.542 218.074 110.627 217.589 110.627C217.105 110.627 216.712 110.542 216.712 110.444C216.712 110.346 217.105 110.262 217.589 110.262C218.074 110.262 218.467 110.346 218.467 110.444Z" fill="#FAFAFA"/>
<path d="M224.888 110.444C223.831 110.688 222.732 110.688 221.674 110.444C222.732 110.201 223.831 110.201 224.888 110.444Z" fill="#FAFAFA"/>
<path d="M231.304 110.444C230.248 110.688 229.152 110.688 228.096 110.444C229.152 110.201 230.248 110.201 231.304 110.444Z" fill="#FAFAFA"/>
<path d="M237.719 110.444C236.663 110.688 235.567 110.688 234.511 110.444C235.567 110.201 236.663 110.201 237.719 110.444Z" fill="#FAFAFA"/>
<path d="M244.141 110.444C243.083 110.688 241.984 110.688 240.926 110.444C241.984 110.201 243.083 110.201 244.141 110.444Z" fill="#FAFAFA"/>
<path d="M249.103 110.444C249.103 110.542 248.71 110.627 248.225 110.627C247.741 110.627 247.348 110.542 247.348 110.444C247.348 110.346 247.741 110.262 248.225 110.262C248.71 110.262 249.103 110.346 249.103 110.444Z" fill="#FAFAFA"/>
<path d="M226.77 123.26C226.77 123.359 226.377 123.443 225.892 123.443C225.408 123.443 225.015 123.366 225.015 123.267C225.015 123.169 225.401 123.078 225.885 123.078C226.37 123.078 226.77 123.155 226.77 123.26Z" fill="#FAFAFA"/>
<path d="M234.42 123.225C233.799 123.408 233.149 123.472 232.504 123.414C231.86 123.481 231.209 123.421 230.588 123.239C231.21 123.06 231.859 122.996 232.504 123.05C233.148 122.988 233.798 123.047 234.42 123.225Z" fill="#FAFAFA"/>
<path d="M242.098 123.19C241.478 123.377 240.827 123.441 240.182 123.38C239.539 123.442 238.889 123.385 238.266 123.211C238.886 123.024 239.537 122.957 240.182 123.015C240.826 122.957 241.475 123.017 242.098 123.19Z" fill="#FAFAFA"/>
<path d="M247.685 123.169C247.685 123.267 247.292 123.351 246.807 123.351C246.323 123.351 245.93 123.274 245.93 123.176C245.93 123.078 246.323 122.993 246.807 122.986C247.292 122.979 247.685 123.063 247.685 123.169Z" fill="#FAFAFA"/>
<path d="M218.277 154.17C218.277 154.268 217.884 154.353 217.4 154.353C216.916 154.353 216.522 154.268 216.522 154.17C216.522 154.072 216.916 153.988 217.4 153.988C217.884 153.988 218.277 154.065 218.277 154.17Z" fill="#FAFAFA"/>
<path d="M225.801 154.17C225.189 154.348 224.548 154.409 223.913 154.352C223.28 154.41 222.642 154.348 222.032 154.17C222.642 153.988 223.28 153.926 223.913 153.987C224.548 153.926 225.19 153.988 225.801 154.17Z" fill="#FAFAFA"/>
<path d="M233.332 154.17C232.087 154.413 230.808 154.413 229.563 154.17C230.808 153.927 232.087 153.927 233.332 154.17Z" fill="#FAFAFA"/>
<path d="M240.863 154.17C240.253 154.348 239.615 154.41 238.982 154.352C238.347 154.409 237.707 154.348 237.094 154.17C237.706 153.988 238.347 153.926 238.982 153.987C239.615 153.926 240.254 153.988 240.863 154.17Z" fill="#FAFAFA"/>
<path d="M248.394 154.17C247.152 154.413 245.874 154.413 244.632 154.17C245.874 153.927 247.152 153.927 248.394 154.17Z" fill="#FAFAFA"/>
<path d="M255.932 154.17C255.319 154.348 254.679 154.409 254.044 154.352C253.411 154.41 252.773 154.348 252.163 154.17C252.772 153.988 253.411 153.926 254.044 153.987C254.679 153.926 255.32 153.988 255.932 154.17Z" fill="#FAFAFA"/>
<path d="M261.448 154.17C261.448 154.268 261.055 154.353 260.571 154.353C260.086 154.353 259.693 154.268 259.693 154.17C259.693 154.072 260.086 153.988 260.571 153.988C261.055 153.988 261.448 154.065 261.448 154.17Z" fill="#FAFAFA"/>
<path d="M211.588 172.39C211.588 172.488 211.195 172.573 210.711 172.573C210.227 172.573 209.833 172.488 209.833 172.39C209.833 172.292 210.227 172.208 210.711 172.208C211.195 172.208 211.588 172.285 211.588 172.39Z" fill="#FAFAFA"/>
<path d="M219.113 172.39C217.87 172.634 216.593 172.634 215.351 172.39C216.593 172.147 217.87 172.147 219.113 172.39Z" fill="#FAFAFA"/>
<path d="M226.636 172.39C225.394 172.634 224.116 172.634 222.874 172.39C224.116 172.147 225.394 172.147 226.636 172.39Z" fill="#FAFAFA"/>
<path d="M234.16 172.39C232.918 172.634 231.641 172.634 230.398 172.39C231.641 172.147 232.918 172.147 234.16 172.39Z" fill="#FAFAFA"/>
<path d="M241.691 172.39C240.449 172.634 239.171 172.634 237.929 172.39C239.171 172.147 240.449 172.147 241.691 172.39Z" fill="#FAFAFA"/>
<path d="M249.215 172.39C247.973 172.634 246.695 172.634 245.453 172.39C246.695 172.147 247.973 172.147 249.215 172.39Z" fill="#FAFAFA"/>
<path d="M256.739 172.39C255.497 172.634 254.219 172.634 252.977 172.39C254.219 172.147 255.497 172.147 256.739 172.39Z" fill="#FAFAFA"/>
<path d="M261.385 172.573C261.87 172.573 262.262 172.491 262.262 172.39C262.262 172.289 261.87 172.208 261.385 172.208C260.901 172.208 260.508 172.289 260.508 172.39C260.508 172.491 260.901 172.573 261.385 172.573Z" fill="#FAFAFA"/>
<path d="M212.599 191.607C212.599 191.705 212.206 191.789 211.722 191.789C211.238 191.789 210.845 191.705 210.845 191.607C210.845 191.509 211.238 191.424 211.722 191.424C212.206 191.424 212.599 191.516 212.599 191.607Z" fill="#FAFAFA"/>
<path d="M219.877 191.607C219.287 191.785 218.667 191.847 218.053 191.79C217.441 191.847 216.823 191.785 216.235 191.607C216.822 191.425 217.441 191.363 218.053 191.425C218.667 191.363 219.287 191.425 219.877 191.607Z" fill="#FAFAFA"/>
<path d="M227.149 191.607C225.949 191.851 224.713 191.851 223.513 191.607C224.713 191.363 225.949 191.363 227.149 191.607Z" fill="#FAFAFA"/>
<path d="M234.42 191.607C233.22 191.851 231.984 191.851 230.784 191.607C231.984 191.363 233.22 191.363 234.42 191.607Z" fill="#FAFAFA"/>
<path d="M241.705 191.607C240.506 191.851 239.269 191.851 238.07 191.607C239.269 191.363 240.506 191.363 241.705 191.607Z" fill="#FAFAFA"/>
<path d="M248.983 191.607C247.781 191.85 246.543 191.85 245.341 191.607C246.543 191.364 247.781 191.364 248.983 191.607Z" fill="#FAFAFA"/>
<path d="M256.262 191.607C255.06 191.85 253.821 191.85 252.619 191.607C253.821 191.364 255.06 191.364 256.262 191.607Z" fill="#FAFAFA"/>
<path d="M261.652 191.607C261.652 191.705 261.259 191.789 260.774 191.789C260.29 191.789 259.897 191.705 259.897 191.607C259.897 191.509 260.29 191.424 260.774 191.424C261.259 191.424 261.652 191.516 261.652 191.607Z" fill="#FAFAFA"/>
<path d="M215.028 207.813C215.028 207.911 214.635 207.995 214.15 207.995C213.666 207.995 213.273 207.911 213.273 207.813C213.273 207.714 213.666 207.63 214.15 207.63C214.635 207.63 215.028 207.75 215.028 207.813Z" fill="#FAFAFA"/>
<path d="M222.376 207.813C221.162 208.056 219.912 208.056 218.698 207.813C219.912 207.569 221.162 207.569 222.376 207.813Z" fill="#FAFAFA"/>
<path d="M229.725 207.813C228.511 208.056 227.261 208.056 226.047 207.813C227.261 207.569 228.511 207.569 229.725 207.813Z" fill="#FAFAFA"/>
<path d="M237.073 207.813C235.859 208.056 234.609 208.056 233.395 207.813C234.609 207.569 235.859 207.569 237.073 207.813Z" fill="#FAFAFA"/>
<path d="M244.421 207.813C243.208 208.056 241.957 208.056 240.744 207.813C241.957 207.569 243.208 207.569 244.421 207.813Z" fill="#FAFAFA"/>
<path d="M251.77 207.813C250.556 208.056 249.306 208.056 248.092 207.813C249.306 207.569 250.556 207.569 251.77 207.813Z" fill="#FAFAFA"/>
<path d="M257.195 207.813C257.195 207.911 256.809 207.995 256.325 207.995C255.84 207.995 255.44 207.911 255.44 207.813C255.44 207.714 255.833 207.63 256.325 207.63C256.816 207.63 257.195 207.75 257.195 207.813Z" fill="#FAFAFA"/>
<path d="M248.099 128.061C247.724 128.175 247.339 128.253 246.948 128.292C246.204 128.412 245.123 128.552 243.776 128.692C240.278 129.038 236.763 129.181 233.248 129.121C229.726 129.06 226.21 128.791 222.72 128.313C221.38 128.131 220.306 127.948 219.562 127.801C219.175 127.751 218.794 127.661 218.425 127.534C218.815 127.521 219.206 127.551 219.59 127.626L222.755 127.991C225.429 128.278 229.135 128.58 233.241 128.657C237.347 128.735 241.053 128.559 243.769 128.363L246.948 128.11C247.329 128.052 247.715 128.035 248.099 128.061Z" fill="#263238"/>
<path d="M249.861 119C249.782 118.652 249.744 118.297 249.748 117.94C249.713 117.154 249.664 116.185 249.608 115.041C249.482 112.494 249.32 109.167 249.145 105.489C248.969 101.811 248.843 98.3794 248.815 95.9299C248.815 94.7017 248.815 93.712 248.815 93.0312C248.8 92.6741 248.823 92.3165 248.885 91.9644C248.964 92.312 249.002 92.6678 248.997 93.0242C249.033 93.8033 249.082 94.7719 249.145 95.9229C249.264 98.4636 249.426 101.79 249.608 105.468C249.791 109.146 249.903 112.585 249.931 115.034C249.931 116.256 249.931 117.245 249.931 117.933C249.946 118.29 249.922 118.648 249.861 119Z" fill="#263238"/>
<g opacity="0.4">
<path opacity="0.4" d="M225.478 128.44C228.905 128.247 232.303 127.703 235.62 126.818C238.905 125.829 242.056 124.088 244.175 121.393C246.927 117.884 247.425 113.202 247.748 108.759C248.099 103.889 248.232 98.8142 249.011 93.5362L249.917 117.912V129.141L237.985 134.223L225.478 128.44Z" fill="black"/>
</g>
<path d="M197.341 161.434C213.578 161.434 226.741 148.56 226.741 132.679C226.741 116.798 213.578 103.924 197.341 103.924C181.103 103.924 167.94 116.798 167.94 132.679C167.94 148.56 181.103 161.434 197.341 161.434Z" fill="#0F624A"/>
<path d="M195.551 158.409C211.789 158.409 224.952 145.535 224.952 129.654C224.952 113.773 211.789 100.899 195.551 100.899C179.314 100.899 166.15 113.773 166.15 129.654C166.15 145.535 179.314 158.409 195.551 158.409Z" fill="#168C69"/>
<path d="M196.493 150.706C208.849 150.069 218.374 139.997 217.766 128.21C217.159 116.422 206.65 107.383 194.293 108.02C181.936 108.656 172.412 118.728 173.019 130.516C173.627 142.303 184.136 151.343 196.493 150.706Z" fill="#1BA27A"/>
<path fill-rule="evenodd" clip-rule="evenodd" d="M196.985 127.783L196.938 124.668H203.888V120H185V124.668H191.95V127.78C186.25 127.988 182 129.128 182 130.478C182 131.828 186.25 132.978 191.958 133.175V142.925H196.938V133.175H197.043C202.75 132.963 207 131.825 207 130.478C207 129.13 202.668 127.995 196.985 127.783ZM191.958 132.448C186.98 132.24 183.245 131.308 183.245 130.27C183.245 129.233 186.98 128.403 191.958 128.09V131.515C192.27 131.515 193.208 131.618 194.553 131.618C196.108 131.618 196.938 131.515 197.053 131.515L197 128.095C201.953 128.305 205.663 129.235 205.663 130.27C205.663 131.305 201.928 132.138 196.948 132.448C195.286 132.547 193.619 132.547 191.958 132.448Z" fill="white"/>
<path opacity="0.3" d="M193.284 108.191C205.384 107.04 216.158 115.526 217.66 127.247C217.66 127.043 217.66 126.832 217.618 126.622C216.417 114.585 205.468 105.777 193.165 106.97C180.861 108.163 171.843 118.852 173.043 130.889C173.043 131.1 173.092 131.303 173.12 131.514C172.285 119.702 181.191 109.335 193.284 108.191Z" fill="black"/>
<path d="M222.131 117.28C222.076 117.219 222.031 117.151 221.997 117.077C221.906 116.929 221.794 116.733 221.646 116.48L221.085 115.512C220.849 115.059 220.579 114.625 220.278 114.213L219.169 112.641C218.769 112.073 218.228 111.525 217.702 110.901C217.137 110.235 216.524 109.611 215.87 109.034C215.526 108.725 215.21 108.332 214.817 108.072L213.631 107.146C211.841 105.791 209.909 104.635 207.869 103.7L206.156 102.998C205.869 102.885 205.574 102.759 205.279 102.661L204.36 102.387C203.735 102.219 203.117 102.008 202.472 101.854L200.499 101.475C199.825 101.347 199.142 101.263 198.457 101.222C197.759 101.133 197.055 101.086 196.351 101.082H194.197L192.014 101.285C188.984 101.667 186.028 102.495 183.241 103.742C180.475 105.049 177.912 106.748 175.633 108.788C173.552 110.727 171.75 112.945 170.277 115.378L169.323 117.147L169.084 117.582L168.895 118.038C168.768 118.34 168.642 118.635 168.523 118.93C168.037 120.071 167.626 121.244 167.294 122.439C167.112 123.015 167.035 123.611 166.901 124.173C166.768 124.73 166.667 125.295 166.6 125.864C166.449 126.929 166.365 128.003 166.347 129.079C166.303 130.055 166.331 131.033 166.431 132.005C166.479 132.877 166.587 133.745 166.754 134.602C166.93 135.402 167.021 136.16 167.224 136.834C167.428 137.508 167.603 138.112 167.772 138.666C167.914 139.146 168.09 139.615 168.298 140.07L168.719 141.115L168.972 141.754C169.005 141.826 169.031 141.901 169.049 141.979C169.049 141.979 169.007 141.916 168.944 141.775C168.881 141.635 168.775 141.403 168.656 141.144C168.537 140.884 168.375 140.512 168.193 140.112C167.974 139.658 167.789 139.189 167.638 138.708C167.463 138.154 167.266 137.543 167.056 136.869C166.845 136.195 166.733 135.466 166.558 134.63C166.378 133.769 166.259 132.897 166.2 132.019C166.09 131.039 166.052 130.051 166.087 129.065C166.098 127.978 166.175 126.892 166.319 125.815C166.384 125.241 166.483 124.672 166.614 124.109C166.747 123.534 166.824 122.937 167 122.355C167.328 121.136 167.736 119.94 168.221 118.775L168.6 117.87L168.789 117.407L169.028 116.965C169.344 116.375 169.66 115.778 169.99 115.175C171.471 112.706 173.287 110.455 175.387 108.486C177.7 106.429 180.301 104.72 183.107 103.412C185.926 102.145 188.919 101.308 191.986 100.927L194.197 100.724H196.372C197.077 100.722 197.78 100.768 198.478 100.864C199.173 100.913 199.864 101.002 200.548 101.131L202.542 101.524C203.194 101.678 203.819 101.889 204.444 102.071L205.37 102.345C205.679 102.45 205.967 102.577 206.262 102.696L207.988 103.398C210.043 104.349 211.985 105.526 213.778 106.907L214.972 107.847C215.358 108.149 215.673 108.549 216.024 108.83C216.677 109.417 217.287 110.05 217.849 110.725C218.369 111.364 218.902 111.918 219.302 112.501L220.39 114.094C220.684 114.516 220.947 114.96 221.176 115.421L221.702 116.417L222.025 117.028C222.067 117.109 222.103 117.193 222.131 117.28Z" fill="#FAFAFA"/>
<path d="M249.664 107.061C249.664 107.061 249.931 123.997 245.937 125.513C235.08 129.619 222.074 128.678 217.519 128.243C216.972 127.864 216.34 127.394 215.617 126.839C214.999 126.334 214.472 125.726 214.059 125.043C213.504 124.214 213.066 123.311 212.761 122.362C212.74 122.171 212.659 121.992 212.529 121.85C212.4 121.709 212.228 121.613 212.04 121.576C211.852 121.539 211.657 121.563 211.483 121.645C211.31 121.727 211.167 121.863 211.076 122.032C210.746 122.804 210.852 125.583 212.606 127.948C212.688 128.101 212.736 128.269 212.746 128.442C212.756 128.615 212.729 128.788 212.667 128.949C212.604 129.111 212.507 129.257 212.383 129.377C212.259 129.497 212.11 129.589 211.946 129.647C210.122 130.531 203.651 133.275 202.626 133.893C201.713 134.448 200.864 135.353 201.889 135.416C202.914 135.479 208.353 134.132 208.353 134.132C208.353 134.132 201.194 135.753 201.475 136.785C201.671 137.487 203.658 137.648 208.29 136.083C208.29 136.083 202.401 137.487 201.84 138.146C200.569 139.704 207.672 138.146 207.672 138.146C202.703 139.297 202.759 139.031 202.759 139.726C202.759 140.245 203.931 140.343 206.697 140.098C208.942 139.901 211.301 140.147 214.74 140.034C214.74 140.034 259.083 147.937 263.126 128.362C265.302 117.835 264.937 113.918 265.372 107.096" fill="#FFBE9D"/>
<path d="M210.676 137.487C210.676 137.606 209.195 138.027 207.307 138.413C205.419 138.799 203.861 139.024 203.84 138.897C203.819 138.771 205.328 138.35 207.209 137.964C209.09 137.578 210.641 137.36 210.676 137.487Z" fill="#EB996E"/>
<path d="M210.431 135.529C210.466 135.655 208.887 136.188 206.921 136.722C204.956 137.255 203.3 137.599 203.265 137.473C203.23 137.346 204.816 136.813 206.774 136.28C208.732 135.746 210.403 135.409 210.431 135.529Z" fill="#EB996E"/>
<path d="M210.171 133.5C210.206 133.626 208.718 134.16 206.844 134.686C204.97 135.213 203.426 135.557 203.391 135.43C203.356 135.304 204.844 134.778 206.718 134.244C208.591 133.711 210.136 133.353 210.171 133.5Z" fill="#EB996E"/>
<path d="M224.074 38.89C222.095 39.8936 220.039 44.9119 220.179 47.1297C220.32 49.3476 220.881 51.6146 220.27 53.7412C219.814 55.2923 218.74 56.6399 218.46 58.2331C218.312 59.7685 218.589 61.315 219.26 62.7039C219.93 64.0857 220.383 65.5631 220.6 67.0835C220.713 68.6136 220.116 70.3121 218.754 71.0069C225.066 71.6449 231.436 71.3517 237.662 70.1366" fill="#263238"/>
<path d="M227.97 78.7204C228.363 74.5725 228.672 70.1929 228.672 70.1929C228.672 70.1929 223.415 68.7892 222.994 61.7004C222.594 54.9486 225.205 39.6972 225.205 39.6972C229.159 38.5361 233.374 38.6161 237.281 39.9264C241.188 41.2367 244.599 43.7143 247.053 47.0246L243.285 80.6716C242.849 84.5809 239.137 87.3112 234.96 86.8129C230.7 86.2865 227.591 82.6719 227.97 78.7204Z" fill="#FFBE9D"/>
<path d="M224.671 51.7271C224.647 51.9598 224.714 52.1929 224.858 52.3774C225.001 52.5619 225.211 52.6835 225.443 52.7167C225.555 52.7369 225.67 52.7347 225.781 52.7103C225.892 52.6859 225.997 52.6398 226.091 52.5746C226.184 52.5093 226.263 52.4263 226.325 52.3302C226.386 52.2342 226.427 52.127 226.447 52.0149C226.473 51.7818 226.406 51.5478 226.262 51.3629C226.118 51.1779 225.907 51.0568 225.675 51.0252C225.562 51.0041 225.447 51.0055 225.336 51.0295C225.224 51.0535 225.118 51.0995 225.025 51.1649C224.931 51.2303 224.852 51.3137 224.791 51.4103C224.73 51.5068 224.689 51.6145 224.671 51.7271Z" fill="#263238"/>
<path d="M224.678 50.7444C224.776 50.8708 225.499 50.4356 226.467 50.5339C227.436 50.6321 228.082 51.1796 228.201 51.0743C228.32 50.969 228.166 50.8076 227.878 50.5549C227.484 50.2172 226.992 50.0133 226.474 49.9724C225.974 49.9233 225.47 50.0338 225.036 50.2882C224.748 50.4847 224.629 50.6883 224.678 50.7444Z" fill="#263238"/>
<path d="M234.68 53.0254C234.654 53.2585 234.72 53.4925 234.864 53.6774C235.009 53.8623 235.219 53.9835 235.452 54.015C235.564 54.0362 235.679 54.0347 235.791 54.0108C235.902 53.9868 236.008 53.9407 236.101 53.8753C236.195 53.81 236.274 53.7265 236.335 53.63C236.396 53.5335 236.437 53.4258 236.456 53.3132C236.48 53.0804 236.413 52.8474 236.269 52.6629C236.125 52.4784 235.915 52.3568 235.683 52.3236C235.571 52.3034 235.457 52.3055 235.345 52.3299C235.234 52.3543 235.129 52.4005 235.036 52.4657C234.942 52.5309 234.863 52.614 234.802 52.71C234.741 52.8061 234.699 52.9133 234.68 53.0254Z" fill="#263238"/>
<path d="M234.68 52.0849C234.785 52.2112 235.508 51.7761 236.47 51.8743C237.431 51.9726 238.091 52.52 238.21 52.4148C238.329 52.3095 238.21 52.141 237.887 51.8884C237.491 51.5545 237 51.3532 236.484 51.3129C235.982 51.2582 235.477 51.3691 235.045 51.6287C234.757 51.8252 234.631 52.0217 234.68 52.0849Z" fill="#263238"/>
<path d="M230.489 58.8718C229.995 58.6706 229.479 58.5247 228.952 58.4366C228.707 58.3875 228.482 58.3173 228.454 58.1489C228.464 57.8967 228.547 57.6528 228.693 57.447C228.98 56.8785 229.282 56.2749 229.605 55.6502C230.875 53.0815 231.823 50.9618 231.711 50.9127C230.761 52.3544 229.93 53.8707 229.226 55.4467C228.917 56.0784 228.623 56.682 228.349 57.2575C228.144 57.5468 228.056 57.9028 228.103 58.2541C228.131 58.3433 228.179 58.4252 228.242 58.4943C228.305 58.5634 228.382 58.6179 228.468 58.6542C228.602 58.7029 228.741 58.7359 228.882 58.7525C229.41 58.8629 229.951 58.903 230.489 58.8718Z" fill="#263238"/>
<path d="M228.699 70.1858C231.979 70.5595 235.298 70.0152 238.287 68.6136C238.287 68.6136 235.55 73.1827 228.636 71.8422L228.699 70.1858Z" fill="#EB996E"/>
<path d="M230.665 61.23C230.872 61.0186 231.13 60.8633 231.413 60.7785C231.697 60.6938 231.997 60.6825 232.286 60.7457C232.497 60.7853 232.698 60.8681 232.876 60.9888C233.053 61.1096 233.204 61.2658 233.318 61.4476C233.432 61.6209 233.489 61.825 233.483 62.0321C233.477 62.2393 233.407 62.4395 233.283 62.6056C233.111 62.7628 232.897 62.8655 232.667 62.9005C232.437 62.9355 232.202 62.9012 231.992 62.8021C231.552 62.597 231.158 62.3058 230.833 61.9459C230.73 61.859 230.647 61.7514 230.588 61.63C230.552 61.5774 230.532 61.515 230.532 61.4511C230.532 61.3872 230.552 61.3248 230.588 61.2721" fill="#EB996E"/>
<path d="M233.255 59.8192C233.1 59.8192 232.995 60.8369 232.027 61.4896C231.058 62.1424 229.956 61.9178 229.921 62.0652C229.886 62.2125 230.153 62.2968 230.623 62.3529C231.232 62.4223 231.847 62.2731 232.356 61.9318C232.847 61.6065 233.192 61.1031 233.318 60.5281C233.416 60.0929 233.325 59.8192 233.255 59.8192Z" fill="#263238"/>
<path d="M243.698 54.436C244.462 54.3519 245.233 54.4781 245.93 54.801C246.627 55.1353 247.164 55.7303 247.425 56.4573C247.643 57.2002 247.57 57.998 247.221 58.6892C246.874 59.3733 246.378 59.9706 245.769 60.4369C245.356 60.8012 244.863 61.0633 244.33 61.2019C244.062 61.2677 243.782 61.2662 243.515 61.1977C243.248 61.1291 243.003 60.9955 242.8 60.8088" fill="#FFBE9D"/>
<path d="M243.663 58.9982C243.579 58.9982 243.86 59.5035 244.555 59.3842C244.744 59.3418 244.922 59.2623 245.08 59.1502C245.238 59.0381 245.372 58.8958 245.474 58.7315C245.714 58.3672 245.881 57.9595 245.966 57.5313C246.064 57.0762 245.997 56.6007 245.776 56.1908C245.69 56.009 245.561 55.8505 245.401 55.7284C245.241 55.6063 245.055 55.5242 244.857 55.4889C244.155 55.3977 243.888 55.8679 243.972 55.889C244.056 55.91 244.316 55.7275 244.765 55.889C245.035 56.0238 245.247 56.2511 245.363 56.5295C245.479 56.8078 245.491 57.1185 245.397 57.405C245.243 58.163 244.878 58.8087 244.45 58.9701C244.021 59.1315 243.72 58.9561 243.663 58.9982Z" fill="#EB996E"/>
<path d="M256.065 62.6338C256.414 60.6147 256.109 58.5369 255.195 56.7031C254.458 55.3696 253.3 54.2817 252.682 52.885C251.98 51.2988 252.029 49.488 251.777 47.7685C251.455 45.6961 250.675 43.7217 249.494 41.989C248.313 40.2563 246.759 38.8091 244.948 37.753C241.516 35.8018 236.238 34.0261 232.377 36.6721C231.6 36.2285 230.724 35.9871 229.83 35.9703C228.187 35.9617 226.586 36.4863 225.268 37.4652C223.576 38.6262 222.29 40.2878 221.59 42.2168C220.909 44.1606 220.992 46.2904 221.821 48.1756C222.053 48.6809 222.425 49.2073 222.973 49.2775C223.405 49.2797 223.824 49.1251 224.152 48.8423C226.812 46.8824 229.176 44.5493 231.17 41.915C233.587 45.1444 236.633 47.8497 240.126 49.867C241.092 50.2914 241.926 50.9678 242.54 51.8252C242.955 52.7861 243.079 53.8475 242.898 54.8783C242.515 59.8381 242.126 64.8002 241.733 69.7646C243.432 70.3768 245.227 70.6765 247.032 70.649C247.434 70.6866 247.836 70.5823 248.169 70.3542C248.913 69.7225 248.478 68.1714 249.383 67.8135C249.367 68.4187 249.515 69.017 249.812 69.5446C250.109 70.0723 250.544 70.5095 251.069 70.8098C251.595 71.1101 252.193 71.2623 252.798 71.25C253.403 71.2378 253.994 71.0616 254.507 70.7402C254.31 70.284 254.114 69.8208 253.924 69.3365C254.13 69.0718 254.287 68.7723 254.388 68.4522C255.152 66.5778 255.714 64.6273 256.065 62.6338Z" fill="#263238"/>
<path d="M246.562 49.2633C246.337 49.4279 246.088 49.558 245.825 49.6493C245.129 49.9474 244.402 50.1641 243.656 50.2951C241.16 50.7576 238.581 50.3413 236.357 49.1167C234.133 47.8922 232.402 45.9351 231.458 43.5783C231.167 42.8792 230.958 42.1492 230.833 41.4025C230.775 41.1306 230.754 40.852 230.77 40.5743C231.003 41.5654 231.313 42.5369 231.697 43.48C232.674 45.7436 234.377 47.6169 236.538 48.8041C238.699 49.9913 241.194 50.4245 243.628 50.0354C244.626 49.8593 245.607 49.6011 246.562 49.2633Z" fill="#263238"/>
<path d="M220.074 66.445C219.836 66.1324 219.627 65.7988 219.449 65.4483C218.911 64.5182 218.453 63.5438 218.081 62.5356C217.497 61.021 217.377 59.3669 217.737 57.7841C217.856 57.3271 218.03 56.8864 218.256 56.4716C218.495 56.0435 218.783 55.6574 219.035 55.2574C219.298 54.8622 219.486 54.4221 219.59 53.9589C219.675 53.4702 219.703 52.9733 219.674 52.478C219.538 50.5333 219.592 48.5799 219.835 46.6456C220.036 45.0574 220.511 43.5161 221.239 42.0906C221.727 41.1191 222.419 40.2644 223.267 39.5849C223.503 39.4081 223.757 39.2575 224.025 39.1357C224.115 39.0854 224.212 39.0498 224.313 39.0305C224.313 39.0305 223.934 39.22 223.359 39.6972C222.566 40.3982 221.923 41.2531 221.471 42.2099C220.782 43.6206 220.334 45.1364 220.144 46.6947C219.927 48.6123 219.884 50.5457 220.018 52.471C220.047 52.9945 220.016 53.5196 219.927 54.0361C219.811 54.5374 219.604 55.0132 219.316 55.4399C219.049 55.861 218.762 56.24 218.544 56.633C218.326 57.0203 218.156 57.4328 218.039 57.8613C217.688 59.3855 217.781 60.978 218.305 62.4514C218.651 63.4536 219.068 64.4294 219.555 65.3711C219.751 65.7172 219.925 66.076 220.074 66.445Z" fill="#263238"/>
<path d="M248.457 70.1366C248.335 70.0637 248.222 69.9765 248.12 69.8769C247.824 69.5999 247.565 69.2862 247.348 68.9434C246.602 67.6326 246.295 66.1178 246.471 64.62C246.618 62.718 247.488 60.6194 248.218 58.3033C248.614 57.0904 248.82 55.8239 248.829 54.5483C248.826 53.1874 248.38 51.8645 247.559 50.7794C246.704 49.6981 245.691 48.7517 244.555 47.972C243.474 47.1929 242.393 46.4559 241.41 45.7049C239.666 44.3752 238.002 42.9432 236.427 41.4166C235.08 40.1182 234.062 38.9952 233.374 38.2091C233.03 37.8091 232.77 37.5073 232.602 37.2827C232.434 37.0581 232.342 36.9528 232.356 36.9458C232.37 36.9388 232.469 37.037 232.658 37.2335L233.479 38.1109C234.181 38.8689 235.241 39.9638 236.603 41.2341C238.197 42.7261 239.87 44.1318 241.614 45.4453C242.596 46.1963 243.67 46.9122 244.765 47.6982C245.932 48.4877 246.973 49.4484 247.853 50.5478C248.719 51.694 249.187 53.0911 249.187 54.5273C249.176 55.84 248.958 57.1428 248.541 58.3875C247.783 60.7457 246.906 62.8022 246.73 64.6481C246.534 66.095 246.794 67.567 247.474 68.8592C247.755 69.3193 248.084 69.7476 248.457 70.1366Z" fill="#455A64"/>
<path d="M250.724 49.067C250.467 49.0091 250.218 48.922 249.98 48.8073C249.51 48.6248 248.843 48.323 248.029 47.923C243.779 45.828 239.919 43.0197 236.617 39.62C235.992 38.9673 235.501 38.4198 235.178 38.0268C234.994 37.838 234.836 37.6256 234.708 37.3951C234.75 37.36 235.508 38.1812 236.814 39.4375C238.506 41.0636 240.305 42.5759 242.197 43.9645C244.096 45.3406 246.087 46.5858 248.156 47.6914C249.735 48.5406 250.752 49.0108 250.724 49.067Z" fill="#455A64"/>
<path d="M222.201 47.1579C222.693 46.7193 223.209 46.3069 223.745 45.9226C224.973 44.9227 226.099 43.8036 227.107 42.5818C228.112 41.3576 228.989 40.0336 229.725 38.6303C230.293 37.5565 230.588 36.8546 230.637 36.8757C230.494 37.5307 230.257 38.1617 229.935 38.7497C229.263 40.2045 228.412 41.5696 227.401 42.8134C226.378 44.0627 225.198 45.176 223.892 46.1262C223.377 46.5448 222.808 46.8919 222.201 47.1579Z" fill="#455A64"/>
<path d="M44.3221 47.6072C44.4154 47.9006 44.4204 48.2151 44.3365 48.5114C44.2526 48.8077 44.0836 49.0728 43.8504 49.2739C43.6171 49.475 43.33 49.6032 43.0246 49.6425C42.7191 49.6818 42.4089 49.6306 42.1323 49.4952C41.0866 48.9828 40.9392 47.551 41.1287 46.407C41.3182 45.263 41.6901 44.0347 41.1988 42.9819C40.8198 42.1748 40.0197 41.6695 39.3951 41.0378C38.8459 40.4947 38.4296 39.8321 38.1788 39.1016C37.928 38.3711 37.8494 37.5925 37.9493 36.8266C38.0692 36.0582 38.3995 35.338 38.9037 34.7458C39.408 34.1536 40.0663 33.7127 40.8058 33.4718C42.3288 33.0296 44.2098 33.4718 45.3328 32.3558C46.1469 31.5487 46.182 30.2503 46.7997 29.2747C47.7752 27.7797 49.8598 27.52 51.6284 27.7376C53.3971 27.9552 55.1939 28.5026 56.9204 28.0534C58.3592 27.6744 59.5313 26.6497 60.8719 26.0181C62.3415 25.3249 63.991 25.1081 65.5898 25.398C67.1886 25.6879 68.6569 26.4701 69.7896 27.6352C70.9222 28.8003 71.6626 30.2901 71.9072 31.8965C72.1518 33.5029 71.8885 35.1456 71.1541 36.595C70.6277 37.6268 69.5819 40.6026 66.2762 40.6026" fill="#263238"/>
<path d="M43.6416 35.2335L43.6837 37.6058L44.161 73.1338C44.2171 77.2537 47.8106 80.4892 52.2253 80.398C56.6821 80.3068 60.3037 76.8536 60.3177 72.6776C60.3177 68.305 60.423 63.7008 60.423 63.7008C60.423 63.7008 66.0378 62.7674 67.224 55.4119C67.8065 51.7552 67.624 45.7614 67.3152 40.8624C67.249 39.8174 66.9723 38.7965 66.5016 37.8612C66.0309 36.9258 65.376 36.0952 64.5762 35.4193C63.7764 34.7435 62.8482 34.2362 61.8475 33.9281C60.8467 33.62 59.794 33.5173 58.7526 33.6263L43.6416 35.2335Z" fill="#B78876"/>
<path d="M65.8063 45.0452C65.8101 45.2904 65.7172 45.5273 65.5478 45.7046C65.3784 45.8819 65.146 45.9854 64.9009 45.9928C64.7808 46.0023 64.66 45.9878 64.5456 45.9501C64.4312 45.9124 64.3255 45.8522 64.2346 45.7731C64.1438 45.694 64.0696 45.5976 64.0165 45.4895C63.9634 45.3814 63.9324 45.2638 63.9253 45.1435C63.9251 44.8982 64.0201 44.6623 64.1903 44.4856C64.3605 44.3089 64.5925 44.2051 64.8377 44.196C64.9574 44.1865 65.0778 44.201 65.1918 44.2388C65.3058 44.2766 65.4111 44.3369 65.5014 44.416C65.5917 44.4952 65.6652 44.5917 65.7175 44.6998C65.7699 44.8078 65.8001 44.9253 65.8063 45.0452Z" fill="#263238"/>
<path d="M66.0166 43.9927C65.8972 44.1121 65.1813 43.5857 64.1707 43.5857C63.16 43.5857 62.409 44.098 62.3037 43.9717C62.1985 43.8453 62.3669 43.698 62.6898 43.4593C63.1294 43.1565 63.6509 42.9949 64.1847 42.9961C64.7118 42.996 65.2254 43.1631 65.6516 43.4734C65.9744 43.712 66.0727 43.9366 66.0166 43.9927Z" fill="#263238"/>
<path d="M55.657 45.0452C55.6571 45.2906 55.5621 45.5264 55.392 45.7031C55.2218 45.8798 54.9897 45.9837 54.7446 45.9928C54.6248 46.0023 54.5044 45.9877 54.3904 45.95C54.2764 45.9122 54.1712 45.8519 54.0809 45.7727C53.9906 45.6935 53.9171 45.5971 53.8647 45.489C53.8123 45.3809 53.7822 45.2635 53.776 45.1435C53.7722 44.8983 53.865 44.6615 54.0345 44.4842C54.2039 44.3069 54.4363 44.2034 54.6814 44.196C54.8015 44.1865 54.9222 44.201 55.0366 44.2387C55.151 44.2764 55.2568 44.3366 55.3476 44.4157C55.4385 44.4947 55.5126 44.5912 55.5657 44.6993C55.6189 44.8074 55.6499 44.925 55.657 45.0452Z" fill="#263238"/>
<path d="M56.0434 44.2173C55.9241 44.3366 55.2082 43.8102 54.1975 43.8102C53.1869 43.8102 52.4359 44.3225 52.3306 44.1962C52.2253 44.0699 52.3938 43.9225 52.7166 43.6838C53.1552 43.379 53.6774 43.2172 54.2116 43.2206C54.7406 43.2219 55.256 43.3888 55.6855 43.6979C55.9943 43.9014 56.0996 44.126 56.0434 44.2173Z" fill="#263238"/>
<path d="M59.7212 51.6989C60.2577 51.5371 60.8112 51.4382 61.3705 51.4041C61.6302 51.4041 61.8759 51.3269 61.918 51.1515C61.9434 50.8829 61.8845 50.613 61.7495 50.3794C61.5039 49.7548 61.2512 49.095 60.9775 48.4072C59.9177 45.5998 59.1456 43.2907 59.2579 43.2486C59.3702 43.2065 60.3318 45.4524 61.3635 48.2598C61.6232 48.9617 61.8618 49.6144 62.1004 50.2461C62.2637 50.5564 62.311 50.9147 62.2338 51.2568C62.1968 51.3488 62.1388 51.431 62.0645 51.4968C61.9902 51.5626 61.9016 51.6102 61.8057 51.6358C61.6622 51.6784 61.5132 51.6997 61.3635 51.6989C60.8185 51.7717 60.2662 51.7717 59.7212 51.6989Z" fill="#263238"/>
<path d="M60.4227 63.7079C56.9679 63.7562 53.5671 62.8477 50.5967 61.0829C50.5967 61.0829 52.983 66.1293 60.3384 65.4415L60.4227 63.7079Z" fill="#A36957"/>
<path d="M56.738 52.4009C56.9064 52.4009 56.9064 53.4958 57.8469 54.2749C58.7874 55.0539 59.9525 54.9346 59.9525 55.089C59.9525 55.2434 59.6858 55.3066 59.1945 55.3206C58.5492 55.3249 57.9221 55.1068 57.4188 54.703C56.939 54.3109 56.6317 53.7466 56.5625 53.1308C56.5415 52.6395 56.6608 52.4009 56.738 52.4009Z" fill="#263238"/>
<path d="M56.303 40.2025C56.2048 40.4763 55.1941 40.3499 54.0009 40.4903C52.8078 40.6307 51.8462 40.9606 51.6918 40.7149C51.6216 40.5956 51.7901 40.3359 52.1761 40.0692C52.6926 39.741 53.2772 39.535 53.8853 39.4669C54.4934 39.3988 55.1091 39.4704 55.6854 39.6762C56.1486 39.8516 56.3451 40.0692 56.303 40.2025Z" fill="#263238"/>
<path d="M65.6443 41.052C65.4618 41.2836 64.767 41.052 63.9248 41.052C63.0825 41.052 62.3737 41.2064 62.2052 40.9677C62.135 40.8484 62.2473 40.6238 62.5561 40.3992C62.98 40.1331 63.4736 39.9997 63.9738 40.0159C64.474 40.0322 64.9579 40.1974 65.3636 40.4905C65.6232 40.708 65.7215 40.9397 65.6443 41.052Z" fill="#263238"/>
<path d="M67.561 37.6128C67.561 37.6128 63.806 39.578 58.7667 37.2549C55.461 35.7319 51.6358 35.0581 50.8217 35.7389C50.0075 36.4197 49.9373 39.7816 46.7439 40.8624C46.7439 40.8624 47.165 47.2563 44.6383 47.1089C42.1116 46.9615 42.4696 34.1316 42.4696 34.1316L49.4882 33.7526L56.2611 32.2506L62.7111 32.9525L67.7224 34.1527L67.561 37.6128Z" fill="#263238"/>
<path d="M42.2588 32.2858C42.2588 32.1945 42.8273 31.9629 43.5291 32.2226C44.231 32.4823 44.5609 33.0297 44.4696 33.0859C44.3784 33.142 43.9994 32.7911 43.4028 32.5806C42.8062 32.37 42.2798 32.4121 42.2588 32.2858Z" fill="#263238"/>
<path d="M44.3784 30.1379C44.4977 30.1379 44.4556 30.9029 44.589 31.7662C44.7223 32.6295 45.0943 33.2682 45.0031 33.3313C44.9118 33.3945 44.3574 32.7979 44.21 31.8293C44.0691 31.263 44.1286 30.6653 44.3784 30.1379Z" fill="#263238"/>
<path d="M45.0729 44.4908C44.9606 44.4417 40.5038 42.9327 40.4617 47.5369C40.4196 52.141 45.0448 51.2427 45.0519 51.1093C45.0589 50.976 45.0729 44.4908 45.0729 44.4908Z" fill="#B78876"/>
<path d="M43.6695 49.3479C43.6695 49.3479 43.5852 49.4041 43.4519 49.4672C43.2584 49.546 43.0418 49.546 42.8483 49.4672C42.5529 49.2757 42.314 49.009 42.1561 48.6944C41.9981 48.3798 41.927 48.0288 41.9499 47.6775C41.9425 47.2831 42.024 46.892 42.1885 46.5335C42.2325 46.3895 42.3112 46.2585 42.4177 46.152C42.5242 46.0455 42.6552 45.9669 42.7992 45.9229C42.8914 45.9008 42.9884 45.911 43.074 45.9519C43.1596 45.9928 43.2286 46.0618 43.2694 46.1475C43.3256 46.2808 43.2694 46.372 43.3185 46.3791C43.3677 46.3861 43.4238 46.3019 43.3887 46.1124C43.3629 45.9963 43.2986 45.8924 43.2062 45.8176C43.0802 45.7213 42.9214 45.6784 42.7641 45.6983C42.5757 45.7342 42.3995 45.8174 42.2521 45.9402C42.1048 46.063 41.9911 46.2213 41.9218 46.4001C41.7194 46.795 41.6181 47.2339 41.6271 47.6775C41.6034 48.0868 41.6997 48.4941 41.9041 48.8494C42.1086 49.2047 42.4123 49.4926 42.7781 49.6778C42.8963 49.7104 43.0201 49.7173 43.1412 49.6979C43.2623 49.6785 43.3778 49.6334 43.48 49.5655C43.6554 49.4602 43.6835 49.3549 43.6695 49.3479Z" fill="#A36957"/>
<path d="M64.9708 30.0397C65.108 29.9367 65.2661 29.8648 65.434 29.8292C65.9215 29.7138 66.4341 29.776 66.8798 30.0046C67.212 30.1571 67.4942 30.4004 67.694 30.7065C67.9159 31.0878 67.9978 31.5346 67.9256 31.9698C67.8425 32.4686 67.5955 32.9255 67.2237 33.2683C66.8113 33.6487 66.3008 33.9064 65.7498 34.0122C65.1266 34.1327 64.4845 34.114 63.8694 33.9575C63.2542 33.801 62.6813 33.5105 62.1914 33.1068C61.6301 32.676 61.1641 32.1335 60.8228 31.5136C60.4298 30.8447 60.3163 30.0478 60.507 29.2958C60.639 28.912 60.8512 28.5608 61.1295 28.2655C61.4079 27.9702 61.746 27.7376 62.1212 27.5832C62.8767 27.2466 63.7037 27.102 64.5286 27.1621C65.3906 27.2315 66.2273 27.4871 66.981 27.9112C67.7347 28.3353 68.3874 28.9178 68.8941 29.6186C69.4164 30.3336 69.721 31.1842 69.7715 32.0681C69.8102 32.9261 69.6264 33.7796 69.2381 34.5456C68.8674 35.2823 68.3318 35.9236 67.6729 36.4196C67.0409 36.886 66.3266 37.2289 65.5673 37.4303C64.1747 37.8004 62.7133 37.8293 61.3071 37.5145C60.0157 37.1004 58.9278 36.5319 57.868 36.1669C56.9317 35.8113 55.9599 35.5571 54.9693 35.4089C54.2179 35.307 53.4574 35.2905 52.7023 35.3598C51.4671 35.5002 50.8143 35.7879 50.8003 35.7318C50.9523 35.6594 51.1095 35.5984 51.2705 35.5493C51.727 35.3953 52.197 35.2849 52.6743 35.2194C53.4386 35.1231 54.212 35.1231 54.9763 35.2194C55.9884 35.3456 56.9838 35.581 57.9452 35.9213C59.012 36.2792 60.135 36.8407 61.3703 37.2197C62.7238 37.5071 64.1263 37.4686 65.4621 37.1074C66.1949 36.9216 66.8801 36.5829 67.4728 36.1136C68.0655 35.6443 68.5523 35.0549 68.9012 34.3842C69.2721 33.6685 69.4376 32.8641 69.3794 32.0601C69.3212 31.2561 69.0415 30.4839 68.5713 29.8292C68.0973 29.1724 67.4867 28.626 66.7817 28.2275C66.0766 27.8289 65.2936 27.5876 64.4865 27.5201C63.7204 27.4619 62.9518 27.592 62.2476 27.8991C61.9161 28.0311 61.6164 28.232 61.3683 28.4885C61.1203 28.745 60.9296 29.0512 60.8088 29.387C60.6397 30.055 60.7379 30.7625 61.0825 31.3592C61.3979 31.944 61.8304 32.4577 62.3528 32.8682C62.8083 33.2513 63.3423 33.5297 63.9171 33.6838C64.492 33.8378 65.0937 33.8637 65.6796 33.7596C66.1853 33.6684 66.6563 33.4402 67.0413 33.0998C67.3802 32.7942 67.6075 32.3842 67.687 31.9347C67.7618 31.5446 67.6999 31.1405 67.5115 30.7907C67.34 30.5108 67.0979 30.2809 66.8096 30.1239C66.3947 29.8958 65.915 29.8142 65.448 29.8923C65.2865 29.933 65.1271 29.9822 64.9708 30.0397Z" fill="#455A64"/>
<path d="M85.6966 222.012L80.0748 146.892L33.647 145.481V221.724L58.7734 221.836L59.6016 164.916L62.8793 221.857L85.6966 222.012Z" fill="#263238"/>
<path d="M61.63 146.913C61.7719 147.816 61.8376 148.729 61.8265 149.643C61.8967 151.335 61.9528 153.672 61.9879 156.248C61.9879 157.532 61.9879 158.753 62.023 159.89C62.0695 160.909 61.8997 161.925 61.5247 162.873C61.2465 163.516 60.7724 164.054 60.1701 164.41C59.9641 164.554 59.7195 164.632 59.4683 164.635C59.4683 164.593 59.7209 164.53 60.0999 164.263C60.6189 163.876 61.0179 163.351 61.251 162.747C61.563 161.829 61.6894 160.858 61.623 159.89C61.623 158.76 61.5808 157.539 61.5528 156.255C61.5528 153.679 61.5107 151.342 61.5528 149.65C61.5023 148.737 61.5281 147.822 61.63 146.913Z" fill="#455A64"/>
<path d="M57.9802 148.71C58.0223 148.759 57.6643 148.976 57.6503 149.524C57.6416 149.668 57.6684 149.813 57.7283 149.945C57.7883 150.077 57.8795 150.193 57.9942 150.282C58.1435 150.369 58.3161 150.408 58.4884 150.393C58.6606 150.377 58.8239 150.309 58.9557 150.197C59.06 150.139 59.1476 150.054 59.2101 149.952C59.2727 149.85 59.308 149.734 59.313 149.615C59.3179 149.495 59.2922 149.376 59.2383 149.269C59.1843 149.163 59.104 149.071 59.0049 149.004C58.8782 148.886 58.7231 148.802 58.5546 148.762C58.3861 148.721 58.21 148.725 58.0433 148.773V148.597C58.2328 148.696 58.3381 148.766 58.3241 148.794C58.31 148.822 58.1907 148.794 57.9731 148.794L57.7836 148.752L57.9591 148.611C58.1603 148.494 58.3927 148.441 58.6249 148.46C58.8571 148.478 59.078 148.568 59.2575 148.717C59.395 148.818 59.5093 148.947 59.5928 149.096C59.6763 149.245 59.7271 149.41 59.7418 149.58C59.7496 149.777 59.7066 149.973 59.6169 150.149C59.5271 150.324 59.3937 150.474 59.2295 150.583C59.0202 150.747 58.7638 150.839 58.4983 150.845C58.2328 150.851 57.9724 150.772 57.7556 150.619C57.5932 150.485 57.4693 150.311 57.3965 150.113C57.3237 149.916 57.3047 149.703 57.3415 149.496C57.3764 149.223 57.5115 148.973 57.7205 148.794C57.8608 148.688 57.9661 148.681 57.9802 148.71Z" fill="#455A64"/>
<path d="M123.393 134.862V134.82C126.818 135.044 130.264 135.311 132.349 135.437C135.809 135.648 136.827 135.318 136.841 134.799C136.876 133.676 129.492 133.795 130.068 132.974C130.068 132.974 136.658 134.476 136.876 133.612C137.311 131.851 129.956 131.156 129.956 131.156C134.532 132.847 137.164 132.749 137.058 131.57C136.981 130.784 129.956 129.184 129.956 129.184C129.956 129.184 135.346 130.707 136.371 130.672C137.395 130.637 137.592 129.745 136.904 128.931C136.216 128.117 127.822 125.05 126.502 124.58C125.183 124.109 125.913 122.621 125.913 122.621C127.218 119.814 127.934 117.779 127.632 117.007C127.545 116.837 127.407 116.7 127.237 116.613C127.068 116.527 126.875 116.497 126.687 116.526C126.499 116.556 126.325 116.644 126.19 116.778C126.054 116.912 125.965 117.085 125.934 117.273C125.588 118.215 125.116 119.105 124.53 119.919C124.092 120.587 123.543 121.175 122.909 121.66C122.172 122.221 121.505 122.663 120.965 123.028L115.806 123.927L117.013 133.24L123.393 134.862Z" fill="#B78876"/>
<path d="M126.179 131.69C126.123 131.725 125.878 131.381 125.379 130.932C124.73 130.349 123.954 129.926 123.112 129.696L122.621 129.563L123.049 129.275L123.365 129.065C124.147 128.509 124.798 127.791 125.274 126.959C125.639 126.313 125.786 125.857 125.857 125.878C125.927 125.899 125.857 126.384 125.569 127.106C125.146 128.052 124.477 128.866 123.632 129.465C123.519 129.549 123.4 129.619 123.288 129.689L123.232 129.268C124.146 129.521 124.969 130.03 125.604 130.735C126.067 131.247 126.222 131.662 126.179 131.69Z" fill="#A36957"/>
<path d="M135.901 130.777C135.844 130.896 134.392 130.377 132.581 129.823C130.77 129.268 129.275 128.875 129.296 128.742C129.317 128.608 130.875 128.812 132.714 129.38C134.553 129.949 135.95 130.665 135.901 130.777Z" fill="#A36957"/>
<path d="M135.83 132.398C135.788 132.525 134.469 132.16 132.826 131.774C131.184 131.388 129.85 131.072 129.864 130.967C129.878 130.861 131.268 130.917 132.939 131.317C134.609 131.717 135.872 132.286 135.83 132.398Z" fill="#A36957"/>
<path d="M50.9128 71.4563C50.3837 71.3313 49.8271 71.4036 49.3476 71.6598C48.8452 71.9556 48.4551 72.4098 48.2387 72.9513C48.0944 73.2732 47.977 73.6066 47.8878 73.9479L47.7404 74.5024C47.6991 74.7393 47.5976 74.9616 47.4456 75.1481C47.3366 75.2626 47.1891 75.3326 47.0315 75.3446C46.8965 75.3476 46.7624 75.3213 46.6385 75.2674C46.4349 75.1832 46.2805 75.0989 46.1051 75.0147L45.1225 74.5304L43.4661 73.6882C42.9358 73.4639 42.4397 73.1662 41.9922 72.8039C42.5537 72.929 43.0964 73.1272 43.6065 73.3934L45.3049 74.1444L46.3016 74.6076L46.8139 74.8393C46.9754 74.9024 47.0385 74.8954 47.1087 74.8393C47.2675 74.5222 47.3809 74.1843 47.4456 73.8356C47.5483 73.4728 47.6846 73.1203 47.8527 72.7828C48.1202 72.1692 48.5981 71.6714 49.2002 71.3791C49.6012 71.1758 50.0612 71.1211 50.4987 71.2247C50.8005 71.3089 50.9268 71.4352 50.9128 71.4563Z" fill="#263238"/>
<path d="M60.7316 72.3896C60.8088 72.4879 59.2156 73.7933 57.11 75.4006L56.8082 75.6252L56.7451 75.2532C56.7451 75.1058 56.6889 74.9444 56.6608 74.783C56.5639 73.5972 56.0863 72.4746 55.2992 71.5825C54.9283 71.2612 54.5121 70.9964 54.064 70.7964C54.064 70.7473 54.7658 70.6981 55.5168 71.3368C55.9672 71.7163 56.3208 72.1974 56.5485 72.7405C56.8213 73.3759 57.0123 74.0433 57.117 74.7268L57.2013 75.2041L56.8293 75.0567C58.9559 73.4494 60.6614 72.2914 60.7316 72.3896Z" fill="#263238"/>
<path d="M117.61 122.39L115.687 122.32C112.964 122.643 105.159 121.836 99.0179 120.397C92.8766 118.958 93.0942 118.074 92.3011 116.951C91.508 115.828 90.1324 109.729 90.1324 109.729C88.9102 102.876 87.2457 96.1103 85.1492 89.4731C81.8083 79.0926 74.109 76.5028 74.109 76.5028C73.7698 76.3199 73.4151 76.1672 73.0492 76.0465C72.4386 75.6956 63.8128 72.9373 60.6123 72.7619V66.7259C55.2361 67.2523 52.4637 73.6041 52.4637 73.6041C50.2388 68.2279 41.8797 67.4488 41.8797 67.4488L42.0342 73.0005C39.0609 73.1999 36.1199 73.7367 33.268 74.6007C28.6076 76.2852 26.4178 77.9205 22.5506 80.9736C18.6834 84.0266 17.5464 90.589 17.5464 96.1547L34.5875 102.787V103.208L34.3909 122.966L33.6329 145.481L80.173 146.885L77.8148 127.738C79.1202 130.033 83.7455 133.143 93.01 135.494C103.426 138.14 118.894 135.943 118.894 135.943L117.61 122.39Z" fill="#6932D4"/>
<path d="M56.4995 84.9247C56.4995 84.8756 56.8505 84.7071 57.2856 85.0791C57.4076 85.1886 57.5026 85.3246 57.5635 85.4768C57.6244 85.6289 57.6493 85.7931 57.6365 85.9564C57.5979 86.1625 57.4999 86.3528 57.3544 86.5038C57.209 86.6548 57.0225 86.7599 56.818 86.8061C56.6135 86.8524 56.4 86.8378 56.2037 86.7641C56.0074 86.6905 55.837 86.561 55.7134 86.3916C55.6306 86.2505 55.5817 86.092 55.5707 85.9288C55.5598 85.7655 55.587 85.602 55.6503 85.4511C55.8819 84.9317 56.303 84.9107 56.289 84.9738C56.2749 85.037 56.0503 85.1633 55.9661 85.5564C55.9402 85.6587 55.9363 85.7654 55.9544 85.8694C55.9725 85.9734 56.0124 86.0724 56.0714 86.16C56.1557 86.2405 56.2587 86.2987 56.3712 86.3295C56.4836 86.3602 56.602 86.3624 56.7155 86.336C56.8291 86.3095 56.9342 86.2551 57.0215 86.1779C57.1088 86.1006 57.1754 86.0028 57.2154 85.8933C57.2295 85.7887 57.2218 85.6823 57.1928 85.5809C57.1639 85.4794 57.1142 85.385 57.047 85.3037C56.8013 84.9738 56.4995 84.9808 56.4995 84.9247Z" fill="#263238"/>
<path d="M58.2121 101.475C58.2121 101.425 58.563 101.257 58.9911 101.629C59.1156 101.737 59.2129 101.872 59.2751 102.025C59.3373 102.177 59.3627 102.342 59.3491 102.506C59.3115 102.713 59.2142 102.904 59.0692 103.056C58.9242 103.208 58.7378 103.314 58.5332 103.361C58.3285 103.408 58.1145 103.394 57.9178 103.321C57.721 103.247 57.55 103.118 57.426 102.948C57.3414 102.807 57.2916 102.647 57.2806 102.482C57.2697 102.318 57.2978 102.153 57.3628 102.001C57.5944 101.482 58.0155 101.46 58.0015 101.524C57.9875 101.587 57.7558 101.713 57.6716 102.106C57.6489 102.209 57.6471 102.316 57.6664 102.419C57.6857 102.523 57.7257 102.622 57.7839 102.71C57.8658 102.797 57.9689 102.863 58.0831 102.899C58.1974 102.936 58.3191 102.942 58.4367 102.918C58.5543 102.894 58.6637 102.841 58.7546 102.762C58.8456 102.684 58.9149 102.584 58.956 102.471C58.9685 102.367 58.96 102.261 58.9311 102.159C58.9022 102.058 58.8534 101.964 58.7876 101.882C58.5138 101.538 58.2121 101.545 58.2121 101.475Z" fill="#263238"/>
<path d="M59.2647 117.645C59.2296 117.596 59.6156 117.428 60.0507 117.8C60.1735 117.908 60.2692 118.044 60.3302 118.197C60.3911 118.349 60.4156 118.514 60.4017 118.677C60.3631 118.883 60.265 119.073 60.1196 119.224C59.9741 119.375 59.7876 119.481 59.5832 119.527C59.3787 119.573 59.1651 119.558 58.9688 119.485C58.7726 119.411 58.6021 119.282 58.4786 119.112C58.3957 118.971 58.3468 118.813 58.3359 118.649C58.3249 118.486 58.3521 118.323 58.4154 118.172C58.647 117.652 59.0681 117.631 59.0541 117.687C59.0401 117.744 58.8155 117.884 58.7313 118.27C58.7049 118.372 58.7007 118.479 58.7189 118.583C58.737 118.687 58.7771 118.786 58.8365 118.874C58.9129 118.966 59.0149 119.034 59.1298 119.069C59.2446 119.104 59.3672 119.104 59.4822 119.07C59.6006 119.051 59.7108 118.997 59.7993 118.916C59.8878 118.835 59.9508 118.73 59.9806 118.614C59.9951 118.509 59.9876 118.403 59.9586 118.301C59.9296 118.2 59.8797 118.105 59.8121 118.024C59.5665 117.708 59.2647 117.715 59.2647 117.645Z" fill="#263238"/>
<path d="M60.3597 135.241C60.3597 135.192 60.7177 135.023 61.1458 135.395C61.2703 135.503 61.3677 135.639 61.4299 135.791C61.4921 135.944 61.5174 136.109 61.5038 136.273C61.4723 136.482 61.3762 136.677 61.229 136.829C61.0818 136.981 60.8908 137.084 60.6826 137.122C60.4787 137.177 60.2628 137.166 60.0651 137.092C59.8675 137.018 59.6981 136.883 59.5807 136.708C59.4962 136.567 59.4464 136.409 59.4354 136.245C59.4244 136.082 59.4526 135.918 59.5175 135.767C59.7421 135.248 60.1632 135.227 60.1562 135.29C60.1492 135.353 59.9106 135.48 59.8263 135.873C59.7807 136.08 59.8186 136.297 59.9316 136.476C60.0113 136.567 60.1146 136.633 60.2299 136.668C60.3453 136.702 60.468 136.704 60.5843 136.673C60.7027 136.653 60.8125 136.598 60.8998 136.515C60.9872 136.433 61.0484 136.327 61.0756 136.21C61.0891 136.106 61.0817 136 61.054 135.899C61.0263 135.797 60.9788 135.703 60.9142 135.62C60.6335 135.304 60.3597 135.311 60.3597 135.241Z" fill="#263238"/>
<path d="M79.5834 140.406C79.5284 140.262 79.4907 140.111 79.4711 139.957C79.408 139.606 79.3308 139.171 79.2325 138.645C79.029 137.501 78.7693 135.837 78.4675 133.788C77.8569 129.689 77.1129 124.011 76.3619 117.729C75.6109 111.448 74.874 105.798 74.2564 101.671C73.9616 99.6778 73.7159 98.0354 73.5545 96.8212C73.4843 96.2878 73.4211 95.8526 73.365 95.4947C73.3362 95.3421 73.3245 95.1867 73.3299 95.0315C73.3984 95.173 73.4434 95.3247 73.4633 95.4807C73.5334 95.8316 73.6247 96.2597 73.737 96.7861C73.9616 97.9231 74.2704 99.5935 74.6003 101.622C75.3021 105.714 76.0531 111.392 76.8251 117.673C77.5972 123.955 78.299 129.57 78.8114 133.746C79.0641 135.753 79.2746 137.396 79.429 138.617C79.4922 139.15 79.5413 139.585 79.5834 139.943C79.6066 140.097 79.6066 140.253 79.5834 140.406Z" fill="#263238"/>
<g opacity="0.3">
<path opacity="0.3" d="M74.3125 99.5797C76.9866 108.795 77.8639 116.887 82.8892 124.496C84.7066 127.242 87.0811 129.576 89.8586 131.346C95.2699 134.792 101.79 135.929 108.212 136.525H112.536C112.536 136.525 102.815 137.354 94.9541 135.908C94.9541 135.908 82.8611 133.753 78.1095 128.187L74.3125 99.5797Z" fill="black"/>
</g>
<path d="M57.6013 144.021C57.5579 143.79 57.5344 143.555 57.5312 143.319C57.5312 142.807 57.468 142.119 57.4189 141.263C57.3276 139.431 57.2013 136.862 57.0398 133.704C56.71 127.324 56.1696 118.509 55.4256 108.788C54.6816 99.0673 53.9026 90.266 53.32 83.9002C53.0463 80.7488 52.8217 78.1871 52.6603 76.3552C52.5971 75.499 52.541 74.8182 52.5059 74.3058C52.4863 74.0723 52.4863 73.8375 52.5059 73.604C52.5698 73.8332 52.6097 74.0684 52.6252 74.3058C52.6883 74.8111 52.7655 75.492 52.8708 76.3482C53.0673 78.173 53.3411 80.7348 53.6709 83.8721C54.3167 90.238 55.1519 99.0252 55.8958 108.76C56.6398 118.495 57.1311 127.303 57.3767 133.697C57.4961 136.89 57.5733 139.473 57.6084 141.263C57.6084 142.126 57.6084 142.807 57.6084 143.319C57.6234 143.553 57.6211 143.788 57.6013 144.021Z" fill="#263238"/>
<g opacity="0.3">
<path opacity="0.3" d="M41.9922 72.8037C41.9922 72.8037 47.6562 78.6431 48.4422 77.7799C49.2283 76.9166 49.5793 71.3017 51.8813 72.4177C51.729 72.1614 51.5259 71.939 51.2845 71.764C51.0431 71.589 50.7686 71.4651 50.4776 71.4C49.6003 71.3017 48.1826 71.1684 47.4807 74.3829C47.4807 74.3829 47.4807 75.3795 46.7297 75.0847C45.9787 74.7899 41.9922 72.8037 41.9922 72.8037Z" fill="black"/>
</g>
<g opacity="0.3">
<path opacity="0.3" d="M53.3408 72.0177C53.6917 72.0259 54.0296 72.1524 54.2996 72.3766C54.5697 72.6008 54.7561 72.9096 54.8288 73.253C55.0546 74.7802 55.1812 76.3205 55.2078 77.8642L60.2331 72.902L56.9413 75.1971C56.9413 75.1971 56.4922 71.2948 54.0567 70.7965L53.3408 72.0177Z" fill="black"/>
</g>
<path d="M47.4244 124.117C47.3778 123.94 47.3472 123.759 47.3331 123.576C47.291 123.183 47.2349 122.657 47.1576 122.004C47.0173 120.6 46.8208 118.649 46.5751 116.242C46.1189 111.329 45.4872 104.619 44.7924 97.2004C44.4344 93.4876 44.1677 89.9292 43.8168 86.7217C43.4659 83.5143 42.6096 80.6788 41.1708 78.7136C40.0723 77.1325 38.5065 75.9348 36.693 75.2885C36.0076 75.0847 35.3011 74.9599 34.5874 74.9165C34.7718 74.8982 34.9575 74.8982 35.1419 74.9165C35.6724 74.937 36.1983 75.0242 36.707 75.1762C38.5811 75.7826 40.2086 76.9793 41.3463 78.5872C42.8623 80.5805 43.7326 83.5002 44.1537 86.7007C44.5748 89.9011 44.8064 93.4666 45.1574 97.1864C45.8171 104.612 46.4067 111.329 46.8418 116.235C47.0383 118.649 47.1927 120.614 47.305 122.018C47.3542 122.671 47.3893 123.197 47.4173 123.59C47.4354 123.765 47.4378 123.941 47.4244 124.117Z" fill="#FAFAFA"/>
<path d="M70.2979 133.893C70.2595 133.694 70.2384 133.492 70.2348 133.29C70.2348 132.861 70.1646 132.279 70.1155 131.549C70.0242 130.005 69.8838 127.829 69.7154 125.155C69.3645 119.751 68.803 112.297 67.9818 104.099C67.1606 95.9017 66.2342 88.4621 65.5043 83.1069L64.634 76.7902C64.5357 76.0696 64.4585 75.4941 64.4023 75.0636C64.3709 74.8638 64.3521 74.6622 64.3462 74.46C64.4079 74.6522 64.4525 74.8495 64.4795 75.0496C64.5497 75.4777 64.648 76.0462 64.7743 76.7691C65.027 78.2641 65.3709 80.4258 65.7639 83.0858C66.55 88.441 67.5186 95.8596 68.3468 104.085C69.175 112.311 69.6873 119.765 69.9751 125.176C70.1155 127.878 70.2137 130.089 70.2628 131.577C70.2628 132.279 70.2628 132.89 70.305 133.318C70.3176 133.509 70.3153 133.702 70.2979 133.893Z" fill="#FAFAFA"/>
<path d="M81.2047 106.64C81.1053 106.275 81.0349 105.901 80.9941 105.524C80.8748 104.738 80.7134 103.707 80.5239 102.464C80.1378 99.8815 79.5764 96.3161 78.8745 92.3927C78.1727 88.4693 77.4708 84.932 76.9304 82.3772C76.6777 81.1419 76.4671 80.1243 76.3057 79.3452C76.2075 78.9776 76.144 78.6017 76.1162 78.2222C76.2528 78.5756 76.3608 78.9394 76.4391 79.3101C76.6286 80.012 76.8812 81.0437 77.183 82.3211C77.7726 84.8688 78.5236 88.3991 79.2325 92.3295C79.9413 96.2599 80.4537 99.8324 80.7836 102.429C80.945 103.728 81.0643 104.78 81.1345 105.503C81.1924 105.879 81.2159 106.26 81.2047 106.64Z" fill="#FAFAFA"/>
<path d="M84.4756 89.5079H84.3002H83.7948L81.8647 89.4658L74.769 89.3114C68.7681 89.1851 60.4862 89.0798 51.341 89.15C42.1958 89.2202 33.9069 89.4448 27.913 89.6624L20.8173 89.9291L18.8872 89.9922H18.3818C18.3262 90.0028 18.269 90.0028 18.2134 89.9922H18.3818L18.8801 89.9431L20.8103 89.8097C22.4807 89.7045 24.9021 89.5711 27.899 89.4307C33.8928 89.15 42.1818 88.8833 51.334 88.8131C60.4862 88.7429 68.7751 88.8903 74.776 89.0798C77.7729 89.1711 80.1943 89.2693 81.8717 89.3535L83.8018 89.4588L84.3002 89.4939L84.4756 89.5079Z" fill="#FAFAFA"/>
<path d="M47.7613 73.211C46.7268 72.7516 45.7435 72.1847 44.8276 71.5196C43.8463 70.958 42.9286 70.292 42.0903 69.5333C43.1301 69.9839 44.1164 70.5489 45.0311 71.2178C46.0139 71.7764 46.9299 72.4452 47.7613 73.211Z" fill="#FAFAFA"/>
<path d="M60.633 69.5333C60.054 70.2435 59.3811 70.8716 58.6327 71.4003C58.0431 71.8705 57.4957 72.2776 57.0816 72.5583C56.9183 72.669 56.747 72.7675 56.5692 72.8531C56.5205 72.8841 56.4652 72.9033 56.4078 72.9093C56.3306 72.9093 56.3446 72.8461 56.3657 72.8671C57.0141 72.2482 57.6934 71.6626 58.4011 71.1125C59.0725 70.4904 59.8229 69.9594 60.633 69.5333Z" fill="#FAFAFA"/>
<path d="M74.2494 116.417C74.2494 116.515 65.785 116.873 55.3344 117.217C44.8838 117.561 36.3843 117.751 36.3843 117.652C36.3843 117.554 44.8487 117.189 55.3344 116.852C65.8201 116.515 74.2424 116.319 74.2494 116.417Z" fill="#FAFAFA"/>
<path d="M35.5069 98.8847C35.4184 98.5543 35.3643 98.2156 35.3455 97.8741C35.2683 97.2143 35.2051 96.2598 35.156 95.0666C35.1069 93.8735 35.0928 92.4838 34.9876 90.9397C34.8956 89.2747 34.6106 87.626 34.1383 86.0267C33.6736 84.4272 32.8448 82.957 31.7169 81.7314C30.7746 80.7579 29.6047 80.0343 28.3129 79.6258C27.4381 79.3502 26.515 79.2618 25.6038 79.3661C24.958 79.4503 24.6141 79.5837 24.6001 79.5416C24.677 79.4958 24.7596 79.4604 24.8457 79.4363C25.073 79.3455 25.3079 79.275 25.5476 79.2257C26.4829 79.0612 27.4434 79.114 28.355 79.3801C29.709 79.7634 30.9416 80.4885 31.9345 81.4857C33.1124 82.7433 33.978 84.2604 34.4612 85.9144C34.9465 87.5461 35.227 89.2318 35.2964 90.9327C35.3806 92.4978 35.3736 93.8945 35.3876 95.0737C35.4017 96.2528 35.4227 97.1792 35.4578 97.8811C35.5008 98.2138 35.5172 98.5494 35.5069 98.8847Z" fill="#263238"/>
<path d="M71.6785 119.923C71.6785 103.996 84.1319 91.4679 100.049 91.9567C116.613 92.4654 130.545 106.771 130.545 123.891C130.545 141.011 116.613 153.439 100.049 151.714C84.1319 150.056 71.6785 135.849 71.6785 119.923Z" fill="url(#paint1_linear_1_1773)"/>
<path d="M67.3776 121.295C67.3776 105.369 79.831 92.8406 95.7479 93.3293C112.313 93.8381 126.244 108.144 126.244 125.264C126.244 142.384 112.313 154.811 95.7479 153.087C79.831 151.429 67.3776 137.222 67.3776 121.295Z" fill="url(#paint2_linear_1_1773)"/>
<path d="M68.6269 121.38C68.6269 106.155 80.5425 94.1988 95.7478 94.6911C111.543 95.2026 124.805 108.856 124.805 125.168C124.805 141.48 111.543 153.344 95.7478 151.726C80.5425 150.168 68.6269 136.605 68.6269 121.38Z" fill="url(#paint3_linear_1_1773)"/>
<path d="M69.5215 121.44C69.5215 106.717 81.0513 95.1695 95.7476 95.6629C110.995 96.1748 123.78 109.361 123.78 125.098C123.78 140.835 110.995 152.297 95.7476 150.754C81.0513 149.265 69.5215 136.163 69.5215 121.44Z" fill="url(#paint4_linear_1_1773)"/>
<g style="mix-blend-mode:multiply" opacity="0.3">
<path d="M100.493 117.834C99.6074 126.586 91.5643 130.291 92.6139 138.341C93.2609 143.302 97.0215 147.484 101.217 150.748C113.941 149.414 123.78 138.878 123.78 125.097C123.78 109.36 110.994 96.174 95.7476 95.662C94.3003 95.6139 92.8514 95.6847 91.4156 95.8736C97.4707 101.899 101.255 110.315 100.493 117.834Z" fill="url(#paint5_linear_1_1773)"/>
</g>
<path d="M92.9402 139.547H84.9243C84.9243 129.414 93.6065 121.171 104.279 121.171V128.781C98.0268 128.781 92.9402 133.611 92.9402 139.547Z" fill="#FFDF39"/>
<path d="M92.9402 124.355H84.9243C84.9243 114.223 93.6065 105.98 104.279 105.98V113.59C98.0268 113.59 92.9402 118.419 92.9402 124.355Z" fill="#FFDF39"/>
<g opacity="0.3">
<path opacity="0.3" d="M35.5279 95.5154L39.711 145.684H33.647L34.2997 124.979L34.5594 102.78L35.5279 95.5154Z" fill="black"/>
</g>
<path d="M65.6865 144C68.88 144.758 81.0923 145.951 83.0785 146.148C87.2125 146.562 87.2546 146.19 87.2195 145.705C87.1282 144.386 79.9763 144.702 81.4783 143.747C82.9803 142.793 90.2655 144.372 90.1111 143.003C89.9146 141.221 82.4328 141.691 81.8011 141.677C81.1695 141.663 81.1484 140.75 81.7239 140.792C82.5521 140.842 91.2271 141.192 91.0516 139.438C90.9533 138.462 89.2198 138.799 89.2198 138.799C89.2198 138.799 81.0782 139.073 81.0221 138.245C80.9659 137.416 85.7386 137.08 87.3388 137.087C88.939 137.094 89.5918 136.329 89.0092 135.62C88.6092 135.135 83.654 135.002 82.0538 135.037C80.4536 135.072 76.067 135.234 78.1585 133.388C80.25 131.542 81.1765 129.345 81.008 128.573C80.9498 128.4 80.839 128.25 80.691 128.144C80.5431 128.038 80.3655 127.981 80.1834 127.981C80.0012 127.981 79.8237 128.038 79.6757 128.144C79.5278 128.25 79.4169 128.4 79.3587 128.573C78.8906 129.39 78.3093 130.137 77.6321 130.791C77.1137 131.343 76.5034 131.802 75.8283 132.146L74.93 132.588C73.5964 133.212 68.143 133.872 66.6832 133.704L65.6865 144Z" fill="#B78876"/>
<path d="M17.5464 96.1545V125.001C17.5464 133.325 34.1453 140.61 43.3958 142.182L68.424 145.362L69.2521 130.798C69.2521 130.798 38.2161 122.657 36.5597 120.607C34.9033 118.558 35.6543 91.9082 35.6543 91.9082L17.5464 96.1545Z" fill="#6932D4"/>
<path d="M33.3589 119.554C33.491 119.588 33.6202 119.632 33.7449 119.687L34.8609 120.116L39.072 121.793C40.581 122.418 42.469 122.965 44.5816 123.611L51.6493 125.674C56.8009 127.155 62.7877 128.833 69.2588 130.587L69.3992 130.629V130.777C69.2939 132.749 69.1746 134.827 69.0553 136.932C68.8939 139.81 68.7324 142.624 68.578 145.354V145.53H68.4096C59.9751 145.329 51.5866 144.223 43.3884 142.231C40.3143 141.48 37.8788 140.778 36.2154 140.259C35.3873 140.006 34.7486 139.796 34.3134 139.655L33.8221 139.487L33.6607 139.417L33.8361 139.452L34.3345 139.592L36.2505 140.14C37.928 140.617 40.3704 141.291 43.4446 142.006C51.6372 143.92 60.0057 144.98 68.4166 145.172L68.2341 145.34C68.3885 142.631 68.5429 139.817 68.7044 136.918C68.8237 134.812 68.943 132.707 69.0553 130.763L69.1886 130.945C62.7246 129.148 56.7377 127.436 51.5931 125.948C49.0173 125.19 46.6801 124.481 44.5324 123.842C42.3848 123.204 40.5529 122.614 39.0158 121.954L34.8047 120.193L33.7028 119.723C33.5835 119.676 33.4684 119.62 33.3589 119.554Z" fill="#263238"/>
<path d="M37.1983 121.358C36.5138 120.688 35.9172 119.933 35.4226 119.112C34.8294 118.362 34.3341 117.538 33.9487 116.663C34.6332 117.333 35.2299 118.088 35.7244 118.909C36.3131 119.662 36.8081 120.485 37.1983 121.358Z" fill="#263238"/>
<path d="M68.6909 140.224H68.4453L67.7434 140.112L65.0623 139.648L55.2363 137.852C51.0813 137.08 46.1122 136.153 40.6518 135.086L36.4406 134.244L34.2719 133.788C33.9069 133.718 33.57 133.619 33.17 133.528C32.7699 133.437 32.4681 133.304 32.0751 133.163C30.5997 132.572 29.2636 131.681 28.1517 130.545C27.0121 129.393 26.1169 128.023 25.5197 126.517C24.9245 125.009 24.6289 123.4 24.6494 121.779C24.6494 120.207 24.6494 118.661 24.6494 117.14C24.6494 114.101 24.6494 111.167 24.6494 108.374C24.6494 102.794 24.6494 97.7616 24.6915 93.5294C24.7337 89.2972 24.7337 85.9072 24.7477 83.5209C24.7477 82.3558 24.7477 81.4154 24.7477 80.7977C24.7477 80.5029 24.7477 80.2713 24.7477 80.0959C24.7416 80.0141 24.7416 79.932 24.7477 79.8502C24.7567 79.9319 24.7567 80.0142 24.7477 80.0959C24.7477 80.2713 24.7477 80.5029 24.7477 80.7977C24.7477 81.4434 24.7477 82.3558 24.7477 83.5209C24.7477 85.9072 24.7477 89.3183 24.8109 93.5294C24.874 97.7405 24.8109 102.794 24.846 108.374C24.846 111.181 24.846 114.101 24.846 117.14V121.779C24.8258 123.352 25.1119 124.913 25.6882 126.376C26.2673 127.837 27.1337 129.166 28.2359 130.286C29.3162 131.364 30.6061 132.21 32.0259 132.77C32.3698 132.911 32.7278 133.016 33.0787 133.128C33.4297 133.24 33.7806 133.311 34.1666 133.388L36.3283 133.844L40.5395 134.7L55.2714 137.564L65.0974 139.473L67.7645 140.006L68.4663 140.154C68.5435 140.169 68.6188 140.192 68.6909 140.224Z" fill="#FAFAFA"/>
<path d="M35.2054 114.347C35.2054 114.452 31.4154 114.733 26.727 114.978C22.0386 115.224 18.2275 115.336 18.2275 115.238C18.2275 115.14 22.0176 114.859 26.706 114.613C31.3944 114.368 35.2054 114.248 35.2054 114.347Z" fill="#FAFAFA"/>
<path d="M35.0928 139.178C35.3735 138.389 35.6968 137.616 36.0613 136.862C36.679 135.458 37.5001 133.5 38.3003 131.303C39.1004 129.107 39.7461 127.092 40.1812 125.618C40.3822 124.813 40.633 124.02 40.9322 123.246C40.9278 123.471 40.8972 123.695 40.841 123.913C40.7568 124.334 40.6164 124.938 40.4339 125.688C40.0549 127.176 39.4513 129.198 38.6442 131.43C37.9564 133.314 37.174 135.162 36.3 136.967C35.9631 137.669 35.6753 138.21 35.4648 138.589C35.3707 138.803 35.2454 139.001 35.0928 139.178Z" fill="#FAFAFA"/>
<path d="M56.1978 144.281C56.1448 143.499 56.1636 142.715 56.254 141.937C56.3522 140.491 56.5628 138.497 56.9137 136.322C57.2647 134.146 57.6928 132.181 58.0578 130.777C58.2197 130.01 58.4548 129.26 58.7596 128.538C58.6636 129.313 58.5206 130.082 58.3315 130.84C58.0367 132.244 57.6296 134.209 57.2927 136.385C56.9558 138.561 56.6962 140.533 56.5347 141.965C56.4706 142.743 56.3581 143.516 56.1978 144.281Z" fill="#FAFAFA"/>
<defs>
<linearGradient id="paint0_linear_1_1773" x1="197.509" y1="155.108" x2="266.947" y2="152.82" gradientUnits="userSpaceOnUse">
<stop stop-color="#E7BD4C"/>
<stop offset="1" stop-color="#DB8934"/>
</linearGradient>
<linearGradient id="paint1_linear_1_1773" x1="177.543" y1="78.9415" x2="117.043" y2="138.367" gradientUnits="userSpaceOnUse">
<stop stop-color="#F88227"/>
<stop offset="1" stop-color="#F9BA3A"/>
</linearGradient>
<linearGradient id="paint2_linear_1_1773" x1="83.4482" y1="152.827" x2="114.974" y2="85.6545" gradientUnits="userSpaceOnUse">
<stop stop-color="#FFDB44"/>
<stop offset="1" stop-color="#FEEF06"/>
</linearGradient>
<linearGradient id="paint3_linear_1_1773" x1="89.0758" y1="81.4639" x2="95.1829" y2="113.741" gradientUnits="userSpaceOnUse">
<stop stop-color="#FCB148"/>
<stop offset="0.052" stop-color="#FDB946"/>
<stop offset="0.142" stop-color="#FEC144"/>
<stop offset="0.318" stop-color="#FFC444"/>
<stop offset="0.485" stop-color="#FDB946"/>
<stop offset="0.775" stop-color="#F99C4C"/>
<stop offset="0.866" stop-color="#F8924F"/>
<stop offset="1" stop-color="#F8924F"/>
</linearGradient>
<linearGradient id="paint4_linear_1_1773" x1="167.1" y1="83.6628" x2="111.33" y2="138.437" gradientUnits="userSpaceOnUse">
<stop stop-color="#F88227"/>
<stop offset="1" stop-color="#F9BA3A"/>
</linearGradient>
<linearGradient id="paint5_linear_1_1773" x1="149.62" y1="83.6939" x2="101.029" y2="112.234" gradientUnits="userSpaceOnUse">
<stop stop-color="#F88227"/>
<stop offset="1" stop-color="#F9BA3A"/>
</linearGradient>
</defs>
</svg>
